{"glyphs":{"0":{"ha":1168,"x_min":51,"x_max":1117,"o":"m 1117 515 q 1076 308 1117 404 q 963 141 1035 213 q 793 28 890 69 q 583 -12 696 -12 q 374 28 471 -12 q 205 141 276 69 q 92 308 133 213 q 51 515 51 404 q 92 719 51 626 q 205 880 133 813 q 374 985 276 947 q 583 1022 471 1022 q 793 985 696 1022 q 963 880 890 947 q 1076 719 1035 813 q 1117 515 1117 626 m 899 504 q 878 624 899 568 q 819 719 858 679 q 720 781 779 758 q 583 804 661 804 q 447 781 506 804 q 348 719 388 758 q 288 624 308 679 q 268 504 268 568 q 288 384 268 439 q 347 290 307 329 q 445 227 386 250 q 582 204 504 204 q 720 227 661 204 q 819 290 779 250 q 878 384 858 329 q 899 504 899 439 z "},"1":{"ha":539,"x_min":26,"x_max":458,"o":"m 243 0 l 243 660 q 122 793 243 793 l 26 793 l 26 1010 l 122 1010 q 372 918 286 1010 q 458 660 458 826 l 458 0 l 243 0 z "},"2":{"ha":1149,"x_min":81,"x_max":1083,"o":"m 81 0 l 81 303 q 163 526 81 454 q 404 599 244 599 l 760 599 q 832 624 804 599 q 860 696 860 649 q 833 768 860 743 q 760 793 806 793 l 89 793 l 89 1010 l 760 1010 q 899 988 839 1010 q 1001 926 960 965 q 1063 834 1042 888 q 1083 718 1083 781 q 1061 601 1083 654 q 997 509 1039 547 q 897 449 956 471 q 763 428 838 428 l 404 428 q 315 400 346 428 q 285 321 285 372 l 285 217 l 1067 217 l 1067 0 l 81 0 z "},"3":{"ha":1151,"x_min":57,"x_max":1093,"o":"m 57 0 l 57 217 l 733 217 q 834 244 797 217 q 871 324 871 272 q 841 400 871 372 q 751 428 811 428 l 300 428 l 300 599 l 736 599 q 853 696 853 599 q 719 794 853 794 l 61 794 l 61 1010 l 733 1010 q 872 993 810 1010 q 978 943 933 976 q 1047 860 1022 910 q 1071 746 1071 811 q 1061 665 1071 700 q 1035 606 1051 631 q 997 564 1018 581 q 956 538 976 547 q 1053 457 1014 514 q 1093 321 1093 400 q 1069 186 1093 246 q 1000 85 1044 126 q 894 22 956 44 q 758 0 833 0 l 57 0 z "},"4":{"ha":1178,"x_min":60,"x_max":1150,"o":"m 794 0 l 794 269 l 408 269 q 150 351 240 269 q 60 604 60 432 l 60 1010 l 276 1010 l 276 606 q 307 504 276 532 q 410 476 338 476 l 794 476 l 794 1010 l 1010 1010 l 1010 476 l 1150 476 l 1150 269 l 1010 269 l 1010 0 l 794 0 z "},"5":{"ha":1233,"x_min":81,"x_max":1168,"o":"m 81 0 l 81 217 l 843 217 q 933 244 901 217 q 964 321 964 272 q 933 400 964 372 q 843 428 901 428 l 81 428 l 81 1010 l 1119 1010 l 1119 793 l 304 793 l 304 599 l 843 599 q 1085 526 1003 599 q 1168 303 1168 454 q 1148 182 1168 238 q 1088 86 1128 126 q 986 23 1047 46 q 843 0 925 0 l 81 0 z "},"6":{"ha":1215,"x_min":51,"x_max":1149,"o":"m 517 0 q 322 32 408 0 q 176 128 236 64 q 83 289 115 192 q 51 515 51 386 q 83 738 51 644 q 176 891 115 831 q 322 981 236 951 q 517 1010 408 1010 l 1107 1010 l 1107 793 l 517 793 q 354 748 415 793 q 275 599 293 703 l 839 599 q 1067 530 986 599 q 1149 311 1149 461 q 1067 80 1149 160 q 839 0 985 0 l 517 0 m 272 428 q 348 266 288 315 q 517 217 408 217 l 818 217 q 942 326 942 217 q 818 428 942 428 l 272 428 z "},"7":{"ha":1053,"x_min":54,"x_max":1031,"o":"m 63 0 l 708 793 l 54 793 l 54 1010 l 894 1010 q 1000 979 969 1010 q 1031 908 1031 949 q 1022 862 1031 885 q 989 807 1014 839 l 343 0 l 63 0 z "},"8":{"ha":1253,"x_min":63,"x_max":1190,"o":"m 396 0 q 260 22 321 0 q 155 85 199 43 q 87 185 111 126 q 63 319 63 244 q 101 457 63 400 q 199 538 140 514 q 157 564 178 547 q 119 606 136 581 q 93 665 103 631 q 83 746 83 700 q 108 860 83 811 q 176 943 132 910 q 283 993 221 976 q 421 1010 344 1010 l 831 1010 q 969 993 907 1010 q 1076 943 1032 976 q 1145 860 1121 910 q 1169 746 1169 811 q 1159 665 1169 700 q 1132 606 1149 631 q 1094 564 1115 581 q 1053 538 1074 547 q 1151 457 1111 514 q 1190 319 1190 400 q 1166 185 1190 244 q 1097 85 1142 126 q 992 22 1053 43 q 856 0 931 0 l 396 0 m 403 428 q 314 399 344 428 q 283 322 283 371 q 320 244 283 271 q 421 217 357 217 l 832 217 q 932 244 894 217 q 969 322 969 271 q 939 399 969 371 q 850 428 908 428 l 403 428 m 435 794 q 303 696 303 794 q 418 599 303 599 l 835 599 q 950 696 950 599 q 818 794 950 794 l 435 794 z "},"9":{"ha":1200,"x_min":51,"x_max":1149,"o":"m 167 0 l 167 215 l 683 215 q 838 255 779 215 q 919 386 897 294 l 353 386 q 131 458 210 386 q 51 689 51 529 q 72 816 51 757 q 133 918 93 875 q 228 985 172 961 q 353 1010 283 1010 l 683 1010 q 878 978 792 1010 q 1024 882 964 946 q 1117 721 1085 818 q 1149 494 1149 624 q 1117 272 1149 365 q 1024 117 1085 178 q 878 28 964 57 q 683 0 792 0 l 167 0 m 272 672 q 303 585 272 614 q 389 556 333 556 l 929 556 q 858 737 919 682 q 683 792 796 792 l 389 792 q 303 763 335 792 q 272 672 272 735 z "},"\u0000":{"ha":147,"x_min":0,"x_max":0,"o":""},"\u0017":{"ha":415,"x_min":0,"x_max":0,"o":""}," ":{"ha":415,"x_min":0,"x_max":0,"o":""},"!":{"ha":436,"x_min":108,"x_max":333,"o":"m 115 325 l 115 1011 l 319 1011 l 319 325 l 115 325 m 221 -14 q 141 17 174 -14 q 108 100 108 49 q 141 180 108 149 q 221 211 174 211 q 302 180 271 211 q 333 100 333 149 q 302 17 333 49 q 221 -14 271 -14 z "},"\"":{"ha":681,"x_min":83,"x_max":597,"o":"m 418 628 l 379 1010 l 597 1010 l 558 628 l 418 628 m 122 628 l 83 1010 l 301 1010 l 264 628 l 122 628 z "},"#":{"ha":968,"x_min":54,"x_max":921,"o":"m 424 0 l 503 261 l 317 261 l 238 0 l 86 0 l 165 261 l 54 261 l 54 404 l 208 404 l 275 622 l 163 622 l 163 764 l 318 764 l 394 1010 l 547 1010 l 472 764 l 657 764 l 732 1010 l 883 1010 l 808 764 l 921 764 l 921 622 l 764 622 l 699 404 l 811 404 l 811 261 l 654 261 l 575 0 l 424 0 m 613 622 l 426 622 l 361 404 l 546 404 l 613 622 z "},"$":{"ha":1035,"x_min":72,"x_max":960,"o":"m 571 99 l 571 0 l 476 0 l 476 99 l 83 99 l 83 275 l 476 275 l 476 443 l 329 443 q 222 460 269 443 q 142 509 175 478 q 90 583 108 540 q 72 678 72 626 q 89 770 72 728 q 139 844 106 813 q 221 893 172 875 q 332 911 269 911 l 476 911 l 476 1010 l 571 1010 l 571 911 l 919 911 l 919 738 l 571 738 l 571 579 l 697 579 q 893 523 826 579 q 960 342 960 467 q 944 244 960 289 q 895 168 928 200 q 813 117 863 136 q 697 99 764 99 l 571 99 m 697 275 q 769 297 744 275 q 794 357 794 318 q 697 443 794 443 l 571 443 l 571 275 l 697 275 m 476 738 l 332 738 q 274 717 296 738 q 253 660 253 696 q 274 600 253 621 q 332 579 296 579 l 476 579 l 476 738 z "},"%":{"ha":1322,"x_min":51,"x_max":1271,"o":"m 585 778 q 564 675 585 724 q 508 591 543 626 q 423 535 472 556 q 318 514 374 514 q 213 535 261 514 q 128 591 164 556 q 72 675 92 626 q 51 778 51 724 q 72 880 51 833 q 128 960 92 926 q 213 1013 164 994 q 318 1032 261 1032 q 423 1013 374 1032 q 508 960 472 994 q 564 880 543 926 q 585 778 585 833 m 475 772 q 436 881 475 839 q 318 922 397 922 q 199 881 239 922 q 160 772 160 839 q 199 664 160 706 q 317 622 238 622 q 435 664 396 622 q 475 772 475 706 m 106 -93 l 1033 1071 l 1176 1071 l 251 -93 l 106 -93 m 1271 243 q 1250 140 1271 189 q 1194 56 1229 92 q 1109 0 1158 21 q 1004 -21 1060 -21 q 899 0 947 -21 q 814 56 850 21 q 758 140 778 92 q 738 243 738 189 q 758 345 738 299 q 814 426 778 392 q 899 478 850 460 q 1004 497 947 497 q 1109 478 1060 497 q 1194 426 1158 460 q 1250 345 1229 392 q 1271 243 1271 299 m 1161 238 q 1122 346 1161 304 q 1004 388 1083 388 q 885 346 925 388 q 846 238 846 304 q 885 129 846 171 q 1003 88 924 88 q 1122 129 1082 88 q 1161 238 1161 171 z "},"&":{"ha":1057,"x_min":60,"x_max":1024,"o":"m 393 0 q 256 22 318 0 q 151 85 194 43 q 83 186 107 126 q 60 321 60 246 q 99 457 60 400 q 196 538 138 514 q 154 564 175 547 q 117 606 133 581 q 90 665 100 631 q 81 746 81 700 q 105 860 81 811 q 174 943 129 910 q 281 993 218 976 q 419 1010 343 1010 l 608 1010 l 608 794 l 413 794 q 327 769 354 794 q 300 696 300 743 q 328 624 300 650 q 415 599 357 599 l 960 599 l 960 428 l 856 428 l 856 217 l 1024 217 l 1024 0 l 393 0 m 639 428 l 413 428 q 313 403 346 428 q 281 324 281 379 q 314 244 281 272 q 411 217 347 217 l 639 217 l 639 428 z "},"'":{"ha":379,"x_min":81,"x_max":299,"o":"m 119 628 l 81 1010 l 299 1010 l 260 628 l 119 628 z "},"(":{"ha":510,"x_min":124,"x_max":429,"o":"m 278 -124 q 160 206 196 51 q 124 515 124 361 q 160 822 124 669 q 274 1147 197 974 l 429 1147 q 302 805 343 958 q 261 514 261 651 q 300 219 261 374 q 429 -124 339 65 l 278 -124 z "},")":{"ha":510,"x_min":81,"x_max":388,"o":"m 81 -124 q 210 219 171 65 q 249 514 249 374 q 208 805 249 651 q 82 1147 167 958 l 236 1147 q 350 822 313 974 q 388 515 388 669 q 351 206 388 361 q 233 -124 314 51 l 81 -124 z "},"*":{"ha":635,"x_min":81,"x_max":554,"o":"m 415 558 l 317 693 l 219 558 l 140 618 l 236 751 l 81 801 l 111 894 l 267 846 l 267 1010 l 367 1010 l 367 846 l 524 896 l 554 801 l 397 751 l 494 617 l 415 558 z "},"+":{"ha":958,"x_min":81,"x_max":878,"o":"m 408 114 l 408 442 l 81 442 l 81 585 l 408 585 l 408 911 l 551 911 l 551 585 l 878 585 l 878 442 l 551 442 l 551 114 l 408 114 z "},",":{"ha":382,"x_min":83,"x_max":301,"o":"m 83 -164 l 83 215 l 301 215 l 222 -164 l 83 -164 z "},"-":{"ha":403,"x_min":33,"x_max":372,"o":"m 33 442 l 33 585 l 372 585 l 372 442 l 33 442 z "},".":{"ha":386,"x_min":81,"x_max":306,"o":"m 306 100 q 273 20 306 53 q 192 -12 240 -12 q 113 20 144 -12 q 81 100 81 53 q 113 180 81 147 q 192 213 144 213 q 273 180 240 213 q 306 100 306 147 z "},"/":{"ha":613,"x_min":6,"x_max":606,"o":"m 6 0 l 465 1010 l 606 1010 l 154 0 l 6 0 z "},":":{"ha":386,"x_min":81,"x_max":306,"o":"m 306 100 q 273 20 306 53 q 192 -12 240 -12 q 113 20 144 -12 q 81 100 81 53 q 113 180 81 147 q 192 213 144 213 q 273 180 240 213 q 306 100 306 147 m 306 539 q 273 460 306 492 q 192 428 240 428 q 113 460 144 428 q 81 539 81 492 q 113 619 81 586 q 192 653 144 653 q 273 619 240 653 q 306 539 306 586 z "},";":{"ha":386,"x_min":81,"x_max":306,"o":"m 306 540 q 274 460 306 492 q 192 429 242 429 q 113 460 144 429 q 81 540 81 492 q 113 622 81 590 q 192 653 144 653 q 274 622 242 653 q 306 540 306 590 m 83 -164 l 83 215 l 301 215 l 222 -164 l 83 -164 z "},"<":{"ha":958,"x_min":81,"x_max":878,"o":"m 138 436 q 81 514 81 460 q 95 559 81 538 q 138 592 110 581 l 878 888 l 878 733 l 264 514 l 878 290 l 878 139 l 138 436 z "},"=":{"ha":958,"x_min":81,"x_max":878,"o":"m 81 625 l 81 767 l 878 767 l 878 625 l 81 625 m 81 257 l 81 400 l 878 400 l 878 257 l 81 257 z "},">":{"ha":958,"x_min":81,"x_max":878,"o":"m 81 139 l 81 290 l 694 514 l 81 733 l 81 888 l 821 592 q 863 559 847 581 q 878 514 878 538 q 863 467 878 486 q 821 436 847 447 l 81 139 z "},"?":{"ha":1081,"x_min":54,"x_max":1046,"o":"m 393 428 q 338 376 338 428 l 338 325 l 132 325 l 132 379 q 195 541 132 483 q 393 599 258 599 l 724 599 q 796 624 768 599 q 824 696 824 649 q 797 768 824 743 q 724 793 769 793 l 54 793 l 54 1010 l 724 1010 q 863 988 803 1010 q 963 926 922 965 q 1025 834 1004 888 q 1046 718 1046 781 q 1024 601 1046 654 q 960 509 1001 547 q 860 449 919 471 q 726 428 801 428 l 393 428 m 238 -12 q 158 19 190 -12 q 125 101 125 50 q 158 181 125 150 q 238 213 190 213 q 319 181 288 213 q 350 101 350 150 q 319 19 350 50 q 238 -12 288 -12 z "},"@":{"ha":1165,"x_min":51,"x_max":1085,"o":"m 568 0 q 360 35 456 0 q 197 135 265 71 q 90 291 128 200 q 51 493 51 382 q 91 697 51 603 q 199 861 131 792 q 363 969 268 931 q 568 1008 457 1008 l 1085 1008 l 1085 271 l 546 271 q 463 289 500 271 q 399 338 426 307 q 358 412 372 369 q 343 503 343 454 q 358 592 343 550 q 399 665 372 633 q 463 713 425 696 q 546 731 500 731 l 822 731 l 822 406 l 924 406 l 924 850 l 568 850 q 417 825 483 850 q 306 756 351 800 q 236 647 260 711 q 213 507 213 583 q 236 366 213 431 q 306 255 260 301 q 417 182 351 208 q 568 156 483 156 l 1085 156 l 1085 0 l 568 0 m 682 610 l 585 610 q 514 583 540 610 q 488 506 488 556 q 515 433 488 461 q 585 406 542 406 l 682 406 l 682 610 z "},"A":{"ha":1382,"x_min":13,"x_max":1368,"o":"m 1108 0 l 967 239 l 540 239 l 639 407 l 867 407 l 682 718 l 258 0 l 13 0 l 586 954 q 630 1005 606 986 q 690 1024 654 1024 q 751 1005 726 1024 q 794 954 775 986 l 1368 0 l 1108 0 z "},"B":{"ha":1242,"x_min":79,"x_max":1182,"o":"m 79 0 l 79 1010 l 822 1010 q 961 993 899 1010 q 1069 943 1024 976 q 1138 860 1114 910 q 1163 746 1163 811 q 1152 665 1163 700 q 1125 606 1142 631 q 1088 564 1108 581 q 1046 538 1067 547 q 1143 457 1104 514 q 1182 321 1182 400 q 1158 186 1182 246 q 1090 85 1133 126 q 985 22 1046 44 q 849 0 924 0 l 79 0 m 421 428 l 421 599 l 826 599 q 942 696 942 599 q 903 774 942 754 q 793 794 864 794 l 296 794 l 296 215 l 810 215 q 921 241 881 215 q 961 322 961 267 q 931 400 961 372 q 842 428 900 428 l 421 428 z "},"C":{"ha":1156,"x_min":51,"x_max":1107,"o":"m 550 0 q 351 40 442 0 q 193 148 260 79 q 89 311 126 217 q 51 515 51 406 q 89 718 51 626 q 193 874 126 810 q 351 974 260 939 q 550 1010 442 1010 l 1107 1010 l 1107 793 l 550 793 q 438 772 489 793 q 349 712 386 750 q 290 620 311 674 q 268 504 268 567 q 289 389 268 442 q 347 298 310 336 q 437 238 385 260 q 550 217 489 217 l 1107 217 l 1107 0 l 550 0 z "},"D":{"ha":1225,"x_min":81,"x_max":1175,"o":"m 81 0 l 81 1010 l 675 1010 q 875 974 783 1010 q 1033 872 967 938 q 1138 716 1100 807 q 1175 515 1175 625 q 1138 311 1175 406 q 1033 148 1100 217 q 875 40 967 79 q 675 0 783 0 l 81 0 m 675 217 q 788 238 736 217 q 878 298 840 260 q 937 389 915 336 q 958 504 958 442 q 937 620 958 567 q 878 712 915 674 q 788 772 840 750 q 675 793 736 793 l 296 793 l 296 217 l 675 217 z "},"E":{"ha":1056,"x_min":81,"x_max":999,"o":"m 422 428 l 422 599 l 958 599 l 958 428 l 422 428 m 81 0 l 81 1010 l 997 1010 l 997 793 l 296 793 l 296 217 l 999 217 l 999 0 l 81 0 z "},"F":{"ha":979,"x_min":81,"x_max":951,"o":"m 422 401 l 422 585 l 910 585 l 910 401 l 422 401 m 81 0 l 81 1010 l 951 1010 l 951 793 l 296 793 l 296 0 l 81 0 z "},"G":{"ha":1238,"x_min":51,"x_max":1169,"o":"m 550 0 q 351 40 442 0 q 193 148 260 79 q 89 311 126 217 q 51 515 51 406 q 89 718 51 626 q 193 874 126 810 q 351 974 260 939 q 550 1010 442 1010 l 1107 1010 l 1107 793 l 550 793 q 438 772 489 793 q 349 712 386 750 q 290 620 311 674 q 268 504 268 567 q 289 389 268 442 q 347 298 310 336 q 437 238 385 260 q 550 217 489 217 l 953 217 l 953 428 l 526 428 l 526 599 l 1169 599 l 1169 0 l 550 0 z "},"H":{"ha":1167,"x_min":81,"x_max":1086,"o":"m 869 -3 l 869 419 l 422 419 l 422 606 l 869 606 l 869 1010 l 1086 1010 l 1086 -3 l 869 -3 m 81 -3 l 81 1010 l 297 1010 l 297 -3 l 81 -3 z "},"I":{"ha":397,"x_min":90,"x_max":307,"o":"m 90 0 l 90 1010 l 307 1010 l 307 0 l 90 0 z "},"J":{"ha":985,"x_min":26,"x_max":919,"o":"m 26 0 l 26 217 l 401 217 q 633 274 564 217 q 703 460 703 332 l 703 1010 l 919 1010 l 919 460 q 794 113 919 225 q 401 0 669 0 l 26 0 z "},"K":{"ha":1238,"x_min":81,"x_max":1218,"o":"m 894 0 l 399 428 q 363 472 371 451 q 354 517 354 493 q 365 567 354 546 q 408 615 376 588 l 875 1010 l 1199 1010 l 599 515 l 1218 0 l 894 0 m 81 0 l 81 1010 l 297 1010 l 297 0 l 81 0 z "},"L":{"ha":982,"x_min":81,"x_max":950,"o":"m 81 0 l 81 1010 l 297 1010 l 297 217 l 950 217 l 950 0 l 81 0 z "},"M":{"ha":1561,"x_min":26,"x_max":1539,"o":"m 1325 0 l 1160 638 l 890 67 q 846 7 871 28 q 781 -14 821 -14 q 715 7 742 -14 q 671 67 689 28 l 403 638 l 239 0 l 26 0 l 274 935 q 379 1022 296 1022 q 441 1003 411 1022 q 488 950 471 985 l 788 308 l 1088 950 q 1129 1003 1103 985 q 1190 1022 1156 1022 q 1293 935 1269 1022 l 1539 0 l 1325 0 z "},"N":{"ha":1217,"x_min":76,"x_max":1140,"o":"m 282 672 l 282 0 l 76 0 l 76 894 q 106 988 76 954 q 185 1022 135 1022 q 228 1013 208 1022 q 272 982 249 1004 l 933 347 l 933 1019 l 1140 1019 l 1140 115 q 1110 19 1140 53 q 1032 -14 1081 -14 q 943 28 985 -14 l 282 672 z "},"O":{"ha":1351,"x_min":51,"x_max":1303,"o":"m 550 0 q 351 40 442 0 q 193 148 260 79 q 89 311 126 217 q 51 515 51 406 q 89 718 51 626 q 193 874 126 810 q 351 974 260 939 q 550 1010 442 1010 l 800 1010 q 1003 974 911 1010 q 1163 872 1096 938 q 1266 716 1229 807 q 1303 515 1303 625 q 1265 311 1303 406 q 1161 148 1228 217 q 1002 40 1094 79 q 800 0 910 0 l 550 0 m 800 217 q 915 238 863 217 q 1006 298 968 260 q 1065 389 1044 336 q 1086 504 1086 442 q 1065 620 1086 567 q 1006 712 1044 674 q 915 772 968 750 q 800 793 863 793 l 550 793 q 438 772 489 793 q 349 712 386 750 q 290 620 311 674 q 268 504 268 567 q 289 389 268 442 q 347 298 310 336 q 437 238 385 260 q 550 217 489 217 l 800 217 z "},"P":{"ha":1208,"x_min":81,"x_max":1178,"o":"m 422 272 l 422 482 l 799 482 q 922 524 878 482 q 967 638 967 567 q 922 751 967 710 q 799 793 878 793 l 296 793 l 296 0 l 81 0 l 81 1010 l 799 1010 q 958 984 888 1010 q 1078 911 1029 958 q 1152 796 1126 864 q 1178 644 1178 728 q 1152 493 1178 561 q 1078 376 1126 425 q 958 299 1029 326 q 799 272 888 272 l 422 272 z "},"Q":{"ha":1351,"x_min":51,"x_max":1354,"o":"m 1089 0 l 1031 53 q 800 0 928 0 l 550 0 q 351 40 442 0 q 193 148 260 79 q 89 311 126 217 q 51 515 51 406 q 89 718 51 626 q 193 874 126 810 q 351 974 260 939 q 550 1010 442 1010 l 800 1010 q 1003 974 911 1010 q 1163 872 1096 938 q 1266 716 1229 807 q 1303 515 1303 625 q 1266 314 1303 406 q 1165 151 1229 222 l 1354 0 l 1089 0 m 593 417 l 857 417 l 1006 286 q 1065 379 1043 326 q 1086 499 1086 432 q 1065 617 1086 563 q 1006 710 1044 671 q 915 771 968 749 q 800 793 863 793 l 550 793 q 438 771 489 793 q 349 710 386 749 q 290 617 311 671 q 268 499 268 563 q 289 381 268 435 q 347 288 310 326 q 437 226 385 249 q 550 204 489 204 l 772 204 q 811 206 792 204 q 850 210 831 207 l 593 417 z "},"R":{"ha":1286,"x_min":81,"x_max":1289,"o":"m 982 0 l 736 275 l 422 275 l 422 460 l 814 460 q 935 504 893 460 q 978 629 978 549 q 935 751 978 710 q 814 793 893 793 l 296 793 l 296 0 l 81 0 l 81 1010 l 814 1010 q 972 983 903 1010 q 1090 908 1042 957 q 1165 790 1139 860 q 1190 635 1190 721 q 1136 425 1190 508 q 986 304 1082 342 l 1289 0 l 982 0 z "},"S":{"ha":1226,"x_min":65,"x_max":1169,"o":"m 81 0 l 81 217 l 843 217 q 933 244 901 217 q 965 321 965 272 q 933 400 965 372 q 843 428 901 428 l 386 428 q 252 449 311 428 q 151 509 193 471 q 88 601 110 547 q 65 718 65 654 q 86 834 65 781 q 148 926 107 888 q 249 988 189 965 q 389 1010 310 1010 l 1119 1010 l 1119 793 l 389 793 q 317 768 343 793 q 290 696 290 743 q 317 624 290 649 q 389 599 344 599 l 843 599 q 1086 526 1003 599 q 1169 303 1169 454 q 1149 182 1169 238 q 1088 86 1129 126 q 986 23 1047 46 q 843 0 925 0 l 81 0 z "},"T":{"ha":1001,"x_min":21,"x_max":979,"o":"m 392 0 l 392 793 l 21 793 l 21 1010 l 979 1010 l 979 793 l 608 793 l 608 0 l 392 0 z "},"U":{"ha":1239,"x_min":65,"x_max":1174,"o":"m 963 1010 l 1174 1010 l 1174 446 q 1143 242 1174 329 q 1046 99 1113 156 q 874 14 979 42 q 619 -14 768 -14 q 366 14 471 -14 q 194 99 261 42 q 97 242 128 156 q 65 446 65 329 l 65 1010 l 289 1010 l 289 446 q 305 332 289 379 q 360 255 321 285 q 463 212 399 225 q 626 199 528 199 q 788 212 724 199 q 892 255 853 225 q 947 332 931 285 q 963 446 963 379 l 963 1010 z "},"V":{"ha":1382,"x_min":13,"x_max":1368,"o":"m 13 1010 l 276 1010 l 699 289 l 1119 1010 l 1368 1010 l 794 56 q 750 5 775 24 q 690 -14 725 -14 q 630 5 654 -14 q 586 56 606 24 l 13 1010 z "},"W":{"ha":1776,"x_min":13,"x_max":1763,"o":"m 889 319 l 749 54 q 701 2 729 18 q 639 -14 672 -14 q 526 54 565 -14 l 13 1010 l 271 1010 l 646 290 l 779 529 l 531 1010 l 790 1010 l 1143 290 l 1519 1010 l 1763 1010 l 1247 54 q 1199 2 1228 18 q 1136 -14 1169 -14 q 1072 2 1100 -14 q 1025 54 1044 18 l 889 319 z "},"X":{"ha":1397,"x_min":24,"x_max":1365,"o":"m 1063 0 l 681 388 l 304 0 l 24 0 l 551 525 l 63 1010 l 361 1010 l 703 663 l 1040 1010 l 1321 1010 l 833 525 l 1365 0 l 1063 0 z "},"Y":{"ha":1293,"x_min":11,"x_max":1282,"o":"m 538 0 l 538 367 l 11 1010 l 301 1010 l 654 564 l 1007 1010 l 1282 1010 l 754 367 l 754 0 l 538 0 z "},"Z":{"ha":1119,"x_min":49,"x_max":1065,"o":"m 171 0 q 85 27 122 0 q 49 110 49 54 q 93 200 49 156 l 706 803 l 61 803 l 61 1010 l 939 1010 q 1024 982 986 1010 q 1061 900 1061 954 q 1017 808 1061 850 l 404 206 l 1065 206 l 1065 0 l 171 0 z "},"[":{"ha":453,"x_min":131,"x_max":372,"o":"m 131 -124 l 131 1147 l 372 1147 l 372 1007 l 271 1007 l 271 14 l 372 14 l 372 -124 l 131 -124 z "},"\\":{"ha":614,"x_min":7,"x_max":607,"o":"m 458 0 l 7 1010 l 149 1010 l 607 0 l 458 0 z "},"]":{"ha":451,"x_min":81,"x_max":321,"o":"m 81 -124 l 81 14 l 181 14 l 181 1007 l 81 1007 l 81 1147 l 321 1147 l 321 -124 l 81 -124 z "},"^":{"ha":757,"x_min":81,"x_max":676,"o":"m 532 417 l 379 840 l 224 417 l 81 417 l 303 965 q 333 1007 314 992 q 379 1022 351 1022 q 425 1007 403 1022 q 458 965 447 992 l 676 417 l 532 417 z "},"_":{"ha":943,"x_min":0,"x_max":954,"o":"m 0 -224 l 0 -125 l 954 -125 l 954 -224 l 0 -224 z "},"`":{"ha":508,"x_min":74,"x_max":435,"o":"m 74 1126 l 74 1258 l 435 1168 l 435 1072 l 74 1126 z "},"a":{"ha":1382,"x_min":13,"x_max":1368,"o":"m 1108 0 l 967 239 l 540 239 l 639 407 l 867 407 l 682 718 l 258 0 l 13 0 l 586 954 q 630 1005 606 986 q 690 1024 654 1024 q 751 1005 726 1024 q 794 954 775 986 l 1368 0 l 1108 0 z "},"b":{"ha":1242,"x_min":79,"x_max":1182,"o":"m 79 0 l 79 1010 l 822 1010 q 961 993 899 1010 q 1069 943 1024 976 q 1138 860 1114 910 q 1163 746 1163 811 q 1152 665 1163 700 q 1125 606 1142 631 q 1088 564 1108 581 q 1046 538 1067 547 q 1143 457 1104 514 q 1182 321 1182 400 q 1158 186 1182 246 q 1090 85 1133 126 q 985 22 1046 44 q 849 0 924 0 l 79 0 m 421 428 l 421 599 l 826 599 q 942 696 942 599 q 903 774 942 754 q 793 794 864 794 l 296 794 l 296 215 l 810 215 q 921 241 881 215 q 961 322 961 267 q 931 400 961 372 q 842 428 900 428 l 421 428 z "},"c":{"ha":1156,"x_min":51,"x_max":1107,"o":"m 550 0 q 351 40 442 0 q 193 148 260 79 q 89 311 126 217 q 51 515 51 406 q 89 718 51 626 q 193 874 126 810 q 351 974 260 939 q 550 1010 442 1010 l 1107 1010 l 1107 793 l 550 793 q 438 772 489 793 q 349 712 386 750 q 290 620 311 674 q 268 504 268 567 q 289 389 268 442 q 347 298 310 336 q 437 238 385 260 q 550 217 489 217 l 1107 217 l 1107 0 l 550 0 z "},"d":{"ha":1225,"x_min":81,"x_max":1175,"o":"m 81 0 l 81 1010 l 675 1010 q 875 974 783 1010 q 1033 872 967 938 q 1138 716 1100 807 q 1175 515 1175 625 q 1138 311 1175 406 q 1033 148 1100 217 q 875 40 967 79 q 675 0 783 0 l 81 0 m 675 217 q 788 238 736 217 q 878 298 840 260 q 937 389 915 336 q 958 504 958 442 q 937 620 958 567 q 878 712 915 674 q 788 772 840 750 q 675 793 736 793 l 296 793 l 296 217 l 675 217 z "},"e":{"ha":1056,"x_min":81,"x_max":999,"o":"m 422 428 l 422 599 l 958 599 l 958 428 l 422 428 m 81 0 l 81 1010 l 997 1010 l 997 793 l 296 793 l 296 217 l 999 217 l 999 0 l 81 0 z "},"f":{"ha":979,"x_min":81,"x_max":951,"o":"m 422 401 l 422 585 l 910 585 l 910 401 l 422 401 m 81 0 l 81 1010 l 951 1010 l 951 793 l 296 793 l 296 0 l 81 0 z "},"g":{"ha":1238,"x_min":51,"x_max":1169,"o":"m 550 0 q 351 40 442 0 q 193 148 260 79 q 89 311 126 217 q 51 515 51 406 q 89 718 51 626 q 193 874 126 810 q 351 974 260 939 q 550 1010 442 1010 l 1107 1010 l 1107 793 l 550 793 q 438 772 489 793 q 349 712 386 750 q 290 620 311 674 q 268 504 268 567 q 289 389 268 442 q 347 298 310 336 q 437 238 385 260 q 550 217 489 217 l 953 217 l 953 428 l 526 428 l 526 599 l 1169 599 l 1169 0 l 550 0 z "},"h":{"ha":1167,"x_min":81,"x_max":1086,"o":"m 869 -3 l 869 419 l 422 419 l 422 606 l 869 606 l 869 1010 l 1086 1010 l 1086 -3 l 869 -3 m 81 -3 l 81 1010 l 297 1010 l 297 -3 l 81 -3 z "},"i":{"ha":397,"x_min":90,"x_max":307,"o":"m 90 0 l 90 1010 l 307 1010 l 307 0 l 90 0 z "},"j":{"ha":985,"x_min":26,"x_max":919,"o":"m 26 0 l 26 217 l 401 217 q 633 274 564 217 q 703 460 703 332 l 703 1010 l 919 1010 l 919 460 q 794 113 919 225 q 401 0 669 0 l 26 0 z "},"k":{"ha":1238,"x_min":81,"x_max":1218,"o":"m 894 0 l 399 428 q 363 472 371 451 q 354 517 354 493 q 365 567 354 546 q 408 615 376 588 l 875 1010 l 1199 1010 l 599 515 l 1218 0 l 894 0 m 81 0 l 81 1010 l 297 1010 l 297 0 l 81 0 z "},"l":{"ha":982,"x_min":81,"x_max":950,"o":"m 81 0 l 81 1010 l 297 1010 l 297 217 l 950 217 l 950 0 l 81 0 z "},"m":{"ha":1561,"x_min":26,"x_max":1539,"o":"m 1325 0 l 1160 638 l 890 67 q 846 7 871 28 q 781 -14 821 -14 q 715 7 742 -14 q 671 67 689 28 l 403 638 l 239 0 l 26 0 l 274 935 q 379 1022 296 1022 q 441 1003 411 1022 q 488 950 471 985 l 788 308 l 1088 950 q 1129 1003 1103 985 q 1190 1022 1156 1022 q 1293 935 1269 1022 l 1539 0 l 1325 0 z "},"n":{"ha":1217,"x_min":76,"x_max":1140,"o":"m 282 672 l 282 0 l 76 0 l 76 894 q 106 988 76 954 q 185 1022 135 1022 q 228 1013 208 1022 q 272 982 249 1004 l 933 347 l 933 1019 l 1140 1019 l 1140 115 q 1110 19 1140 53 q 1032 -14 1081 -14 q 943 28 985 -14 l 282 672 z "},"o":{"ha":1351,"x_min":51,"x_max":1303,"o":"m 550 0 q 351 40 442 0 q 193 148 260 79 q 89 311 126 217 q 51 515 51 406 q 89 718 51 626 q 193 874 126 810 q 351 974 260 939 q 550 1010 442 1010 l 800 1010 q 1003 974 911 1010 q 1163 872 1096 938 q 1266 716 1229 807 q 1303 515 1303 625 q 1265 311 1303 406 q 1161 148 1228 217 q 1002 40 1094 79 q 800 0 910 0 l 550 0 m 800 217 q 915 238 863 217 q 1006 298 968 260 q 1065 389 1044 336 q 1086 504 1086 442 q 1065 620 1086 567 q 1006 712 1044 674 q 915 772 968 750 q 800 793 863 793 l 550 793 q 438 772 489 793 q 349 712 386 750 q 290 620 311 674 q 268 504 268 567 q 289 389 268 442 q 347 298 310 336 q 437 238 385 260 q 550 217 489 217 l 800 217 z "},"p":{"ha":1208,"x_min":81,"x_max":1178,"o":"m 422 272 l 422 482 l 799 482 q 922 524 878 482 q 967 638 967 567 q 922 751 967 710 q 799 793 878 793 l 296 793 l 296 0 l 81 0 l 81 1010 l 799 1010 q 958 984 888 1010 q 1078 911 1029 958 q 1152 796 1126 864 q 1178 644 1178 728 q 1152 493 1178 561 q 1078 376 1126 425 q 958 299 1029 326 q 799 272 888 272 l 422 272 z "},"q":{"ha":1351,"x_min":51,"x_max":1354,"o":"m 1089 0 l 1031 53 q 800 0 928 0 l 550 0 q 351 40 442 0 q 193 148 260 79 q 89 311 126 217 q 51 515 51 406 q 89 718 51 626 q 193 874 126 810 q 351 974 260 939 q 550 1010 442 1010 l 800 1010 q 1003 974 911 1010 q 1163 872 1096 938 q 1266 716 1229 807 q 1303 515 1303 625 q 1266 314 1303 406 q 1165 151 1229 222 l 1354 0 l 1089 0 m 593 417 l 857 417 l 1006 286 q 1065 379 1043 326 q 1086 499 1086 432 q 1065 617 1086 563 q 1006 710 1044 671 q 915 771 968 749 q 800 793 863 793 l 550 793 q 438 771 489 793 q 349 710 386 749 q 290 617 311 671 q 268 499 268 563 q 289 381 268 435 q 347 288 310 326 q 437 226 385 249 q 550 204 489 204 l 772 204 q 811 206 792 204 q 850 210 831 207 l 593 417 z "},"r":{"ha":1286,"x_min":81,"x_max":1289,"o":"m 982 0 l 736 275 l 422 275 l 422 460 l 814 460 q 935 504 893 460 q 978 629 978 549 q 935 751 978 710 q 814 793 893 793 l 296 793 l 296 0 l 81 0 l 81 1010 l 814 1010 q 972 983 903 1010 q 1090 908 1042 957 q 1165 790 1139 860 q 1190 635 1190 721 q 1136 425 1190 508 q 986 304 1082 342 l 1289 0 l 982 0 z "},"s":{"ha":1226,"x_min":65,"x_max":1169,"o":"m 81 0 l 81 217 l 843 217 q 933 244 901 217 q 965 321 965 272 q 933 400 965 372 q 843 428 901 428 l 386 428 q 252 449 311 428 q 151 509 193 471 q 88 601 110 547 q 65 718 65 654 q 86 834 65 781 q 148 926 107 888 q 249 988 189 965 q 389 1010 310 1010 l 1119 1010 l 1119 793 l 389 793 q 317 768 343 793 q 290 696 290 743 q 317 624 290 649 q 389 599 344 599 l 843 599 q 1086 526 1003 599 q 1169 303 1169 454 q 1149 182 1169 238 q 1088 86 1129 126 q 986 23 1047 46 q 843 0 925 0 l 81 0 z "},"t":{"ha":1001,"x_min":21,"x_max":979,"o":"m 392 0 l 392 793 l 21 793 l 21 1010 l 979 1010 l 979 793 l 608 793 l 608 0 l 392 0 z "},"u":{"ha":1239,"x_min":65,"x_max":1174,"o":"m 963 1010 l 1174 1010 l 1174 446 q 1143 242 1174 329 q 1046 99 1113 156 q 874 14 979 42 q 619 -14 768 -14 q 366 14 471 -14 q 194 99 261 42 q 97 242 128 156 q 65 446 65 329 l 65 1010 l 289 1010 l 289 446 q 305 332 289 379 q 360 255 321 285 q 463 212 399 225 q 626 199 528 199 q 788 212 724 199 q 892 255 853 225 q 947 332 931 285 q 963 446 963 379 l 963 1010 z "},"v":{"ha":1382,"x_min":13,"x_max":1368,"o":"m 13 1010 l 276 1010 l 699 289 l 1119 1010 l 1368 1010 l 794 56 q 750 5 775 24 q 690 -14 725 -14 q 630 5 654 -14 q 586 56 606 24 l 13 1010 z "},"w":{"ha":1776,"x_min":13,"x_max":1763,"o":"m 889 319 l 749 54 q 701 2 729 18 q 639 -14 672 -14 q 526 54 565 -14 l 13 1010 l 271 1010 l 646 290 l 779 529 l 531 1010 l 790 1010 l 1143 290 l 1519 1010 l 1763 1010 l 1247 54 q 1199 2 1228 18 q 1136 -14 1169 -14 q 1072 2 1100 -14 q 1025 54 1044 18 l 889 319 z "},"x":{"ha":1397,"x_min":24,"x_max":1365,"o":"m 1063 0 l 681 388 l 304 0 l 24 0 l 551 525 l 63 1010 l 361 1010 l 703 663 l 1040 1010 l 1321 1010 l 833 525 l 1365 0 l 1063 0 z "},"y":{"ha":1293,"x_min":11,"x_max":1282,"o":"m 538 0 l 538 367 l 11 1010 l 301 1010 l 654 564 l 1007 1010 l 1282 1010 l 754 367 l 754 0 l 538 0 z "},"z":{"ha":1119,"x_min":49,"x_max":1065,"o":"m 171 0 q 85 27 122 0 q 49 110 49 54 q 93 200 49 156 l 706 803 l 61 803 l 61 1010 l 939 1010 q 1024 982 986 1010 q 1061 900 1061 954 q 1017 808 1061 850 l 404 206 l 1065 206 l 1065 0 l 171 0 z "},"{":{"ha":458,"x_min":79,"x_max":378,"o":"m 301 -124 q 190 -83 229 -124 q 151 33 151 -43 l 151 413 q 135 439 151 431 q 79 449 118 447 l 79 565 q 135 575 118 567 q 151 600 151 583 l 151 988 q 190 1107 151 1067 q 301 1147 229 1147 l 378 1147 l 378 1015 q 311 995 331 1015 q 292 940 292 975 l 292 624 q 278 549 292 578 q 235 507 265 521 q 279 464 267 492 q 292 392 292 436 l 292 81 q 314 24 292 39 q 378 8 336 8 l 378 -124 l 301 -124 z "},"|":{"ha":421,"x_min":147,"x_max":274,"o":"m 147 -124 l 147 1147 l 274 1147 l 274 -124 l 147 -124 z "},"}":{"ha":458,"x_min":79,"x_max":378,"o":"m 79 -124 l 79 8 q 143 24 121 8 q 165 81 165 39 l 165 392 q 178 464 165 436 q 222 507 190 492 q 178 549 192 521 q 165 624 165 578 l 165 940 q 146 995 165 975 q 79 1015 126 1015 l 79 1147 l 156 1147 q 266 1107 226 1147 q 306 988 306 1067 l 306 600 q 322 575 306 583 q 378 565 339 567 l 378 449 q 322 439 339 447 q 306 413 306 431 l 306 33 q 266 -83 306 -43 q 156 -124 226 -124 l 79 -124 z "},"~":{"ha":958,"x_min":82,"x_max":878,"o":"m 878 464 q 785 416 838 431 q 674 401 732 401 q 576 415 624 401 q 482 444 529 428 q 386 473 435 460 q 285 486 338 486 q 170 464 226 486 q 82 411 114 442 l 82 564 q 171 613 119 597 q 285 629 222 629 q 384 616 336 629 q 478 588 432 603 q 573 559 525 572 q 674 546 621 546 q 791 569 736 546 q 878 619 846 592 l 878 464 z "}," ":{"ha":415,"x_min":0,"x_max":0,"o":""},"¡":{"ha":436,"x_min":108,"x_max":335,"o":"m 326 686 l 326 0 l 122 0 l 122 686 l 326 686 m 221 1025 q 301 994 268 1025 q 333 911 333 963 q 301 831 333 863 q 221 800 268 800 q 140 831 171 800 q 108 911 108 863 q 140 994 108 963 q 221 1025 171 1025 z "},"¢":{"ha":961,"x_min":51,"x_max":899,"o":"m 640 99 l 640 0 l 546 0 l 546 99 l 453 99 q 292 130 365 99 q 165 217 218 161 q 81 348 111 272 q 51 513 51 424 q 81 676 51 603 q 165 802 111 750 q 292 883 218 854 q 453 911 365 911 l 546 911 l 546 1010 l 640 1010 l 640 911 l 899 911 l 899 736 l 640 736 l 640 275 l 899 275 l 899 99 l 640 99 m 546 736 l 453 736 q 361 719 403 736 q 290 671 319 701 q 242 598 260 640 q 225 504 225 556 q 242 412 225 454 q 290 340 260 369 q 361 292 319 310 q 453 275 403 275 l 546 275 l 546 736 z "},"£":{"ha":986,"x_min":33,"x_max":938,"o":"m 33 0 l 33 217 l 158 217 l 158 456 l 88 456 l 88 593 l 158 593 l 158 711 q 178 830 158 775 q 236 924 197 885 q 334 987 275 964 q 474 1010 393 1010 l 786 1010 l 786 793 l 526 793 q 464 789 493 793 q 413 774 435 785 q 377 740 390 763 q 364 683 364 718 l 364 593 l 614 593 l 614 456 l 364 456 l 364 217 l 938 217 l 938 0 l 33 0 z "},"¥":{"ha":1097,"x_min":19,"x_max":1068,"o":"m 650 90 l 650 0 l 447 0 l 447 90 l 172 90 l 172 235 l 447 235 l 447 333 l 172 333 l 172 479 l 360 479 l 19 1010 l 278 1010 l 551 553 l 814 1010 l 1068 1010 l 736 479 l 932 479 l 932 333 l 650 333 l 650 235 l 932 235 l 932 90 l 650 90 z "},"¦":{"ha":421,"x_min":147,"x_max":274,"o":"m 274 576 l 147 576 l 147 1147 l 274 1147 l 274 576 m 147 -124 l 147 440 l 274 440 l 274 -124 l 147 -124 z "},"§":{"ha":1075,"x_min":60,"x_max":1001,"o":"m 172 -279 l 172 -74 l 688 -74 q 763 -50 732 -74 q 794 22 794 -26 q 769 92 794 67 q 701 117 744 117 l 369 117 q 173 176 236 117 q 110 335 110 236 q 126 435 110 389 q 178 508 142 481 q 91 600 122 542 q 60 733 60 658 q 79 842 60 792 q 137 930 99 893 q 231 988 175 967 q 360 1010 286 1010 l 888 1010 l 888 803 l 374 803 q 297 780 328 803 q 267 708 267 757 q 292 639 267 664 q 358 614 317 614 l 692 614 q 888 553 825 614 q 951 394 951 493 q 883 221 951 281 q 969 131 938 188 q 1001 -1 1001 74 q 982 -112 1001 -61 q 924 -200 963 -162 q 830 -258 886 -237 q 701 -279 774 -279 l 172 -279 m 394 457 q 323 432 347 457 q 299 367 299 407 q 326 299 299 324 q 404 274 353 274 l 665 274 q 738 298 713 274 q 763 363 763 322 q 735 431 763 406 q 657 457 708 457 l 394 457 z "},"¨":{"ha":572,"x_min":74,"x_max":499,"o":"m 240 1178 q 217 1124 240 1143 q 158 1104 193 1104 q 98 1124 122 1104 q 74 1178 74 1143 q 98 1231 74 1211 q 158 1250 122 1250 q 217 1231 193 1250 q 240 1178 240 1211 m 499 1178 q 475 1124 499 1143 q 415 1104 451 1104 q 356 1124 381 1104 q 332 1178 332 1143 q 356 1231 332 1211 q 415 1250 381 1250 q 475 1231 451 1250 q 499 1178 499 1211 z "},"©":{"ha":1138,"x_min":51,"x_max":1086,"o":"m 569 -14 q 368 27 463 -14 q 203 139 274 68 q 92 304 133 210 q 51 506 51 399 q 92 707 51 613 q 203 872 133 801 q 368 982 274 942 q 569 1022 463 1022 q 771 982 676 1022 q 935 872 865 942 q 1046 707 1006 801 q 1086 506 1086 613 q 1046 304 1086 399 q 935 139 1006 210 q 771 27 865 68 q 569 -14 676 -14 m 572 42 q 751 78 668 42 q 897 177 835 114 q 996 324 960 240 q 1032 504 1032 408 q 996 685 1032 600 q 897 832 960 769 q 751 931 835 894 q 572 968 668 968 q 390 931 474 968 q 243 832 306 894 q 145 685 181 769 q 110 504 110 600 q 145 324 110 408 q 243 177 181 240 q 390 78 306 114 q 572 42 474 42 m 564 264 q 461 283 508 264 q 380 334 414 301 q 326 411 346 367 q 307 507 307 456 q 326 603 307 560 q 380 678 346 647 q 461 726 414 710 q 564 743 508 743 l 733 743 l 733 665 l 564 665 q 444 620 492 665 q 396 500 396 575 q 442 385 396 429 q 564 340 489 340 l 733 340 l 733 264 l 564 264 z "},"ª":{"ha":843,"x_min":49,"x_max":794,"o":"m 651 417 l 574 549 l 339 549 l 393 640 l 518 640 l 417 811 l 183 417 l 49 417 l 364 942 q 388 969 375 958 q 421 979 401 979 q 454 969 440 979 q 479 942 468 958 l 794 417 l 651 417 z "},"«":{"ha":888,"x_min":51,"x_max":838,"o":"m 463 474 q 435 515 435 490 q 463 560 435 543 l 838 783 l 838 678 l 553 514 l 838 347 l 838 249 l 463 474 m 79 474 q 51 515 51 490 q 79 560 51 543 l 453 783 l 453 678 l 169 514 l 453 347 l 453 249 l 79 474 z "},"®":{"ha":799,"x_min":81,"x_max":718,"o":"m 718 703 q 693 578 718 636 q 624 478 668 521 q 523 410 581 435 q 399 385 465 385 q 274 410 332 385 q 174 478 217 435 q 106 578 131 521 q 81 703 81 636 q 106 828 81 769 q 174 929 131 886 q 274 997 217 972 q 399 1022 332 1022 q 523 997 465 1022 q 624 929 581 972 q 693 828 668 886 q 718 703 718 769 m 658 703 q 638 804 658 757 q 583 887 618 851 q 500 943 547 922 q 399 964 453 964 q 297 943 344 964 q 215 887 250 922 q 158 804 179 851 q 138 703 138 757 q 158 603 138 650 q 215 520 179 556 q 297 465 250 485 q 399 444 344 444 q 500 465 453 444 q 583 520 547 485 q 638 603 618 556 q 658 703 658 650 m 492 589 l 426 656 l 367 656 l 367 708 l 450 708 q 493 750 493 708 q 450 792 493 792 l 311 792 l 311 589 l 254 589 l 254 847 l 450 847 q 524 822 497 847 q 550 751 550 796 q 535 697 550 719 q 496 664 521 675 l 575 589 l 492 589 z "},"¯":{"ha":508,"x_min":74,"x_max":435,"o":"m 74 1118 l 74 1215 l 435 1215 l 435 1118 l 74 1118 z "},"°":{"ha":488,"x_min":51,"x_max":436,"o":"m 340 829 q 242 928 340 928 q 143 831 143 928 q 242 736 143 736 q 340 829 340 736 m 436 831 q 242 640 436 640 q 51 831 51 640 q 242 1022 51 1022 q 436 831 436 1022 z "},"±":{"ha":958,"x_min":81,"x_max":878,"o":"m 408 114 l 408 442 l 81 442 l 81 585 l 408 585 l 408 911 l 551 911 l 551 585 l 878 585 l 878 442 l 551 442 l 551 114 l 408 114 m 81 -114 l 81 29 l 878 29 l 878 -114 l 81 -114 z "},"²":{"ha":615,"x_min":61,"x_max":563,"o":"m 61 521 l 61 672 q 222 819 61 819 l 400 819 q 450 868 450 819 q 400 917 450 917 l 65 917 l 65 1025 l 400 1025 q 521 983 479 1025 q 563 879 563 942 q 519 775 563 815 q 401 735 476 735 l 222 735 q 163 681 163 735 l 163 629 l 554 629 l 554 521 l 61 521 z "},"³":{"ha":617,"x_min":49,"x_max":567,"o":"m 49 521 l 49 629 l 388 629 q 456 682 456 629 q 396 735 456 735 l 171 735 l 171 819 l 389 819 q 447 868 447 819 q 381 918 447 918 l 51 918 l 51 1025 l 388 1025 q 510 992 464 1025 q 556 893 556 960 q 538 824 556 847 q 499 789 519 800 q 547 749 526 778 q 567 681 567 721 q 521 563 567 606 q 400 521 475 521 l 49 521 z "},"´":{"ha":508,"x_min":74,"x_max":435,"o":"m 74 1072 l 74 1168 l 435 1258 l 435 1126 l 74 1072 z "},"¶":{"ha":894,"x_min":56,"x_max":814,"o":"m 679 -140 l 679 875 l 522 875 l 522 -140 l 388 -140 l 388 550 l 292 550 q 117 614 179 550 q 56 782 56 678 q 117 948 56 886 q 292 1010 179 1010 l 814 1010 l 814 -140 l 679 -140 z "},"·":{"ha":386,"x_min":81,"x_max":306,"o":"m 306 501 q 273 422 306 454 q 192 389 240 389 q 113 422 144 389 q 81 501 81 454 q 113 581 81 549 q 192 614 144 614 q 273 581 240 614 q 306 501 306 549 z "},"¸":{"ha":331,"x_min":60,"x_max":271,"o":"m 60 -65 l 271 -65 l 165 -279 l 60 -65 z "},"¹":{"ha":311,"x_min":33,"x_max":250,"o":"m 142 521 l 142 850 q 82 917 142 917 l 33 917 l 33 1025 l 82 1025 q 206 979 163 1025 q 250 850 250 933 l 250 521 l 142 521 z "},"º":{"ha":826,"x_min":69,"x_max":758,"o":"m 344 417 q 235 438 285 417 q 148 498 185 460 q 90 588 111 536 q 69 700 69 639 q 90 812 69 761 q 148 898 111 863 q 235 953 185 933 q 344 972 285 972 l 482 972 q 594 952 543 972 q 681 897 644 932 q 738 810 718 861 q 758 700 758 760 q 738 588 758 639 q 680 498 717 536 q 592 438 643 460 q 482 417 542 417 l 344 417 m 482 536 q 596 580 553 536 q 639 694 639 624 q 596 809 639 765 q 482 853 553 853 l 344 853 q 233 809 276 853 q 189 694 189 765 q 233 580 189 624 q 344 536 276 536 l 482 536 z "},"»":{"ha":888,"x_min":51,"x_max":838,"o":"m 51 249 l 51 347 l 335 514 l 51 678 l 51 783 l 425 560 q 445 540 439 551 q 453 515 451 528 q 425 474 453 490 l 51 249 m 435 249 l 435 347 l 718 514 l 435 678 l 435 783 l 808 560 q 829 540 821 551 q 838 515 838 528 q 829 491 838 501 q 808 474 821 481 l 435 249 z "},"¼":{"ha":1340,"x_min":51,"x_max":1289,"o":"m 282 521 l 282 850 q 222 917 282 917 l 174 917 l 174 1025 l 222 1025 q 347 979 303 1025 q 390 850 390 933 l 390 521 l 282 521 m 51 -93 l 979 1071 l 1122 1071 l 197 -93 l 51 -93 m 1111 -14 l 1111 121 l 918 121 q 788 160 833 121 q 743 288 743 200 l 743 490 l 851 490 l 851 289 q 867 238 851 251 q 918 224 882 224 l 1111 224 l 1111 490 l 1218 490 l 1218 224 l 1289 224 l 1289 121 l 1218 121 l 1218 -14 l 1111 -14 z "},"½":{"ha":1321,"x_min":51,"x_max":1269,"o":"m 282 521 l 282 850 q 222 917 282 917 l 174 917 l 174 1025 l 222 1025 q 347 979 303 1025 q 390 850 390 933 l 390 521 l 282 521 m 51 -93 l 979 1071 l 1122 1071 l 197 -93 l 51 -93 m 768 -14 l 768 138 q 929 285 768 285 l 1107 285 q 1157 333 1157 285 q 1107 382 1157 382 l 772 382 l 772 490 l 1107 490 q 1228 449 1186 490 q 1269 344 1269 407 q 1226 240 1269 281 q 1108 200 1183 200 l 929 200 q 869 146 869 200 l 869 94 l 1261 94 l 1261 -14 l 768 -14 z "},"¾":{"ha":1397,"x_min":51,"x_max":1346,"o":"m 51 521 l 51 629 l 390 629 q 458 682 458 629 q 399 735 458 735 l 174 735 l 174 819 l 392 819 q 450 868 450 819 q 383 918 450 918 l 54 918 l 54 1025 l 390 1025 q 513 992 467 1025 q 558 893 558 960 q 540 824 558 847 q 501 789 522 800 q 549 749 529 778 q 569 681 569 721 q 524 563 569 606 q 403 521 478 521 l 51 521 m 108 -93 l 1036 1071 l 1179 1071 l 254 -93 l 108 -93 m 1168 -14 l 1168 121 l 975 121 q 845 160 890 121 q 800 288 800 200 l 800 490 l 908 490 l 908 289 q 924 238 908 251 q 975 224 939 224 l 1168 224 l 1168 490 l 1275 490 l 1275 224 l 1346 224 l 1346 121 l 1275 121 l 1275 -14 l 1168 -14 z "},"¿":{"ha":1081,"x_min":35,"x_max":1028,"o":"m 688 582 q 743 633 743 582 l 743 685 l 949 685 l 949 631 q 885 469 949 526 q 688 411 822 411 l 357 411 q 285 386 313 411 q 257 314 257 361 q 284 242 257 267 q 357 217 311 217 l 1026 217 l 1026 0 l 357 0 q 218 22 278 0 q 117 83 158 45 q 56 176 76 122 q 35 292 35 229 q 57 409 35 356 q 120 501 79 463 q 220 560 161 539 q 354 582 279 582 l 688 582 m 843 1022 q 923 991 890 1022 q 956 908 956 960 q 923 828 956 860 q 843 797 890 797 q 762 828 793 797 q 731 908 731 860 q 762 991 731 960 q 843 1022 793 1022 z "},"À":{"ha":1382,"x_min":13,"x_max":1368,"o":"m 1108 0 l 967 239 l 540 239 l 639 407 l 867 407 l 682 718 l 258 0 l 13 0 l 586 954 q 630 1005 606 986 q 690 1024 654 1024 q 751 1005 726 1024 q 794 954 775 986 l 1368 0 l 1108 0 m 468 1126 l 468 1258 l 829 1168 l 829 1072 l 468 1126 z "},"Á":{"ha":1382,"x_min":13,"x_max":1368,"o":"m 1108 0 l 967 239 l 540 239 l 639 407 l 867 407 l 682 718 l 258 0 l 13 0 l 586 954 q 630 1005 606 986 q 690 1024 654 1024 q 751 1005 726 1024 q 794 954 775 986 l 1368 0 l 1108 0 m 551 1072 l 551 1168 l 913 1258 l 913 1126 l 551 1072 z "},"Â":{"ha":1382,"x_min":13,"x_max":1368,"o":"m 1108 0 l 967 239 l 540 239 l 639 407 l 867 407 l 682 718 l 258 0 l 13 0 l 586 954 q 630 1005 606 986 q 690 1024 654 1024 q 751 1005 726 1024 q 794 954 775 986 l 1368 0 l 1108 0 m 767 1072 l 696 1197 l 683 1197 l 613 1072 l 497 1072 l 614 1258 l 767 1258 l 883 1072 l 767 1072 z "},"Ã":{"ha":1382,"x_min":13,"x_max":1368,"o":"m 1108 0 l 967 239 l 540 239 l 639 407 l 867 407 l 682 718 l 258 0 l 13 0 l 586 954 q 630 1005 606 986 q 690 1024 654 1024 q 751 1005 726 1024 q 794 954 775 986 l 1368 0 l 1108 0 m 871 1133 q 830 1105 854 1114 q 778 1096 806 1096 q 733 1103 754 1096 q 691 1121 713 1111 q 647 1138 669 1131 q 601 1146 625 1146 q 549 1132 574 1146 q 510 1101 524 1118 l 510 1197 q 601 1236 540 1236 q 647 1228 625 1236 q 690 1210 669 1219 q 733 1193 711 1201 q 778 1185 754 1185 q 832 1199 807 1185 q 871 1231 857 1213 l 871 1133 z "},"Ä":{"ha":1382,"x_min":13,"x_max":1368,"o":"m 1108 0 l 967 239 l 540 239 l 639 407 l 867 407 l 682 718 l 258 0 l 13 0 l 586 954 q 630 1005 606 986 q 690 1024 654 1024 q 751 1005 726 1024 q 794 954 775 986 l 1368 0 l 1108 0 m 644 1178 q 621 1124 644 1143 q 563 1104 597 1104 q 502 1124 526 1104 q 478 1178 478 1143 q 502 1231 478 1211 q 563 1250 526 1250 q 621 1231 597 1250 q 644 1178 644 1211 m 903 1178 q 879 1124 903 1143 q 819 1104 856 1104 q 760 1124 785 1104 q 736 1178 736 1143 q 760 1231 736 1211 q 819 1250 785 1250 q 879 1231 856 1250 q 903 1178 903 1211 z "},"Å":{"ha":1382,"x_min":13,"x_max":1368,"o":"m 1108 0 l 967 239 l 540 239 l 639 407 l 867 407 l 682 718 l 258 0 l 13 0 l 586 954 q 630 1005 606 986 q 690 1024 654 1024 q 751 1005 726 1024 q 794 954 775 986 l 1368 0 l 1108 0 m 654 1072 q 552 1113 592 1072 q 513 1215 513 1153 q 552 1316 513 1278 q 654 1354 592 1354 l 725 1354 q 828 1316 788 1354 q 868 1215 868 1278 q 828 1113 868 1153 q 725 1072 788 1072 l 654 1072 m 725 1133 q 783 1156 761 1133 q 806 1214 806 1178 q 783 1269 806 1247 q 725 1292 761 1292 l 654 1292 q 597 1269 619 1292 q 575 1214 575 1247 q 597 1156 575 1178 q 654 1133 618 1133 l 725 1133 z "},"Æ":{"ha":1885,"x_min":13,"x_max":1828,"o":"m 949 0 l 949 235 l 535 235 l 635 404 l 949 404 l 949 793 l 715 793 l 256 0 l 13 0 l 568 939 q 613 990 588 971 q 674 1010 638 1010 l 1825 1010 l 1825 793 l 1164 793 l 1164 217 l 1828 217 l 1828 0 l 949 0 m 1290 428 l 1290 599 l 1786 599 l 1786 428 l 1290 428 z "},"Ç":{"ha":1156,"x_min":51,"x_max":1107,"o":"m 550 0 q 351 40 442 0 q 193 148 260 79 q 89 311 126 217 q 51 515 51 406 q 89 718 51 626 q 193 874 126 810 q 351 974 260 939 q 550 1010 442 1010 l 1107 1010 l 1107 793 l 550 793 q 438 772 489 793 q 349 712 386 750 q 290 620 311 674 q 268 504 268 567 q 289 389 268 442 q 347 298 310 336 q 437 238 385 260 q 550 217 489 217 l 1107 217 l 1107 0 l 550 0 m 500 -65 l 711 -65 l 606 -279 l 500 -65 z "},"È":{"ha":1056,"x_min":81,"x_max":999,"o":"m 422 428 l 422 599 l 958 599 l 958 428 l 422 428 m 81 0 l 81 1010 l 997 1010 l 997 793 l 296 793 l 296 217 l 999 217 l 999 0 l 81 0 m 306 1126 l 306 1258 l 667 1168 l 667 1072 l 306 1126 z "},"É":{"ha":1056,"x_min":81,"x_max":999,"o":"m 422 428 l 422 599 l 958 599 l 958 428 l 422 428 m 81 0 l 81 1010 l 997 1010 l 997 793 l 296 793 l 296 217 l 999 217 l 999 0 l 81 0 m 389 1072 l 389 1168 l 750 1258 l 750 1126 l 389 1072 z "},"Ê":{"ha":1056,"x_min":81,"x_max":999,"o":"m 422 428 l 422 599 l 958 599 l 958 428 l 422 428 m 81 0 l 81 1010 l 997 1010 l 997 793 l 296 793 l 296 217 l 999 217 l 999 0 l 81 0 m 604 1072 l 533 1197 l 521 1197 l 450 1072 l 335 1072 l 451 1258 l 604 1258 l 721 1072 l 604 1072 z "},"Ë":{"ha":1056,"x_min":81,"x_max":999,"o":"m 422 428 l 422 599 l 958 599 l 958 428 l 422 428 m 81 0 l 81 1010 l 997 1010 l 997 793 l 296 793 l 296 217 l 999 217 l 999 0 l 81 0 m 482 1178 q 458 1124 482 1143 q 400 1104 435 1104 q 340 1124 364 1104 q 315 1178 315 1143 q 340 1231 315 1211 q 400 1250 364 1250 q 458 1231 435 1250 q 482 1178 482 1211 m 740 1178 q 717 1124 740 1143 q 657 1104 693 1104 q 598 1124 622 1104 q 574 1178 574 1143 q 598 1231 574 1211 q 657 1250 622 1250 q 717 1231 693 1250 q 740 1178 740 1211 z "},"Ì":{"ha":397,"x_min":-22,"x_max":339,"o":"m 90 0 l 90 1010 l 307 1010 l 307 0 l 90 0 m -22 1126 l -22 1258 l 339 1168 l 339 1072 l -22 1126 z "},"Í":{"ha":397,"x_min":61,"x_max":422,"o":"m 90 0 l 90 1010 l 307 1010 l 307 0 l 90 0 m 61 1072 l 61 1168 l 422 1258 l 422 1126 l 61 1072 z "},"Î":{"ha":397,"x_min":7,"x_max":393,"o":"m 90 0 l 90 1010 l 307 1010 l 307 0 l 90 0 m 276 1072 l 206 1197 l 193 1197 l 122 1072 l 7 1072 l 124 1258 l 276 1258 l 393 1072 l 276 1072 z "},"Ï":{"ha":397,"x_min":-12,"x_max":413,"o":"m 90 0 l 90 1010 l 307 1010 l 307 0 l 90 0 m 154 1178 q 131 1124 154 1143 q 72 1104 107 1104 q 12 1124 36 1104 q -12 1178 -12 1143 q 12 1231 -12 1211 q 72 1250 36 1250 q 131 1231 107 1250 q 154 1178 154 1211 m 413 1178 q 389 1124 413 1143 q 329 1104 365 1104 q 270 1124 294 1104 q 246 1178 246 1143 q 270 1231 246 1211 q 329 1250 294 1250 q 389 1231 365 1250 q 413 1178 413 1211 z "},"Ð":{"ha":1224,"x_min":7,"x_max":1175,"o":"m 79 0 l 79 428 l 7 428 l 7 599 l 79 599 l 79 1010 l 674 1010 q 874 974 782 1010 q 1033 872 967 938 q 1138 716 1100 807 q 1175 515 1175 625 q 1138 311 1175 406 q 1033 148 1100 217 q 874 40 967 79 q 674 0 782 0 l 79 0 m 294 428 l 294 217 l 674 217 q 787 238 735 217 q 876 298 839 260 q 935 389 914 336 q 957 504 957 442 q 935 620 957 567 q 876 712 914 674 q 787 772 839 750 q 674 793 735 793 l 294 793 l 294 599 l 661 599 l 661 428 l 294 428 z "},"Ñ":{"ha":1217,"x_min":76,"x_max":1140,"o":"m 282 672 l 282 0 l 76 0 l 76 894 q 106 988 76 954 q 185 1022 135 1022 q 228 1013 208 1022 q 272 982 249 1004 l 933 347 l 933 1019 l 1140 1019 l 1140 115 q 1110 19 1140 53 q 1032 -14 1081 -14 q 943 28 985 -14 l 282 672 m 789 1133 q 748 1105 772 1114 q 696 1096 724 1096 q 651 1103 672 1096 q 609 1121 631 1111 q 565 1138 588 1131 q 519 1146 543 1146 q 467 1132 492 1146 q 428 1101 442 1118 l 428 1197 q 519 1236 458 1236 q 565 1228 543 1236 q 608 1210 588 1219 q 651 1193 629 1201 q 696 1185 672 1185 q 750 1199 725 1185 q 789 1231 775 1213 l 789 1133 z "},"Ò":{"ha":1351,"x_min":51,"x_max":1303,"o":"m 550 0 q 351 40 442 0 q 193 148 260 79 q 89 311 126 217 q 51 515 51 406 q 89 718 51 626 q 193 874 126 810 q 351 974 260 939 q 550 1010 442 1010 l 800 1010 q 1003 974 911 1010 q 1163 872 1096 938 q 1266 716 1229 807 q 1303 515 1303 625 q 1265 311 1303 406 q 1161 148 1228 217 q 1002 40 1094 79 q 800 0 910 0 l 550 0 m 800 217 q 915 238 863 217 q 1006 298 968 260 q 1065 389 1044 336 q 1086 504 1086 442 q 1065 620 1086 567 q 1006 712 1044 674 q 915 772 968 750 q 800 793 863 793 l 550 793 q 438 772 489 793 q 349 712 386 750 q 290 620 311 674 q 268 504 268 567 q 289 389 268 442 q 347 298 310 336 q 437 238 385 260 q 550 217 489 217 l 800 217 m 453 1126 l 453 1258 l 814 1168 l 814 1072 l 453 1126 z "},"Ó":{"ha":1351,"x_min":51,"x_max":1303,"o":"m 550 0 q 351 40 442 0 q 193 148 260 79 q 89 311 126 217 q 51 515 51 406 q 89 718 51 626 q 193 874 126 810 q 351 974 260 939 q 550 1010 442 1010 l 800 1010 q 1003 974 911 1010 q 1163 872 1096 938 q 1266 716 1229 807 q 1303 515 1303 625 q 1265 311 1303 406 q 1161 148 1228 217 q 1002 40 1094 79 q 800 0 910 0 l 550 0 m 800 217 q 915 238 863 217 q 1006 298 968 260 q 1065 389 1044 336 q 1086 504 1086 442 q 1065 620 1086 567 q 1006 712 1044 674 q 915 772 968 750 q 800 793 863 793 l 550 793 q 438 772 489 793 q 349 712 386 750 q 290 620 311 674 q 268 504 268 567 q 289 389 268 442 q 347 298 310 336 q 437 238 385 260 q 550 217 489 217 l 800 217 m 536 1072 l 536 1168 l 897 1258 l 897 1126 l 536 1072 z "},"Ô":{"ha":1351,"x_min":51,"x_max":1303,"o":"m 550 0 q 351 40 442 0 q 193 148 260 79 q 89 311 126 217 q 51 515 51 406 q 89 718 51 626 q 193 874 126 810 q 351 974 260 939 q 550 1010 442 1010 l 800 1010 q 1003 974 911 1010 q 1163 872 1096 938 q 1266 716 1229 807 q 1303 515 1303 625 q 1265 311 1303 406 q 1161 148 1228 217 q 1002 40 1094 79 q 800 0 910 0 l 550 0 m 800 217 q 915 238 863 217 q 1006 298 968 260 q 1065 389 1044 336 q 1086 504 1086 442 q 1065 620 1086 567 q 1006 712 1044 674 q 915 772 968 750 q 800 793 863 793 l 550 793 q 438 772 489 793 q 349 712 386 750 q 290 620 311 674 q 268 504 268 567 q 289 389 268 442 q 347 298 310 336 q 437 238 385 260 q 550 217 489 217 l 800 217 m 751 1072 l 681 1197 l 668 1197 l 597 1072 l 482 1072 l 599 1258 l 751 1258 l 868 1072 l 751 1072 z "},"Õ":{"ha":1351,"x_min":51,"x_max":1303,"o":"m 550 0 q 351 40 442 0 q 193 148 260 79 q 89 311 126 217 q 51 515 51 406 q 89 718 51 626 q 193 874 126 810 q 351 974 260 939 q 550 1010 442 1010 l 800 1010 q 1003 974 911 1010 q 1163 872 1096 938 q 1266 716 1229 807 q 1303 515 1303 625 q 1265 311 1303 406 q 1161 148 1228 217 q 1002 40 1094 79 q 800 0 910 0 l 550 0 m 800 217 q 915 238 863 217 q 1006 298 968 260 q 1065 389 1044 336 q 1086 504 1086 442 q 1065 620 1086 567 q 1006 712 1044 674 q 915 772 968 750 q 800 793 863 793 l 550 793 q 438 772 489 793 q 349 712 386 750 q 290 620 311 674 q 268 504 268 567 q 289 389 268 442 q 347 298 310 336 q 437 238 385 260 q 550 217 489 217 l 800 217 m 856 1133 q 815 1105 839 1114 q 763 1096 790 1096 q 718 1103 739 1096 q 676 1121 697 1111 q 632 1138 654 1131 q 586 1146 610 1146 q 533 1132 558 1146 q 494 1101 508 1118 l 494 1197 q 586 1236 525 1236 q 632 1228 610 1236 q 675 1210 654 1219 q 717 1193 696 1201 q 763 1185 739 1185 q 817 1199 792 1185 q 856 1231 842 1213 l 856 1133 z "},"Ö":{"ha":1351,"x_min":51,"x_max":1303,"o":"m 550 0 q 351 40 442 0 q 193 148 260 79 q 89 311 126 217 q 51 515 51 406 q 89 718 51 626 q 193 874 126 810 q 351 974 260 939 q 550 1010 442 1010 l 800 1010 q 1003 974 911 1010 q 1163 872 1096 938 q 1266 716 1229 807 q 1303 515 1303 625 q 1265 311 1303 406 q 1161 148 1228 217 q 1002 40 1094 79 q 800 0 910 0 l 550 0 m 800 217 q 915 238 863 217 q 1006 298 968 260 q 1065 389 1044 336 q 1086 504 1086 442 q 1065 620 1086 567 q 1006 712 1044 674 q 915 772 968 750 q 800 793 863 793 l 550 793 q 438 772 489 793 q 349 712 386 750 q 290 620 311 674 q 268 504 268 567 q 289 389 268 442 q 347 298 310 336 q 437 238 385 260 q 550 217 489 217 l 800 217 m 629 1178 q 606 1124 629 1143 q 547 1104 582 1104 q 487 1124 511 1104 q 463 1178 463 1143 q 487 1231 463 1211 q 547 1250 511 1250 q 606 1231 582 1250 q 629 1178 629 1211 m 888 1178 q 864 1124 888 1143 q 804 1104 840 1104 q 745 1124 769 1104 q 721 1178 721 1143 q 745 1231 721 1211 q 804 1250 769 1250 q 864 1231 840 1250 q 888 1178 888 1211 z "},"×":{"ha":958,"x_min":146,"x_max":813,"o":"m 711 181 l 479 413 l 247 181 l 146 282 l 378 514 l 147 744 l 249 846 l 479 615 l 710 846 l 811 744 l 581 514 l 813 282 l 711 181 z "},"Ø":{"ha":1351,"x_min":51,"x_max":1303,"o":"m 550 0 q 347 40 443 0 l 253 -69 l 190 -14 l 272 81 q 110 261 168 149 q 51 515 51 374 q 89 718 51 626 q 193 874 126 810 q 351 974 260 939 q 550 1010 442 1010 l 800 1010 q 1031 961 929 1010 l 1131 1078 l 1194 1022 l 1106 919 q 1251 751 1199 853 q 1303 515 1303 649 q 1265 311 1303 406 q 1161 148 1228 217 q 1002 40 1094 79 q 800 0 910 0 l 550 0 m 878 783 q 800 793 844 793 l 550 793 q 438 772 489 793 q 349 712 386 750 q 290 620 311 674 q 268 504 268 567 q 308 349 268 417 q 415 247 347 282 l 878 783 m 800 217 q 915 238 863 217 q 1006 298 968 260 q 1065 389 1044 336 q 1086 504 1086 442 q 1052 649 1086 585 q 958 749 1018 713 l 501 219 q 525 217 513 218 q 550 217 538 217 l 800 217 z "},"Ù":{"ha":1239,"x_min":65,"x_max":1174,"o":"m 963 1010 l 1174 1010 l 1174 446 q 1143 242 1174 329 q 1046 99 1113 156 q 874 14 979 42 q 619 -14 768 -14 q 366 14 471 -14 q 194 99 261 42 q 97 242 128 156 q 65 446 65 329 l 65 1010 l 289 1010 l 289 446 q 305 332 289 379 q 360 255 321 285 q 463 212 399 225 q 626 199 528 199 q 788 212 724 199 q 892 255 853 225 q 947 332 931 285 q 963 446 963 379 l 963 1010 m 397 1126 l 397 1258 l 758 1168 l 758 1072 l 397 1126 z "},"Ú":{"ha":1239,"x_min":65,"x_max":1174,"o":"m 963 1010 l 1174 1010 l 1174 446 q 1143 242 1174 329 q 1046 99 1113 156 q 874 14 979 42 q 619 -14 768 -14 q 366 14 471 -14 q 194 99 261 42 q 97 242 128 156 q 65 446 65 329 l 65 1010 l 289 1010 l 289 446 q 305 332 289 379 q 360 255 321 285 q 463 212 399 225 q 626 199 528 199 q 788 212 724 199 q 892 255 853 225 q 947 332 931 285 q 963 446 963 379 l 963 1010 m 481 1072 l 481 1168 l 842 1258 l 842 1126 l 481 1072 z "},"Û":{"ha":1239,"x_min":65,"x_max":1174,"o":"m 963 1010 l 1174 1010 l 1174 446 q 1143 242 1174 329 q 1046 99 1113 156 q 874 14 979 42 q 619 -14 768 -14 q 366 14 471 -14 q 194 99 261 42 q 97 242 128 156 q 65 446 65 329 l 65 1010 l 289 1010 l 289 446 q 305 332 289 379 q 360 255 321 285 q 463 212 399 225 q 626 199 528 199 q 788 212 724 199 q 892 255 853 225 q 947 332 931 285 q 963 446 963 379 l 963 1010 m 696 1072 l 625 1197 l 613 1197 l 542 1072 l 426 1072 l 543 1258 l 696 1258 l 813 1072 l 696 1072 z "},"Ü":{"ha":1239,"x_min":65,"x_max":1174,"o":"m 963 1010 l 1174 1010 l 1174 446 q 1143 242 1174 329 q 1046 99 1113 156 q 874 14 979 42 q 619 -14 768 -14 q 366 14 471 -14 q 194 99 261 42 q 97 242 128 156 q 65 446 65 329 l 65 1010 l 289 1010 l 289 446 q 305 332 289 379 q 360 255 321 285 q 463 212 399 225 q 626 199 528 199 q 788 212 724 199 q 892 255 853 225 q 947 332 931 285 q 963 446 963 379 l 963 1010 m 574 1178 q 550 1124 574 1143 q 492 1104 526 1104 q 431 1124 456 1104 q 407 1178 407 1143 q 431 1231 407 1211 q 492 1250 456 1250 q 550 1231 526 1250 q 574 1178 574 1211 m 832 1178 q 808 1124 832 1143 q 749 1104 785 1104 q 690 1124 714 1104 q 665 1178 665 1143 q 690 1231 665 1211 q 749 1250 714 1250 q 808 1231 785 1250 q 832 1178 832 1211 z "},"Ý":{"ha":1293,"x_min":11,"x_max":1282,"o":"m 538 0 l 538 367 l 11 1010 l 301 1010 l 654 564 l 1007 1010 l 1282 1010 l 754 367 l 754 0 l 538 0 m 515 1072 l 515 1168 l 876 1258 l 876 1126 l 515 1072 z "},"Þ":{"ha":1175,"x_min":81,"x_max":1142,"o":"m 422 126 l 422 333 l 760 333 q 884 377 839 333 q 929 496 929 421 q 884 612 929 571 q 760 653 839 653 l 296 653 l 296 0 l 81 0 l 81 1010 l 296 1010 l 296 869 l 760 869 q 920 844 849 869 q 1040 770 992 818 q 1115 654 1089 722 q 1142 503 1142 586 q 1115 349 1142 418 q 1040 230 1089 279 q 920 153 992 181 q 760 126 849 126 l 422 126 z "},"ß":{"ha":2453,"x_min":65,"x_max":2396,"o":"m 81 0 l 81 217 l 843 217 q 933 244 901 217 q 965 321 965 272 q 933 400 965 372 q 843 428 901 428 l 386 428 q 252 449 311 428 q 151 509 193 471 q 88 601 110 547 q 65 718 65 654 q 86 834 65 781 q 148 926 107 888 q 249 988 189 965 q 389 1010 310 1010 l 1119 1010 l 1119 793 l 389 793 q 317 768 343 793 q 290 696 290 743 q 317 624 290 649 q 389 599 344 599 l 843 599 q 1086 526 1003 599 q 1169 303 1169 454 q 1149 182 1169 238 q 1088 86 1129 126 q 986 23 1047 46 q 843 0 925 0 l 81 0 m 1307 0 l 1307 217 l 2069 217 q 2160 244 2128 217 q 2192 321 2192 272 q 2160 400 2192 372 q 2069 428 2128 428 l 1613 428 q 1478 449 1538 428 q 1378 509 1419 471 q 1314 601 1336 547 q 1292 718 1292 654 q 1313 834 1292 781 q 1374 926 1333 888 q 1476 988 1415 965 q 1615 1010 1536 1010 l 2346 1010 l 2346 793 l 1615 793 q 1543 768 1569 793 q 1517 696 1517 743 q 1544 624 1517 649 q 1615 599 1571 599 l 2069 599 q 2313 526 2229 599 q 2396 303 2396 454 q 2376 182 2396 238 q 2315 86 2356 126 q 2213 23 2274 46 q 2069 0 2151 0 l 1307 0 z "},"à":{"ha":1382,"x_min":13,"x_max":1368,"o":"m 1108 0 l 967 239 l 540 239 l 639 407 l 867 407 l 682 718 l 258 0 l 13 0 l 586 954 q 630 1005 606 986 q 690 1024 654 1024 q 751 1005 726 1024 q 794 954 775 986 l 1368 0 l 1108 0 m 468 1126 l 468 1258 l 829 1168 l 829 1072 l 468 1126 z "},"á":{"ha":1382,"x_min":13,"x_max":1368,"o":"m 1108 0 l 967 239 l 540 239 l 639 407 l 867 407 l 682 718 l 258 0 l 13 0 l 586 954 q 630 1005 606 986 q 690 1024 654 1024 q 751 1005 726 1024 q 794 954 775 986 l 1368 0 l 1108 0 m 551 1072 l 551 1168 l 913 1258 l 913 1126 l 551 1072 z "},"â":{"ha":1382,"x_min":13,"x_max":1368,"o":"m 1108 0 l 967 239 l 540 239 l 639 407 l 867 407 l 682 718 l 258 0 l 13 0 l 586 954 q 630 1005 606 986 q 690 1024 654 1024 q 751 1005 726 1024 q 794 954 775 986 l 1368 0 l 1108 0 m 767 1072 l 696 1197 l 683 1197 l 613 1072 l 497 1072 l 614 1258 l 767 1258 l 883 1072 l 767 1072 z "},"ã":{"ha":1382,"x_min":13,"x_max":1368,"o":"m 1108 0 l 967 239 l 540 239 l 639 407 l 867 407 l 682 718 l 258 0 l 13 0 l 586 954 q 630 1005 606 986 q 690 1024 654 1024 q 751 1005 726 1024 q 794 954 775 986 l 1368 0 l 1108 0 m 871 1133 q 830 1105 854 1114 q 778 1096 806 1096 q 733 1103 754 1096 q 691 1121 713 1111 q 647 1138 669 1131 q 601 1146 625 1146 q 549 1132 574 1146 q 510 1101 524 1118 l 510 1197 q 601 1236 540 1236 q 647 1228 625 1236 q 690 1210 669 1219 q 733 1193 711 1201 q 778 1185 754 1185 q 832 1199 807 1185 q 871 1231 857 1213 l 871 1133 z "},"ä":{"ha":1382,"x_min":13,"x_max":1368,"o":"m 1108 0 l 967 239 l 540 239 l 639 407 l 867 407 l 682 718 l 258 0 l 13 0 l 586 954 q 630 1005 606 986 q 690 1024 654 1024 q 751 1005 726 1024 q 794 954 775 986 l 1368 0 l 1108 0 m 644 1178 q 621 1124 644 1143 q 563 1104 597 1104 q 502 1124 526 1104 q 478 1178 478 1143 q 502 1231 478 1211 q 563 1250 526 1250 q 621 1231 597 1250 q 644 1178 644 1211 m 903 1178 q 879 1124 903 1143 q 819 1104 856 1104 q 760 1124 785 1104 q 736 1178 736 1143 q 760 1231 736 1211 q 819 1250 785 1250 q 879 1231 856 1250 q 903 1178 903 1211 z "},"å":{"ha":1382,"x_min":13,"x_max":1368,"o":"m 1108 0 l 967 239 l 540 239 l 639 407 l 867 407 l 682 718 l 258 0 l 13 0 l 586 954 q 630 1005 606 986 q 690 1024 654 1024 q 751 1005 726 1024 q 794 954 775 986 l 1368 0 l 1108 0 m 654 1072 q 552 1113 592 1072 q 513 1215 513 1153 q 552 1316 513 1278 q 654 1354 592 1354 l 725 1354 q 828 1316 788 1354 q 868 1215 868 1278 q 828 1113 868 1153 q 725 1072 788 1072 l 654 1072 m 725 1133 q 783 1156 761 1133 q 806 1214 806 1178 q 783 1269 806 1247 q 725 1292 761 1292 l 654 1292 q 597 1269 619 1292 q 575 1214 575 1247 q 597 1156 575 1178 q 654 1133 618 1133 l 725 1133 z "},"æ":{"ha":1885,"x_min":13,"x_max":1828,"o":"m 949 0 l 949 235 l 535 235 l 635 404 l 949 404 l 949 793 l 715 793 l 256 0 l 13 0 l 568 939 q 613 990 588 971 q 674 1010 638 1010 l 1825 1010 l 1825 793 l 1164 793 l 1164 217 l 1828 217 l 1828 0 l 949 0 m 1290 428 l 1290 599 l 1786 599 l 1786 428 l 1290 428 z "},"ç":{"ha":1156,"x_min":51,"x_max":1107,"o":"m 550 0 q 351 40 442 0 q 193 148 260 79 q 89 311 126 217 q 51 515 51 406 q 89 718 51 626 q 193 874 126 810 q 351 974 260 939 q 550 1010 442 1010 l 1107 1010 l 1107 793 l 550 793 q 438 772 489 793 q 349 712 386 750 q 290 620 311 674 q 268 504 268 567 q 289 389 268 442 q 347 298 310 336 q 437 238 385 260 q 550 217 489 217 l 1107 217 l 1107 0 l 550 0 m 500 -65 l 711 -65 l 606 -279 l 500 -65 z "},"è":{"ha":1056,"x_min":81,"x_max":999,"o":"m 422 428 l 422 599 l 958 599 l 958 428 l 422 428 m 81 0 l 81 1010 l 997 1010 l 997 793 l 296 793 l 296 217 l 999 217 l 999 0 l 81 0 m 306 1126 l 306 1258 l 667 1168 l 667 1072 l 306 1126 z "},"é":{"ha":1056,"x_min":81,"x_max":999,"o":"m 422 428 l 422 599 l 958 599 l 958 428 l 422 428 m 81 0 l 81 1010 l 997 1010 l 997 793 l 296 793 l 296 217 l 999 217 l 999 0 l 81 0 m 389 1072 l 389 1168 l 750 1258 l 750 1126 l 389 1072 z "},"ê":{"ha":1056,"x_min":81,"x_max":999,"o":"m 422 428 l 422 599 l 958 599 l 958 428 l 422 428 m 81 0 l 81 1010 l 997 1010 l 997 793 l 296 793 l 296 217 l 999 217 l 999 0 l 81 0 m 604 1072 l 533 1197 l 521 1197 l 450 1072 l 335 1072 l 451 1258 l 604 1258 l 721 1072 l 604 1072 z "},"ë":{"ha":1056,"x_min":81,"x_max":999,"o":"m 422 428 l 422 599 l 958 599 l 958 428 l 422 428 m 81 0 l 81 1010 l 997 1010 l 997 793 l 296 793 l 296 217 l 999 217 l 999 0 l 81 0 m 482 1178 q 458 1124 482 1143 q 400 1104 435 1104 q 340 1124 364 1104 q 315 1178 315 1143 q 340 1231 315 1211 q 400 1250 364 1250 q 458 1231 435 1250 q 482 1178 482 1211 m 740 1178 q 717 1124 740 1143 q 657 1104 693 1104 q 598 1124 622 1104 q 574 1178 574 1143 q 598 1231 574 1211 q 657 1250 622 1250 q 717 1231 693 1250 q 740 1178 740 1211 z "},"ì":{"ha":397,"x_min":-22,"x_max":339,"o":"m 90 0 l 90 1010 l 307 1010 l 307 0 l 90 0 m -22 1126 l -22 1258 l 339 1168 l 339 1072 l -22 1126 z "},"í":{"ha":397,"x_min":61,"x_max":422,"o":"m 90 0 l 90 1010 l 307 1010 l 307 0 l 90 0 m 61 1072 l 61 1168 l 422 1258 l 422 1126 l 61 1072 z "},"î":{"ha":397,"x_min":7,"x_max":393,"o":"m 90 0 l 90 1010 l 307 1010 l 307 0 l 90 0 m 276 1072 l 206 1197 l 193 1197 l 122 1072 l 7 1072 l 124 1258 l 276 1258 l 393 1072 l 276 1072 z "},"ï":{"ha":397,"x_min":-12,"x_max":413,"o":"m 90 0 l 90 1010 l 307 1010 l 307 0 l 90 0 m 154 1178 q 131 1124 154 1143 q 72 1104 107 1104 q 12 1124 36 1104 q -12 1178 -12 1143 q 12 1231 -12 1211 q 72 1250 36 1250 q 131 1231 107 1250 q 154 1178 154 1211 m 413 1178 q 389 1124 413 1143 q 329 1104 365 1104 q 270 1124 294 1104 q 246 1178 246 1143 q 270 1231 246 1211 q 329 1250 294 1250 q 389 1231 365 1250 q 413 1178 413 1211 z "},"ð":{"ha":1224,"x_min":7,"x_max":1175,"o":"m 79 0 l 79 428 l 7 428 l 7 599 l 79 599 l 79 1010 l 674 1010 q 874 974 782 1010 q 1033 872 967 938 q 1138 716 1100 807 q 1175 515 1175 625 q 1138 311 1175 406 q 1033 148 1100 217 q 874 40 967 79 q 674 0 782 0 l 79 0 m 294 428 l 294 217 l 674 217 q 787 238 735 217 q 876 298 839 260 q 935 389 914 336 q 957 504 957 442 q 935 620 957 567 q 876 712 914 674 q 787 772 839 750 q 674 793 735 793 l 294 793 l 294 599 l 661 599 l 661 428 l 294 428 z "},"ñ":{"ha":1217,"x_min":76,"x_max":1140,"o":"m 282 672 l 282 0 l 76 0 l 76 894 q 106 988 76 954 q 185 1022 135 1022 q 228 1013 208 1022 q 272 982 249 1004 l 933 347 l 933 1019 l 1140 1019 l 1140 115 q 1110 19 1140 53 q 1032 -14 1081 -14 q 943 28 985 -14 l 282 672 m 789 1133 q 748 1105 772 1114 q 696 1096 724 1096 q 651 1103 672 1096 q 609 1121 631 1111 q 565 1138 588 1131 q 519 1146 543 1146 q 467 1132 492 1146 q 428 1101 442 1118 l 428 1197 q 519 1236 458 1236 q 565 1228 543 1236 q 608 1210 588 1219 q 651 1193 629 1201 q 696 1185 672 1185 q 750 1199 725 1185 q 789 1231 775 1213 l 789 1133 z "},"ò":{"ha":1351,"x_min":51,"x_max":1303,"o":"m 550 0 q 351 40 442 0 q 193 148 260 79 q 89 311 126 217 q 51 515 51 406 q 89 718 51 626 q 193 874 126 810 q 351 974 260 939 q 550 1010 442 1010 l 800 1010 q 1003 974 911 1010 q 1163 872 1096 938 q 1266 716 1229 807 q 1303 515 1303 625 q 1265 311 1303 406 q 1161 148 1228 217 q 1002 40 1094 79 q 800 0 910 0 l 550 0 m 800 217 q 915 238 863 217 q 1006 298 968 260 q 1065 389 1044 336 q 1086 504 1086 442 q 1065 620 1086 567 q 1006 712 1044 674 q 915 772 968 750 q 800 793 863 793 l 550 793 q 438 772 489 793 q 349 712 386 750 q 290 620 311 674 q 268 504 268 567 q 289 389 268 442 q 347 298 310 336 q 437 238 385 260 q 550 217 489 217 l 800 217 m 453 1126 l 453 1258 l 814 1168 l 814 1072 l 453 1126 z "},"ó":{"ha":1351,"x_min":51,"x_max":1303,"o":"m 550 0 q 351 40 442 0 q 193 148 260 79 q 89 311 126 217 q 51 515 51 406 q 89 718 51 626 q 193 874 126 810 q 351 974 260 939 q 550 1010 442 1010 l 800 1010 q 1003 974 911 1010 q 1163 872 1096 938 q 1266 716 1229 807 q 1303 515 1303 625 q 1265 311 1303 406 q 1161 148 1228 217 q 1002 40 1094 79 q 800 0 910 0 l 550 0 m 800 217 q 915 238 863 217 q 1006 298 968 260 q 1065 389 1044 336 q 1086 504 1086 442 q 1065 620 1086 567 q 1006 712 1044 674 q 915 772 968 750 q 800 793 863 793 l 550 793 q 438 772 489 793 q 349 712 386 750 q 290 620 311 674 q 268 504 268 567 q 289 389 268 442 q 347 298 310 336 q 437 238 385 260 q 550 217 489 217 l 800 217 m 536 1072 l 536 1168 l 897 1258 l 897 1126 l 536 1072 z "},"ô":{"ha":1351,"x_min":51,"x_max":1303,"o":"m 550 0 q 351 40 442 0 q 193 148 260 79 q 89 311 126 217 q 51 515 51 406 q 89 718 51 626 q 193 874 126 810 q 351 974 260 939 q 550 1010 442 1010 l 800 1010 q 1003 974 911 1010 q 1163 872 1096 938 q 1266 716 1229 807 q 1303 515 1303 625 q 1265 311 1303 406 q 1161 148 1228 217 q 1002 40 1094 79 q 800 0 910 0 l 550 0 m 800 217 q 915 238 863 217 q 1006 298 968 260 q 1065 389 1044 336 q 1086 504 1086 442 q 1065 620 1086 567 q 1006 712 1044 674 q 915 772 968 750 q 800 793 863 793 l 550 793 q 438 772 489 793 q 349 712 386 750 q 290 620 311 674 q 268 504 268 567 q 289 389 268 442 q 347 298 310 336 q 437 238 385 260 q 550 217 489 217 l 800 217 m 751 1072 l 681 1197 l 668 1197 l 597 1072 l 482 1072 l 599 1258 l 751 1258 l 868 1072 l 751 1072 z "},"õ":{"ha":1351,"x_min":51,"x_max":1303,"o":"m 550 0 q 351 40 442 0 q 193 148 260 79 q 89 311 126 217 q 51 515 51 406 q 89 718 51 626 q 193 874 126 810 q 351 974 260 939 q 550 1010 442 1010 l 800 1010 q 1003 974 911 1010 q 1163 872 1096 938 q 1266 716 1229 807 q 1303 515 1303 625 q 1265 311 1303 406 q 1161 148 1228 217 q 1002 40 1094 79 q 800 0 910 0 l 550 0 m 800 217 q 915 238 863 217 q 1006 298 968 260 q 1065 389 1044 336 q 1086 504 1086 442 q 1065 620 1086 567 q 1006 712 1044 674 q 915 772 968 750 q 800 793 863 793 l 550 793 q 438 772 489 793 q 349 712 386 750 q 290 620 311 674 q 268 504 268 567 q 289 389 268 442 q 347 298 310 336 q 437 238 385 260 q 550 217 489 217 l 800 217 m 856 1133 q 815 1105 839 1114 q 763 1096 790 1096 q 718 1103 739 1096 q 676 1121 697 1111 q 632 1138 654 1131 q 586 1146 610 1146 q 533 1132 558 1146 q 494 1101 508 1118 l 494 1197 q 586 1236 525 1236 q 632 1228 610 1236 q 675 1210 654 1219 q 717 1193 696 1201 q 763 1185 739 1185 q 817 1199 792 1185 q 856 1231 842 1213 l 856 1133 z "},"ö":{"ha":1351,"x_min":51,"x_max":1303,"o":"m 550 0 q 351 40 442 0 q 193 148 260 79 q 89 311 126 217 q 51 515 51 406 q 89 718 51 626 q 193 874 126 810 q 351 974 260 939 q 550 1010 442 1010 l 800 1010 q 1003 974 911 1010 q 1163 872 1096 938 q 1266 716 1229 807 q 1303 515 1303 625 q 1265 311 1303 406 q 1161 148 1228 217 q 1002 40 1094 79 q 800 0 910 0 l 550 0 m 800 217 q 915 238 863 217 q 1006 298 968 260 q 1065 389 1044 336 q 1086 504 1086 442 q 1065 620 1086 567 q 1006 712 1044 674 q 915 772 968 750 q 800 793 863 793 l 550 793 q 438 772 489 793 q 349 712 386 750 q 290 620 311 674 q 268 504 268 567 q 289 389 268 442 q 347 298 310 336 q 437 238 385 260 q 550 217 489 217 l 800 217 m 629 1178 q 606 1124 629 1143 q 547 1104 582 1104 q 487 1124 511 1104 q 463 1178 463 1143 q 487 1231 463 1211 q 547 1250 511 1250 q 606 1231 582 1250 q 629 1178 629 1211 m 888 1178 q 864 1124 888 1143 q 804 1104 840 1104 q 745 1124 769 1104 q 721 1178 721 1143 q 745 1231 721 1211 q 804 1250 769 1250 q 864 1231 840 1250 q 888 1178 888 1211 z "},"÷":{"ha":958,"x_min":81,"x_max":878,"o":"m 81 442 l 81 585 l 878 585 l 878 442 l 81 442 m 592 850 q 559 770 592 803 q 478 738 526 738 q 399 770 431 738 q 367 850 367 803 q 399 930 367 897 q 478 963 431 963 q 559 930 526 963 q 592 850 592 897 m 592 169 q 559 90 592 122 q 478 57 526 57 q 399 90 431 57 q 367 169 367 122 q 399 249 367 217 q 478 282 431 282 q 559 249 526 282 q 592 169 592 217 z "},"ø":{"ha":1351,"x_min":51,"x_max":1303,"o":"m 550 0 q 347 40 443 0 l 253 -69 l 190 -14 l 272 81 q 110 261 168 149 q 51 515 51 374 q 89 718 51 626 q 193 874 126 810 q 351 974 260 939 q 550 1010 442 1010 l 800 1010 q 1031 961 929 1010 l 1131 1078 l 1194 1022 l 1106 919 q 1251 751 1199 853 q 1303 515 1303 649 q 1265 311 1303 406 q 1161 148 1228 217 q 1002 40 1094 79 q 800 0 910 0 l 550 0 m 878 783 q 800 793 844 793 l 550 793 q 438 772 489 793 q 349 712 386 750 q 290 620 311 674 q 268 504 268 567 q 308 349 268 417 q 415 247 347 282 l 878 783 m 800 217 q 915 238 863 217 q 1006 298 968 260 q 1065 389 1044 336 q 1086 504 1086 442 q 1052 649 1086 585 q 958 749 1018 713 l 501 219 q 525 217 513 218 q 550 217 538 217 l 800 217 z "},"ù":{"ha":1239,"x_min":65,"x_max":1174,"o":"m 963 1010 l 1174 1010 l 1174 446 q 1143 242 1174 329 q 1046 99 1113 156 q 874 14 979 42 q 619 -14 768 -14 q 366 14 471 -14 q 194 99 261 42 q 97 242 128 156 q 65 446 65 329 l 65 1010 l 289 1010 l 289 446 q 305 332 289 379 q 360 255 321 285 q 463 212 399 225 q 626 199 528 199 q 788 212 724 199 q 892 255 853 225 q 947 332 931 285 q 963 446 963 379 l 963 1010 m 397 1126 l 397 1258 l 758 1168 l 758 1072 l 397 1126 z "},"ú":{"ha":1239,"x_min":65,"x_max":1174,"o":"m 963 1010 l 1174 1010 l 1174 446 q 1143 242 1174 329 q 1046 99 1113 156 q 874 14 979 42 q 619 -14 768 -14 q 366 14 471 -14 q 194 99 261 42 q 97 242 128 156 q 65 446 65 329 l 65 1010 l 289 1010 l 289 446 q 305 332 289 379 q 360 255 321 285 q 463 212 399 225 q 626 199 528 199 q 788 212 724 199 q 892 255 853 225 q 947 332 931 285 q 963 446 963 379 l 963 1010 m 481 1072 l 481 1168 l 842 1258 l 842 1126 l 481 1072 z "},"û":{"ha":1239,"x_min":65,"x_max":1174,"o":"m 963 1010 l 1174 1010 l 1174 446 q 1143 242 1174 329 q 1046 99 1113 156 q 874 14 979 42 q 619 -14 768 -14 q 366 14 471 -14 q 194 99 261 42 q 97 242 128 156 q 65 446 65 329 l 65 1010 l 289 1010 l 289 446 q 305 332 289 379 q 360 255 321 285 q 463 212 399 225 q 626 199 528 199 q 788 212 724 199 q 892 255 853 225 q 947 332 931 285 q 963 446 963 379 l 963 1010 m 696 1072 l 625 1197 l 613 1197 l 542 1072 l 426 1072 l 543 1258 l 696 1258 l 813 1072 l 696 1072 z "},"ü":{"ha":1239,"x_min":65,"x_max":1174,"o":"m 963 1010 l 1174 1010 l 1174 446 q 1143 242 1174 329 q 1046 99 1113 156 q 874 14 979 42 q 619 -14 768 -14 q 366 14 471 -14 q 194 99 261 42 q 97 242 128 156 q 65 446 65 329 l 65 1010 l 289 1010 l 289 446 q 305 332 289 379 q 360 255 321 285 q 463 212 399 225 q 626 199 528 199 q 788 212 724 199 q 892 255 853 225 q 947 332 931 285 q 963 446 963 379 l 963 1010 m 574 1178 q 550 1124 574 1143 q 492 1104 526 1104 q 431 1124 456 1104 q 407 1178 407 1143 q 431 1231 407 1211 q 492 1250 456 1250 q 550 1231 526 1250 q 574 1178 574 1211 m 832 1178 q 808 1124 832 1143 q 749 1104 785 1104 q 690 1124 714 1104 q 665 1178 665 1143 q 690 1231 665 1211 q 749 1250 714 1250 q 808 1231 785 1250 q 832 1178 832 1211 z "},"ý":{"ha":1293,"x_min":11,"x_max":1282,"o":"m 538 0 l 538 367 l 11 1010 l 301 1010 l 654 564 l 1007 1010 l 1282 1010 l 754 367 l 754 0 l 538 0 m 515 1072 l 515 1168 l 876 1258 l 876 1126 l 515 1072 z "},"þ":{"ha":1175,"x_min":81,"x_max":1142,"o":"m 422 126 l 422 333 l 760 333 q 884 377 839 333 q 929 496 929 421 q 884 612 929 571 q 760 653 839 653 l 296 653 l 296 0 l 81 0 l 81 1010 l 296 1010 l 296 869 l 760 869 q 920 844 849 869 q 1040 770 992 818 q 1115 654 1089 722 q 1142 503 1142 586 q 1115 349 1142 418 q 1040 230 1089 279 q 920 153 992 181 q 760 126 849 126 l 422 126 z "},"ÿ":{"ha":1293,"x_min":11,"x_max":1282,"o":"m 538 0 l 538 367 l 11 1010 l 301 1010 l 654 564 l 1007 1010 l 1282 1010 l 754 367 l 754 0 l 538 0 m 608 1178 q 585 1124 608 1143 q 526 1104 561 1104 q 466 1124 490 1104 q 442 1178 442 1143 q 466 1231 442 1211 q 526 1250 490 1250 q 585 1231 561 1250 q 608 1178 608 1211 m 867 1178 q 843 1124 867 1143 q 783 1104 819 1104 q 724 1124 749 1104 q 700 1178 700 1143 q 724 1231 700 1211 q 783 1250 749 1250 q 843 1231 819 1250 q 867 1178 867 1211 z "},"Ā":{"ha":1382,"x_min":13,"x_max":1368,"o":"m 1108 0 l 967 239 l 540 239 l 639 407 l 867 407 l 682 718 l 258 0 l 13 0 l 586 954 q 630 1005 606 986 q 690 1024 654 1024 q 751 1005 726 1024 q 794 954 775 986 l 1368 0 l 1108 0 m 510 1118 l 510 1215 l 871 1215 l 871 1118 l 510 1118 z "},"ā":{"ha":1382,"x_min":13,"x_max":1368,"o":"m 1108 0 l 967 239 l 540 239 l 639 407 l 867 407 l 682 718 l 258 0 l 13 0 l 586 954 q 630 1005 606 986 q 690 1024 654 1024 q 751 1005 726 1024 q 794 954 775 986 l 1368 0 l 1108 0 m 510 1118 l 510 1215 l 871 1215 l 871 1118 l 510 1118 z "},"Ă":{"ha":1382,"x_min":13,"x_max":1368,"o":"m 1108 0 l 967 239 l 540 239 l 639 407 l 867 407 l 682 718 l 258 0 l 13 0 l 586 954 q 630 1005 606 986 q 690 1024 654 1024 q 751 1005 726 1024 q 794 954 775 986 l 1368 0 l 1108 0 m 653 1072 q 578 1092 608 1072 q 531 1142 549 1113 q 504 1203 513 1171 q 496 1258 496 1235 l 610 1258 q 614 1223 610 1243 q 626 1185 618 1203 q 649 1156 635 1168 q 682 1143 663 1143 l 706 1143 q 738 1156 725 1143 q 757 1185 750 1168 q 767 1223 764 1203 q 769 1258 769 1243 l 886 1258 q 878 1203 886 1235 q 851 1142 869 1171 q 803 1092 833 1113 q 731 1072 774 1072 l 653 1072 z "},"ă":{"ha":1382,"x_min":13,"x_max":1368,"o":"m 1108 0 l 967 239 l 540 239 l 639 407 l 867 407 l 682 718 l 258 0 l 13 0 l 586 954 q 630 1005 606 986 q 690 1024 654 1024 q 751 1005 726 1024 q 794 954 775 986 l 1368 0 l 1108 0 m 653 1072 q 578 1092 608 1072 q 531 1142 549 1113 q 504 1203 513 1171 q 496 1258 496 1235 l 610 1258 q 614 1223 610 1243 q 626 1185 618 1203 q 649 1156 635 1168 q 682 1143 663 1143 l 706 1143 q 738 1156 725 1143 q 757 1185 750 1168 q 767 1223 764 1203 q 769 1258 769 1243 l 886 1258 q 878 1203 886 1235 q 851 1142 869 1171 q 803 1092 833 1113 q 731 1072 774 1072 l 653 1072 z "},"Ą":{"ha":1382,"x_min":13,"x_max":1368,"o":"m 1247 -279 q 1140 -249 1176 -279 q 1103 -171 1103 -219 q 1119 -116 1103 -143 q 1163 -71 1135 -89 l 1272 0 l 1108 0 l 967 239 l 540 239 l 639 407 l 867 407 l 682 718 l 258 0 l 13 0 l 586 954 q 630 1005 606 986 q 690 1024 654 1024 q 751 1005 726 1024 q 794 954 775 986 l 1368 0 l 1257 -76 q 1232 -111 1232 -93 q 1242 -132 1232 -124 q 1271 -140 1253 -140 l 1368 -140 l 1368 -279 l 1247 -279 z "},"ą":{"ha":1382,"x_min":13,"x_max":1368,"o":"m 1247 -279 q 1140 -249 1176 -279 q 1103 -171 1103 -219 q 1119 -116 1103 -143 q 1163 -71 1135 -89 l 1272 0 l 1108 0 l 967 239 l 540 239 l 639 407 l 867 407 l 682 718 l 258 0 l 13 0 l 586 954 q 630 1005 606 986 q 690 1024 654 1024 q 751 1005 726 1024 q 794 954 775 986 l 1368 0 l 1257 -76 q 1232 -111 1232 -93 q 1242 -132 1232 -124 q 1271 -140 1253 -140 l 1368 -140 l 1368 -279 l 1247 -279 z "},"Ć":{"ha":1156,"x_min":51,"x_max":1107,"o":"m 550 0 q 351 40 442 0 q 193 148 260 79 q 89 311 126 217 q 51 515 51 406 q 89 718 51 626 q 193 874 126 810 q 351 974 260 939 q 550 1010 442 1010 l 1107 1010 l 1107 793 l 550 793 q 438 772 489 793 q 349 712 386 750 q 290 620 311 674 q 268 504 268 567 q 289 389 268 442 q 347 298 310 336 q 437 238 385 260 q 550 217 489 217 l 1107 217 l 1107 0 l 550 0 m 522 1072 l 522 1168 l 883 1258 l 883 1126 l 522 1072 z "},"ć":{"ha":1156,"x_min":51,"x_max":1107,"o":"m 550 0 q 351 40 442 0 q 193 148 260 79 q 89 311 126 217 q 51 515 51 406 q 89 718 51 626 q 193 874 126 810 q 351 974 260 939 q 550 1010 442 1010 l 1107 1010 l 1107 793 l 550 793 q 438 772 489 793 q 349 712 386 750 q 290 620 311 674 q 268 504 268 567 q 289 389 268 442 q 347 298 310 336 q 437 238 385 260 q 550 217 489 217 l 1107 217 l 1107 0 l 550 0 m 522 1072 l 522 1168 l 883 1258 l 883 1126 l 522 1072 z "},"Ĉ":{"ha":1156,"x_min":51,"x_max":1107,"o":"m 550 0 q 351 40 442 0 q 193 148 260 79 q 89 311 126 217 q 51 515 51 406 q 89 718 51 626 q 193 874 126 810 q 351 974 260 939 q 550 1010 442 1010 l 1107 1010 l 1107 793 l 550 793 q 438 772 489 793 q 349 712 386 750 q 290 620 311 674 q 268 504 268 567 q 289 389 268 442 q 347 298 310 336 q 437 238 385 260 q 550 217 489 217 l 1107 217 l 1107 0 l 550 0 m 738 1072 l 667 1197 l 654 1197 l 583 1072 l 468 1072 l 585 1258 l 738 1258 l 854 1072 l 738 1072 z "},"ĉ":{"ha":1156,"x_min":51,"x_max":1107,"o":"m 550 0 q 351 40 442 0 q 193 148 260 79 q 89 311 126 217 q 51 515 51 406 q 89 718 51 626 q 193 874 126 810 q 351 974 260 939 q 550 1010 442 1010 l 1107 1010 l 1107 793 l 550 793 q 438 772 489 793 q 349 712 386 750 q 290 620 311 674 q 268 504 268 567 q 289 389 268 442 q 347 298 310 336 q 437 238 385 260 q 550 217 489 217 l 1107 217 l 1107 0 l 550 0 m 738 1072 l 667 1197 l 654 1197 l 583 1072 l 468 1072 l 585 1258 l 738 1258 l 854 1072 l 738 1072 z "},"Ċ":{"ha":1156,"x_min":51,"x_max":1107,"o":"m 550 0 q 351 40 442 0 q 193 148 260 79 q 89 311 126 217 q 51 515 51 406 q 89 718 51 626 q 193 874 126 810 q 351 974 260 939 q 550 1010 442 1010 l 1107 1010 l 1107 793 l 550 793 q 438 772 489 793 q 349 712 386 750 q 290 620 311 674 q 268 504 268 567 q 289 389 268 442 q 347 298 310 336 q 437 238 385 260 q 550 217 489 217 l 1107 217 l 1107 0 l 550 0 m 758 1178 q 735 1124 758 1143 q 675 1104 711 1104 q 615 1124 639 1104 q 592 1178 592 1143 q 615 1231 592 1211 q 675 1250 639 1250 q 735 1231 711 1250 q 758 1178 758 1211 z "},"ċ":{"ha":1156,"x_min":51,"x_max":1107,"o":"m 550 0 q 351 40 442 0 q 193 148 260 79 q 89 311 126 217 q 51 515 51 406 q 89 718 51 626 q 193 874 126 810 q 351 974 260 939 q 550 1010 442 1010 l 1107 1010 l 1107 793 l 550 793 q 438 772 489 793 q 349 712 386 750 q 290 620 311 674 q 268 504 268 567 q 289 389 268 442 q 347 298 310 336 q 437 238 385 260 q 550 217 489 217 l 1107 217 l 1107 0 l 550 0 m 758 1178 q 735 1124 758 1143 q 675 1104 711 1104 q 615 1124 639 1104 q 592 1178 592 1143 q 615 1231 592 1211 q 675 1250 639 1250 q 735 1231 711 1250 q 758 1178 758 1211 z "},"Č":{"ha":1156,"x_min":51,"x_max":1107,"o":"m 550 0 q 351 40 442 0 q 193 148 260 79 q 89 311 126 217 q 51 515 51 406 q 89 718 51 626 q 193 874 126 810 q 351 974 260 939 q 550 1010 442 1010 l 1107 1010 l 1107 793 l 550 793 q 438 772 489 793 q 349 712 386 750 q 290 620 311 674 q 268 504 268 567 q 289 389 268 442 q 347 298 310 336 q 437 238 385 260 q 550 217 489 217 l 1107 217 l 1107 0 l 550 0 m 583 1072 l 468 1258 l 583 1258 l 654 1131 l 667 1131 l 738 1258 l 854 1258 l 736 1072 l 583 1072 z "},"č":{"ha":1156,"x_min":51,"x_max":1107,"o":"m 550 0 q 351 40 442 0 q 193 148 260 79 q 89 311 126 217 q 51 515 51 406 q 89 718 51 626 q 193 874 126 810 q 351 974 260 939 q 550 1010 442 1010 l 1107 1010 l 1107 793 l 550 793 q 438 772 489 793 q 349 712 386 750 q 290 620 311 674 q 268 504 268 567 q 289 389 268 442 q 347 298 310 336 q 437 238 385 260 q 550 217 489 217 l 1107 217 l 1107 0 l 550 0 m 583 1072 l 468 1258 l 583 1258 l 654 1131 l 667 1131 l 738 1258 l 854 1258 l 736 1072 l 583 1072 z "},"Ď":{"ha":1225,"x_min":81,"x_max":1175,"o":"m 81 0 l 81 1010 l 675 1010 q 875 974 783 1010 q 1033 872 967 938 q 1138 716 1100 807 q 1175 515 1175 625 q 1138 311 1175 406 q 1033 148 1100 217 q 875 40 967 79 q 675 0 783 0 l 81 0 m 675 217 q 788 238 736 217 q 878 298 840 260 q 937 389 915 336 q 958 504 958 442 q 937 620 958 567 q 878 712 915 674 q 788 772 840 750 q 675 793 736 793 l 296 793 l 296 217 l 675 217 m 465 1072 l 350 1258 l 465 1258 l 536 1131 l 549 1131 l 619 1258 l 736 1258 l 618 1072 l 465 1072 z "},"ď":{"ha":1225,"x_min":81,"x_max":1175,"o":"m 81 0 l 81 1010 l 675 1010 q 875 974 783 1010 q 1033 872 967 938 q 1138 716 1100 807 q 1175 515 1175 625 q 1138 311 1175 406 q 1033 148 1100 217 q 875 40 967 79 q 675 0 783 0 l 81 0 m 675 217 q 788 238 736 217 q 878 298 840 260 q 937 389 915 336 q 958 504 958 442 q 937 620 958 567 q 878 712 915 674 q 788 772 840 750 q 675 793 736 793 l 296 793 l 296 217 l 675 217 m 465 1072 l 350 1258 l 465 1258 l 536 1131 l 549 1131 l 619 1258 l 736 1258 l 618 1072 l 465 1072 z "},"Đ":{"ha":1224,"x_min":7,"x_max":1175,"o":"m 79 0 l 79 428 l 7 428 l 7 599 l 79 599 l 79 1010 l 674 1010 q 874 974 782 1010 q 1033 872 967 938 q 1138 716 1100 807 q 1175 515 1175 625 q 1138 311 1175 406 q 1033 148 1100 217 q 874 40 967 79 q 674 0 782 0 l 79 0 m 294 428 l 294 217 l 674 217 q 787 238 735 217 q 876 298 839 260 q 935 389 914 336 q 957 504 957 442 q 935 620 957 567 q 876 712 914 674 q 787 772 839 750 q 674 793 735 793 l 294 793 l 294 599 l 661 599 l 661 428 l 294 428 z "},"đ":{"ha":1224,"x_min":7,"x_max":1175,"o":"m 79 0 l 79 428 l 7 428 l 7 599 l 79 599 l 79 1010 l 674 1010 q 874 974 782 1010 q 1033 872 967 938 q 1138 716 1100 807 q 1175 515 1175 625 q 1138 311 1175 406 q 1033 148 1100 217 q 874 40 967 79 q 674 0 782 0 l 79 0 m 294 428 l 294 217 l 674 217 q 787 238 735 217 q 876 298 839 260 q 935 389 914 336 q 957 504 957 442 q 935 620 957 567 q 876 712 914 674 q 787 772 839 750 q 674 793 735 793 l 294 793 l 294 599 l 661 599 l 661 428 l 294 428 z "},"Ē":{"ha":1056,"x_min":81,"x_max":999,"o":"m 422 428 l 422 599 l 958 599 l 958 428 l 422 428 m 81 0 l 81 1010 l 997 1010 l 997 793 l 296 793 l 296 217 l 999 217 l 999 0 l 81 0 m 347 1118 l 347 1215 l 708 1215 l 708 1118 l 347 1118 z "},"ē":{"ha":1056,"x_min":81,"x_max":999,"o":"m 422 428 l 422 599 l 958 599 l 958 428 l 422 428 m 81 0 l 81 1010 l 997 1010 l 997 793 l 296 793 l 296 217 l 999 217 l 999 0 l 81 0 m 347 1118 l 347 1215 l 708 1215 l 708 1118 l 347 1118 z "},"Ĕ":{"ha":1056,"x_min":81,"x_max":999,"o":"m 422 428 l 422 599 l 958 599 l 958 428 l 422 428 m 81 0 l 81 1010 l 997 1010 l 997 793 l 296 793 l 296 217 l 999 217 l 999 0 l 81 0 m 489 1072 q 415 1092 444 1072 q 367 1142 385 1113 q 340 1203 349 1171 q 332 1258 332 1235 l 446 1258 q 450 1223 446 1243 q 463 1185 454 1203 q 485 1156 471 1168 q 518 1143 499 1143 l 542 1143 q 574 1156 561 1143 q 593 1185 586 1168 q 603 1223 600 1203 q 606 1258 606 1243 l 722 1258 q 714 1203 722 1235 q 688 1142 706 1171 q 640 1092 669 1113 q 567 1072 610 1072 l 489 1072 z "},"ĕ":{"ha":1056,"x_min":81,"x_max":999,"o":"m 422 428 l 422 599 l 958 599 l 958 428 l 422 428 m 81 0 l 81 1010 l 997 1010 l 997 793 l 296 793 l 296 217 l 999 217 l 999 0 l 81 0 m 489 1072 q 415 1092 444 1072 q 367 1142 385 1113 q 340 1203 349 1171 q 332 1258 332 1235 l 446 1258 q 450 1223 446 1243 q 463 1185 454 1203 q 485 1156 471 1168 q 518 1143 499 1143 l 542 1143 q 574 1156 561 1143 q 593 1185 586 1168 q 603 1223 600 1203 q 606 1258 606 1243 l 722 1258 q 714 1203 722 1235 q 688 1142 706 1171 q 640 1092 669 1113 q 567 1072 610 1072 l 489 1072 z "},"Ė":{"ha":1056,"x_min":81,"x_max":999,"o":"m 422 428 l 422 599 l 958 599 l 958 428 l 422 428 m 81 0 l 81 1010 l 997 1010 l 997 793 l 296 793 l 296 217 l 999 217 l 999 0 l 81 0 m 611 1178 q 588 1124 611 1143 q 528 1104 564 1104 q 468 1124 492 1104 q 444 1178 444 1143 q 468 1231 444 1211 q 528 1250 492 1250 q 588 1231 564 1250 q 611 1178 611 1211 z "},"ė":{"ha":1056,"x_min":81,"x_max":999,"o":"m 422 428 l 422 599 l 958 599 l 958 428 l 422 428 m 81 0 l 81 1010 l 997 1010 l 997 793 l 296 793 l 296 217 l 999 217 l 999 0 l 81 0 m 611 1178 q 588 1124 611 1143 q 528 1104 564 1104 q 468 1124 492 1104 q 444 1178 444 1143 q 468 1231 444 1211 q 528 1250 492 1250 q 588 1231 564 1250 q 611 1178 611 1211 z "},"Ę":{"ha":1056,"x_min":81,"x_max":999,"o":"m 878 -279 q 770 -249 807 -279 q 733 -171 733 -219 q 749 -116 733 -143 q 793 -71 765 -89 l 903 0 l 81 0 l 81 1010 l 997 1010 l 997 793 l 296 793 l 296 217 l 999 217 l 999 0 l 888 -76 q 863 -111 863 -93 q 873 -132 863 -124 q 901 -140 883 -140 l 999 -140 l 999 -279 l 878 -279 m 422 428 l 422 599 l 958 599 l 958 428 l 422 428 z "},"ę":{"ha":1056,"x_min":81,"x_max":999,"o":"m 878 -279 q 770 -249 807 -279 q 733 -171 733 -219 q 749 -116 733 -143 q 793 -71 765 -89 l 903 0 l 81 0 l 81 1010 l 997 1010 l 997 793 l 296 793 l 296 217 l 999 217 l 999 0 l 888 -76 q 863 -111 863 -93 q 873 -132 863 -124 q 901 -140 883 -140 l 999 -140 l 999 -279 l 878 -279 m 422 428 l 422 599 l 958 599 l 958 428 l 422 428 z "},"Ě":{"ha":1056,"x_min":81,"x_max":999,"o":"m 422 428 l 422 599 l 958 599 l 958 428 l 422 428 m 81 0 l 81 1010 l 997 1010 l 997 793 l 296 793 l 296 217 l 999 217 l 999 0 l 81 0 m 450 1072 l 335 1258 l 450 1258 l 521 1131 l 533 1131 l 604 1258 l 721 1258 l 603 1072 l 450 1072 z "},"ě":{"ha":1056,"x_min":81,"x_max":999,"o":"m 422 428 l 422 599 l 958 599 l 958 428 l 422 428 m 81 0 l 81 1010 l 997 1010 l 997 793 l 296 793 l 296 217 l 999 217 l 999 0 l 81 0 m 450 1072 l 335 1258 l 450 1258 l 521 1131 l 533 1131 l 604 1258 l 721 1258 l 603 1072 l 450 1072 z "},"Ĝ":{"ha":1238,"x_min":51,"x_max":1169,"o":"m 550 0 q 351 40 442 0 q 193 148 260 79 q 89 311 126 217 q 51 515 51 406 q 89 718 51 626 q 193 874 126 810 q 351 974 260 939 q 550 1010 442 1010 l 1107 1010 l 1107 793 l 550 793 q 438 772 489 793 q 349 712 386 750 q 290 620 311 674 q 268 504 268 567 q 289 389 268 442 q 347 298 310 336 q 437 238 385 260 q 550 217 489 217 l 953 217 l 953 428 l 526 428 l 526 599 l 1169 599 l 1169 0 l 550 0 m 750 1072 l 679 1197 l 667 1197 l 596 1072 l 481 1072 l 597 1258 l 750 1258 l 867 1072 l 750 1072 z "},"ĝ":{"ha":1238,"x_min":51,"x_max":1169,"o":"m 550 0 q 351 40 442 0 q 193 148 260 79 q 89 311 126 217 q 51 515 51 406 q 89 718 51 626 q 193 874 126 810 q 351 974 260 939 q 550 1010 442 1010 l 1107 1010 l 1107 793 l 550 793 q 438 772 489 793 q 349 712 386 750 q 290 620 311 674 q 268 504 268 567 q 289 389 268 442 q 347 298 310 336 q 437 238 385 260 q 550 217 489 217 l 953 217 l 953 428 l 526 428 l 526 599 l 1169 599 l 1169 0 l 550 0 m 750 1072 l 679 1197 l 667 1197 l 596 1072 l 481 1072 l 597 1258 l 750 1258 l 867 1072 l 750 1072 z "},"Ğ":{"ha":1238,"x_min":51,"x_max":1169,"o":"m 550 0 q 351 40 442 0 q 193 148 260 79 q 89 311 126 217 q 51 515 51 406 q 89 718 51 626 q 193 874 126 810 q 351 974 260 939 q 550 1010 442 1010 l 1107 1010 l 1107 793 l 550 793 q 438 772 489 793 q 349 712 386 750 q 290 620 311 674 q 268 504 268 567 q 289 389 268 442 q 347 298 310 336 q 437 238 385 260 q 550 217 489 217 l 953 217 l 953 428 l 526 428 l 526 599 l 1169 599 l 1169 0 l 550 0 m 636 1072 q 562 1092 592 1072 q 514 1142 532 1113 q 488 1203 496 1171 q 479 1258 479 1235 l 593 1258 q 597 1223 593 1243 q 610 1185 601 1203 q 632 1156 618 1168 q 665 1143 646 1143 l 689 1143 q 721 1156 708 1143 q 740 1185 733 1168 q 750 1223 747 1203 q 753 1258 753 1243 l 869 1258 q 861 1203 869 1235 q 835 1142 853 1171 q 787 1092 817 1113 q 714 1072 757 1072 l 636 1072 z "},"ğ":{"ha":1238,"x_min":51,"x_max":1169,"o":"m 550 0 q 351 40 442 0 q 193 148 260 79 q 89 311 126 217 q 51 515 51 406 q 89 718 51 626 q 193 874 126 810 q 351 974 260 939 q 550 1010 442 1010 l 1107 1010 l 1107 793 l 550 793 q 438 772 489 793 q 349 712 386 750 q 290 620 311 674 q 268 504 268 567 q 289 389 268 442 q 347 298 310 336 q 437 238 385 260 q 550 217 489 217 l 953 217 l 953 428 l 526 428 l 526 599 l 1169 599 l 1169 0 l 550 0 m 636 1072 q 562 1092 592 1072 q 514 1142 532 1113 q 488 1203 496 1171 q 479 1258 479 1235 l 593 1258 q 597 1223 593 1243 q 610 1185 601 1203 q 632 1156 618 1168 q 665 1143 646 1143 l 689 1143 q 721 1156 708 1143 q 740 1185 733 1168 q 750 1223 747 1203 q 753 1258 753 1243 l 869 1258 q 861 1203 869 1235 q 835 1142 853 1171 q 787 1092 817 1113 q 714 1072 757 1072 l 636 1072 z "},"Ġ":{"ha":1238,"x_min":51,"x_max":1169,"o":"m 550 0 q 351 40 442 0 q 193 148 260 79 q 89 311 126 217 q 51 515 51 406 q 89 718 51 626 q 193 874 126 810 q 351 974 260 939 q 550 1010 442 1010 l 1107 1010 l 1107 793 l 550 793 q 438 772 489 793 q 349 712 386 750 q 290 620 311 674 q 268 504 268 567 q 289 389 268 442 q 347 298 310 336 q 437 238 385 260 q 550 217 489 217 l 953 217 l 953 428 l 526 428 l 526 599 l 1169 599 l 1169 0 l 550 0 m 771 1178 q 747 1124 771 1143 q 688 1104 724 1104 q 628 1124 651 1104 q 604 1178 604 1143 q 628 1231 604 1211 q 688 1250 651 1250 q 747 1231 724 1250 q 771 1178 771 1211 z "},"ġ":{"ha":1238,"x_min":51,"x_max":1169,"o":"m 550 0 q 351 40 442 0 q 193 148 260 79 q 89 311 126 217 q 51 515 51 406 q 89 718 51 626 q 193 874 126 810 q 351 974 260 939 q 550 1010 442 1010 l 1107 1010 l 1107 793 l 550 793 q 438 772 489 793 q 349 712 386 750 q 290 620 311 674 q 268 504 268 567 q 289 389 268 442 q 347 298 310 336 q 437 238 385 260 q 550 217 489 217 l 953 217 l 953 428 l 526 428 l 526 599 l 1169 599 l 1169 0 l 550 0 m 771 1178 q 747 1124 771 1143 q 688 1104 724 1104 q 628 1124 651 1104 q 604 1178 604 1143 q 628 1231 604 1211 q 688 1250 651 1250 q 747 1231 724 1250 q 771 1178 771 1211 z "},"Ģ":{"ha":1238,"x_min":51,"x_max":1169,"o":"m 550 0 q 351 40 442 0 q 193 148 260 79 q 89 311 126 217 q 51 515 51 406 q 89 718 51 626 q 193 874 126 810 q 351 974 260 939 q 550 1010 442 1010 l 1107 1010 l 1107 793 l 550 793 q 438 772 489 793 q 349 712 386 750 q 290 620 311 674 q 268 504 268 567 q 289 389 268 442 q 347 298 310 336 q 437 238 385 260 q 550 217 489 217 l 953 217 l 953 428 l 526 428 l 526 599 l 1169 599 l 1169 0 l 550 0 m 526 -65 l 738 -65 l 632 -279 l 526 -65 z "},"ģ":{"ha":1238,"x_min":51,"x_max":1169,"o":"m 550 0 q 351 40 442 0 q 193 148 260 79 q 89 311 126 217 q 51 515 51 406 q 89 718 51 626 q 193 874 126 810 q 351 974 260 939 q 550 1010 442 1010 l 1107 1010 l 1107 793 l 550 793 q 438 772 489 793 q 349 712 386 750 q 290 620 311 674 q 268 504 268 567 q 289 389 268 442 q 347 298 310 336 q 437 238 385 260 q 550 217 489 217 l 953 217 l 953 428 l 526 428 l 526 599 l 1169 599 l 1169 0 l 550 0 m 526 -65 l 738 -65 l 632 -279 l 526 -65 z "},"Ĥ":{"ha":1167,"x_min":81,"x_max":1086,"o":"m 869 -3 l 869 419 l 422 419 l 422 606 l 869 606 l 869 1010 l 1086 1010 l 1086 -3 l 869 -3 m 81 -3 l 81 1010 l 297 1010 l 297 -3 l 81 -3 m 660 1072 l 589 1197 l 576 1197 l 506 1072 l 390 1072 l 507 1258 l 660 1258 l 776 1072 l 660 1072 z "},"ĥ":{"ha":1167,"x_min":81,"x_max":1086,"o":"m 869 -3 l 869 419 l 422 419 l 422 606 l 869 606 l 869 1010 l 1086 1010 l 1086 -3 l 869 -3 m 81 -3 l 81 1010 l 297 1010 l 297 -3 l 81 -3 m 660 1072 l 589 1197 l 576 1197 l 506 1072 l 390 1072 l 507 1258 l 660 1258 l 776 1072 l 660 1072 z "},"Ħ":{"ha":1167,"x_min":81,"x_max":1086,"o":"m 869 -3 l 869 419 l 422 419 l 422 606 l 869 606 l 869 743 l 422 743 l 422 840 l 869 840 l 869 1010 l 1086 1010 l 1086 -3 l 869 -3 m 81 -3 l 81 1010 l 297 1010 l 297 -3 l 81 -3 z "},"ħ":{"ha":1167,"x_min":81,"x_max":1086,"o":"m 869 -3 l 869 419 l 422 419 l 422 606 l 869 606 l 869 743 l 422 743 l 422 840 l 869 840 l 869 1010 l 1086 1010 l 1086 -3 l 869 -3 m 81 -3 l 81 1010 l 297 1010 l 297 -3 l 81 -3 z "},"Ĩ":{"ha":397,"x_min":19,"x_max":381,"o":"m 90 0 l 90 1010 l 307 1010 l 307 0 l 90 0 m 381 1133 q 340 1105 364 1114 q 288 1096 315 1096 q 243 1103 264 1096 q 201 1121 222 1111 q 157 1138 179 1131 q 111 1146 135 1146 q 58 1132 83 1146 q 19 1101 33 1118 l 19 1197 q 111 1236 50 1236 q 157 1228 135 1236 q 200 1210 179 1219 q 242 1193 221 1201 q 288 1185 264 1185 q 342 1199 317 1185 q 381 1231 367 1213 l 381 1133 z "},"ĩ":{"ha":397,"x_min":19,"x_max":381,"o":"m 90 0 l 90 1010 l 307 1010 l 307 0 l 90 0 m 381 1133 q 340 1105 364 1114 q 288 1096 315 1096 q 243 1103 264 1096 q 201 1121 222 1111 q 157 1138 179 1131 q 111 1146 135 1146 q 58 1132 83 1146 q 19 1101 33 1118 l 19 1197 q 111 1236 50 1236 q 157 1228 135 1236 q 200 1210 179 1219 q 242 1193 221 1201 q 288 1185 264 1185 q 342 1199 317 1185 q 381 1231 367 1213 l 381 1133 z "},"Ī":{"ha":397,"x_min":19,"x_max":381,"o":"m 90 0 l 90 1010 l 307 1010 l 307 0 l 90 0 m 19 1118 l 19 1215 l 381 1215 l 381 1118 l 19 1118 z "},"ī":{"ha":397,"x_min":19,"x_max":381,"o":"m 90 0 l 90 1010 l 307 1010 l 307 0 l 90 0 m 19 1118 l 19 1215 l 381 1215 l 381 1118 l 19 1118 z "},"Ĭ":{"ha":397,"x_min":6,"x_max":396,"o":"m 90 0 l 90 1010 l 307 1010 l 307 0 l 90 0 m 163 1072 q 88 1092 118 1072 q 40 1142 58 1113 q 14 1203 22 1171 q 6 1258 6 1235 l 119 1258 q 124 1223 119 1243 q 136 1185 128 1203 q 158 1156 144 1168 q 192 1143 172 1143 l 215 1143 q 247 1156 235 1143 q 267 1185 260 1168 q 276 1223 274 1203 q 279 1258 279 1243 l 396 1258 q 388 1203 396 1235 q 361 1142 379 1171 q 313 1092 343 1113 q 240 1072 283 1072 l 163 1072 z "},"ĭ":{"ha":397,"x_min":6,"x_max":396,"o":"m 90 0 l 90 1010 l 307 1010 l 307 0 l 90 0 m 163 1072 q 88 1092 118 1072 q 40 1142 58 1113 q 14 1203 22 1171 q 6 1258 6 1235 l 119 1258 q 124 1223 119 1243 q 136 1185 128 1203 q 158 1156 144 1168 q 192 1143 172 1143 l 215 1143 q 247 1156 235 1143 q 267 1185 260 1168 q 276 1223 274 1203 q 279 1258 279 1243 l 396 1258 q 388 1203 396 1235 q 361 1142 379 1171 q 313 1092 343 1113 q 240 1072 283 1072 l 163 1072 z "},"Į":{"ha":397,"x_min":42,"x_max":307,"o":"m 186 -279 q 78 -249 115 -279 q 42 -171 42 -219 q 58 -116 42 -143 q 101 -71 74 -89 l 211 0 l 90 0 l 90 1010 l 307 1010 l 307 0 l 196 -76 q 171 -111 171 -93 q 181 -132 171 -124 q 210 -140 192 -140 l 307 -140 l 307 -279 l 186 -279 z "},"į":{"ha":397,"x_min":42,"x_max":307,"o":"m 186 -279 q 78 -249 115 -279 q 42 -171 42 -219 q 58 -116 42 -143 q 101 -71 74 -89 l 211 0 l 90 0 l 90 1010 l 307 1010 l 307 0 l 196 -76 q 171 -111 171 -93 q 181 -132 171 -124 q 210 -140 192 -140 l 307 -140 l 307 -279 l 186 -279 z "},"İ":{"ha":397,"x_min":90,"x_max":307,"o":"m 90 0 l 90 1010 l 307 1010 l 307 0 l 90 0 m 282 1178 q 258 1124 282 1143 q 199 1104 235 1104 q 139 1124 163 1104 q 115 1178 115 1143 q 139 1231 115 1211 q 199 1250 163 1250 q 258 1231 235 1250 q 282 1178 282 1211 z "},"ı":{"ha":397,"x_min":90,"x_max":307,"o":"m 90 0 l 90 1010 l 307 1010 l 307 0 l 90 0 z "},"Ĳ":{"ha":1382,"x_min":90,"x_max":1317,"o":"m 90 0 l 90 1010 l 307 1010 l 307 0 l 90 0 m 424 0 l 424 217 l 799 217 q 1031 274 961 217 q 1100 460 1100 332 l 1100 1010 l 1317 1010 l 1317 460 q 1192 113 1317 225 q 799 0 1067 0 l 424 0 z "},"ĳ":{"ha":1382,"x_min":90,"x_max":1317,"o":"m 90 0 l 90 1010 l 307 1010 l 307 0 l 90 0 m 424 0 l 424 217 l 799 217 q 1031 274 961 217 q 1100 460 1100 332 l 1100 1010 l 1317 1010 l 1317 460 q 1192 113 1317 225 q 799 0 1067 0 l 424 0 z "},"Ĵ":{"ha":985,"x_min":26,"x_max":919,"o":"m 26 0 l 26 217 l 401 217 q 633 274 564 217 q 703 460 703 332 l 703 1010 l 919 1010 l 919 460 q 794 113 919 225 q 401 0 669 0 l 26 0 m 796 1072 l 725 1197 l 713 1197 l 642 1072 l 526 1072 l 643 1258 l 796 1258 l 913 1072 l 796 1072 z "},"ĵ":{"ha":985,"x_min":26,"x_max":919,"o":"m 26 0 l 26 217 l 401 217 q 633 274 564 217 q 703 460 703 332 l 703 1010 l 919 1010 l 919 460 q 794 113 919 225 q 401 0 669 0 l 26 0 m 796 1072 l 725 1197 l 713 1197 l 642 1072 l 526 1072 l 643 1258 l 796 1258 l 913 1072 l 796 1072 z "},"Ķ":{"ha":1238,"x_min":81,"x_max":1218,"o":"m 894 0 l 399 428 q 363 472 371 451 q 354 517 354 493 q 365 567 354 546 q 408 615 376 588 l 875 1010 l 1199 1010 l 599 515 l 1218 0 l 894 0 m 81 0 l 81 1010 l 297 1010 l 297 0 l 81 0 m 513 -65 l 724 -65 l 618 -279 l 513 -65 z "},"ķ":{"ha":1238,"x_min":81,"x_max":1218,"o":"m 894 0 l 399 428 q 363 472 371 451 q 354 517 354 493 q 365 567 354 546 q 408 615 376 588 l 875 1010 l 1199 1010 l 599 515 l 1218 0 l 894 0 m 81 0 l 81 1010 l 297 1010 l 297 0 l 81 0 m 513 -65 l 724 -65 l 618 -279 l 513 -65 z "},"Ĺ":{"ha":982,"x_min":57,"x_max":950,"o":"m 81 0 l 81 1010 l 297 1010 l 297 217 l 950 217 l 950 0 l 81 0 m 57 1072 l 57 1168 l 418 1258 l 418 1126 l 57 1072 z "},"ĺ":{"ha":982,"x_min":57,"x_max":950,"o":"m 81 0 l 81 1010 l 297 1010 l 297 217 l 950 217 l 950 0 l 81 0 m 57 1072 l 57 1168 l 418 1258 l 418 1126 l 57 1072 z "},"Ļ":{"ha":982,"x_min":81,"x_max":950,"o":"m 81 0 l 81 1010 l 297 1010 l 297 217 l 950 217 l 950 0 l 81 0 m 413 -65 l 624 -65 l 518 -279 l 413 -65 z "},"ļ":{"ha":982,"x_min":81,"x_max":950,"o":"m 81 0 l 81 1010 l 297 1010 l 297 217 l 950 217 l 950 0 l 81 0 m 413 -65 l 624 -65 l 518 -279 l 413 -65 z "},"Ľ":{"ha":982,"x_min":81,"x_max":950,"o":"m 81 0 l 81 1010 l 297 1010 l 297 217 l 950 217 l 950 0 l 81 0 m 454 629 l 454 1010 l 672 1010 l 593 629 l 454 629 z "},"ľ":{"ha":982,"x_min":81,"x_max":950,"o":"m 81 0 l 81 1010 l 297 1010 l 297 217 l 950 217 l 950 0 l 81 0 m 454 629 l 454 1010 l 672 1010 l 593 629 l 454 629 z "},"Ŀ":{"ha":982,"x_min":81,"x_max":950,"o":"m 81 0 l 81 1010 l 297 1010 l 297 217 l 950 217 l 950 0 l 81 0 m 578 571 q 554 517 578 536 q 494 497 531 497 q 435 517 458 497 q 411 571 411 536 q 435 624 411 604 q 494 643 458 643 q 554 624 531 643 q 578 571 578 604 z "},"ŀ":{"ha":982,"x_min":81,"x_max":950,"o":"m 81 0 l 81 1010 l 297 1010 l 297 217 l 950 217 l 950 0 l 81 0 m 578 571 q 554 517 578 536 q 494 497 531 497 q 435 517 458 497 q 411 571 411 536 q 435 624 411 604 q 494 643 458 643 q 554 624 531 643 q 578 571 578 604 z "},"Ł":{"ha":982,"x_min":81,"x_max":950,"o":"m 81 0 l 81 1010 l 297 1010 l 297 594 l 647 742 l 647 554 l 297 407 l 297 217 l 950 217 l 950 0 l 81 0 z "},"ł":{"ha":982,"x_min":81,"x_max":950,"o":"m 81 0 l 81 1010 l 297 1010 l 297 594 l 647 742 l 647 554 l 297 407 l 297 217 l 950 217 l 950 0 l 81 0 z "},"Ń":{"ha":1217,"x_min":76,"x_max":1140,"o":"m 282 672 l 282 0 l 76 0 l 76 894 q 106 988 76 954 q 185 1022 135 1022 q 228 1013 208 1022 q 272 982 249 1004 l 933 347 l 933 1019 l 1140 1019 l 1140 115 q 1110 19 1140 53 q 1032 -14 1081 -14 q 943 28 985 -14 l 282 672 m 469 1072 l 469 1168 l 831 1258 l 831 1126 l 469 1072 z "},"ń":{"ha":1217,"x_min":76,"x_max":1140,"o":"m 282 672 l 282 0 l 76 0 l 76 894 q 106 988 76 954 q 185 1022 135 1022 q 228 1013 208 1022 q 272 982 249 1004 l 933 347 l 933 1019 l 1140 1019 l 1140 115 q 1110 19 1140 53 q 1032 -14 1081 -14 q 943 28 985 -14 l 282 672 m 469 1072 l 469 1168 l 831 1258 l 831 1126 l 469 1072 z "},"Ņ":{"ha":1217,"x_min":76,"x_max":1140,"o":"m 282 672 l 282 0 l 76 0 l 76 894 q 106 988 76 954 q 185 1022 135 1022 q 228 1013 208 1022 q 272 982 249 1004 l 933 347 l 933 1019 l 1140 1019 l 1140 115 q 1110 19 1140 53 q 1032 -14 1081 -14 q 943 28 985 -14 l 282 672 m 517 -65 l 728 -65 l 622 -279 l 517 -65 z "},"ņ":{"ha":1217,"x_min":76,"x_max":1140,"o":"m 282 672 l 282 0 l 76 0 l 76 894 q 106 988 76 954 q 185 1022 135 1022 q 228 1013 208 1022 q 272 982 249 1004 l 933 347 l 933 1019 l 1140 1019 l 1140 115 q 1110 19 1140 53 q 1032 -14 1081 -14 q 943 28 985 -14 l 282 672 m 517 -65 l 728 -65 l 622 -279 l 517 -65 z "},"Ň":{"ha":1217,"x_min":76,"x_max":1140,"o":"m 282 672 l 282 0 l 76 0 l 76 894 q 106 988 76 954 q 185 1022 135 1022 q 228 1013 208 1022 q 272 982 249 1004 l 933 347 l 933 1019 l 1140 1019 l 1140 115 q 1110 19 1140 53 q 1032 -14 1081 -14 q 943 28 985 -14 l 282 672 m 531 1072 l 415 1258 l 531 1258 l 601 1131 l 614 1131 l 685 1258 l 801 1258 l 683 1072 l 531 1072 z "},"ň":{"ha":1217,"x_min":76,"x_max":1140,"o":"m 282 672 l 282 0 l 76 0 l 76 894 q 106 988 76 954 q 185 1022 135 1022 q 228 1013 208 1022 q 272 982 249 1004 l 933 347 l 933 1019 l 1140 1019 l 1140 115 q 1110 19 1140 53 q 1032 -14 1081 -14 q 943 28 985 -14 l 282 672 m 531 1072 l 415 1258 l 531 1258 l 601 1131 l 614 1131 l 685 1258 l 801 1258 l 683 1072 l 531 1072 z "},"Ŋ":{"ha":1217,"x_min":76,"x_max":1140,"o":"m 500 -279 l 500 -62 l 622 -62 q 810 -33 740 -62 q 910 60 881 -4 l 282 672 l 282 0 l 76 0 l 76 894 q 106 988 76 954 q 185 1022 135 1022 q 228 1013 208 1022 q 272 982 249 1004 l 933 347 l 933 1019 l 1140 1019 l 1140 115 q 1104 -57 1140 17 q 1000 -180 1068 -131 q 836 -254 932 -229 q 622 -279 740 -279 l 500 -279 z "},"ŋ":{"ha":1217,"x_min":76,"x_max":1140,"o":"m 500 -279 l 500 -62 l 622 -62 q 810 -33 740 -62 q 910 60 881 -4 l 282 672 l 282 0 l 76 0 l 76 894 q 106 988 76 954 q 185 1022 135 1022 q 228 1013 208 1022 q 272 982 249 1004 l 933 347 l 933 1019 l 1140 1019 l 1140 115 q 1104 -57 1140 17 q 1000 -180 1068 -131 q 836 -254 932 -229 q 622 -279 740 -279 l 500 -279 z "},"Ō":{"ha":1351,"x_min":51,"x_max":1303,"o":"m 550 0 q 351 40 442 0 q 193 148 260 79 q 89 311 126 217 q 51 515 51 406 q 89 718 51 626 q 193 874 126 810 q 351 974 260 939 q 550 1010 442 1010 l 800 1010 q 1003 974 911 1010 q 1163 872 1096 938 q 1266 716 1229 807 q 1303 515 1303 625 q 1265 311 1303 406 q 1161 148 1228 217 q 1002 40 1094 79 q 800 0 910 0 l 550 0 m 800 217 q 915 238 863 217 q 1006 298 968 260 q 1065 389 1044 336 q 1086 504 1086 442 q 1065 620 1086 567 q 1006 712 1044 674 q 915 772 968 750 q 800 793 863 793 l 550 793 q 438 772 489 793 q 349 712 386 750 q 290 620 311 674 q 268 504 268 567 q 289 389 268 442 q 347 298 310 336 q 437 238 385 260 q 550 217 489 217 l 800 217 m 494 1118 l 494 1215 l 856 1215 l 856 1118 l 494 1118 z "},"ō":{"ha":1351,"x_min":51,"x_max":1303,"o":"m 550 0 q 351 40 442 0 q 193 148 260 79 q 89 311 126 217 q 51 515 51 406 q 89 718 51 626 q 193 874 126 810 q 351 974 260 939 q 550 1010 442 1010 l 800 1010 q 1003 974 911 1010 q 1163 872 1096 938 q 1266 716 1229 807 q 1303 515 1303 625 q 1265 311 1303 406 q 1161 148 1228 217 q 1002 40 1094 79 q 800 0 910 0 l 550 0 m 800 217 q 915 238 863 217 q 1006 298 968 260 q 1065 389 1044 336 q 1086 504 1086 442 q 1065 620 1086 567 q 1006 712 1044 674 q 915 772 968 750 q 800 793 863 793 l 550 793 q 438 772 489 793 q 349 712 386 750 q 290 620 311 674 q 268 504 268 567 q 289 389 268 442 q 347 298 310 336 q 437 238 385 260 q 550 217 489 217 l 800 217 m 494 1118 l 494 1215 l 856 1215 l 856 1118 l 494 1118 z "},"Ŏ":{"ha":1351,"x_min":51,"x_max":1303,"o":"m 550 0 q 351 40 442 0 q 193 148 260 79 q 89 311 126 217 q 51 515 51 406 q 89 718 51 626 q 193 874 126 810 q 351 974 260 939 q 550 1010 442 1010 l 800 1010 q 1003 974 911 1010 q 1163 872 1096 938 q 1266 716 1229 807 q 1303 515 1303 625 q 1265 311 1303 406 q 1161 148 1228 217 q 1002 40 1094 79 q 800 0 910 0 l 550 0 m 800 217 q 915 238 863 217 q 1006 298 968 260 q 1065 389 1044 336 q 1086 504 1086 442 q 1065 620 1086 567 q 1006 712 1044 674 q 915 772 968 750 q 800 793 863 793 l 550 793 q 438 772 489 793 q 349 712 386 750 q 290 620 311 674 q 268 504 268 567 q 289 389 268 442 q 347 298 310 336 q 437 238 385 260 q 550 217 489 217 l 800 217 m 638 1072 q 563 1092 593 1072 q 515 1142 533 1113 q 489 1203 497 1171 q 481 1258 481 1235 l 594 1258 q 599 1223 594 1243 q 611 1185 603 1203 q 633 1156 619 1168 q 667 1143 647 1143 l 690 1143 q 722 1156 710 1143 q 742 1185 735 1168 q 751 1223 749 1203 q 754 1258 754 1243 l 871 1258 q 863 1203 871 1235 q 836 1142 854 1171 q 788 1092 818 1113 q 715 1072 758 1072 l 638 1072 z "},"ŏ":{"ha":1351,"x_min":51,"x_max":1303,"o":"m 550 0 q 351 40 442 0 q 193 148 260 79 q 89 311 126 217 q 51 515 51 406 q 89 718 51 626 q 193 874 126 810 q 351 974 260 939 q 550 1010 442 1010 l 800 1010 q 1003 974 911 1010 q 1163 872 1096 938 q 1266 716 1229 807 q 1303 515 1303 625 q 1265 311 1303 406 q 1161 148 1228 217 q 1002 40 1094 79 q 800 0 910 0 l 550 0 m 800 217 q 915 238 863 217 q 1006 298 968 260 q 1065 389 1044 336 q 1086 504 1086 442 q 1065 620 1086 567 q 1006 712 1044 674 q 915 772 968 750 q 800 793 863 793 l 550 793 q 438 772 489 793 q 349 712 386 750 q 290 620 311 674 q 268 504 268 567 q 289 389 268 442 q 347 298 310 336 q 437 238 385 260 q 550 217 489 217 l 800 217 m 638 1072 q 563 1092 593 1072 q 515 1142 533 1113 q 489 1203 497 1171 q 481 1258 481 1235 l 594 1258 q 599 1223 594 1243 q 611 1185 603 1203 q 633 1156 619 1168 q 667 1143 647 1143 l 690 1143 q 722 1156 710 1143 q 742 1185 735 1168 q 751 1223 749 1203 q 754 1258 754 1243 l 871 1258 q 863 1203 871 1235 q 836 1142 854 1171 q 788 1092 818 1113 q 715 1072 758 1072 l 638 1072 z "},"Ő":{"ha":1351,"x_min":51,"x_max":1303,"o":"m 550 0 q 351 40 442 0 q 193 148 260 79 q 89 311 126 217 q 51 515 51 406 q 89 718 51 626 q 193 874 126 810 q 351 974 260 939 q 550 1010 442 1010 l 800 1010 q 1003 974 911 1010 q 1163 872 1096 938 q 1266 716 1229 807 q 1303 515 1303 625 q 1265 311 1303 406 q 1161 148 1228 217 q 1002 40 1094 79 q 800 0 910 0 l 550 0 m 800 217 q 915 238 863 217 q 1006 298 968 260 q 1065 389 1044 336 q 1086 504 1086 442 q 1065 620 1086 567 q 1006 712 1044 674 q 915 772 968 750 q 800 793 863 793 l 550 793 q 438 772 489 793 q 349 712 386 750 q 290 620 311 674 q 268 504 268 567 q 289 389 268 442 q 347 298 310 336 q 437 238 385 260 q 550 217 489 217 l 800 217 m 756 1085 l 817 1258 l 963 1258 l 844 1085 l 756 1085 m 532 1085 l 593 1258 l 739 1258 l 619 1085 l 532 1085 z "},"ő":{"ha":1351,"x_min":51,"x_max":1303,"o":"m 550 0 q 351 40 442 0 q 193 148 260 79 q 89 311 126 217 q 51 515 51 406 q 89 718 51 626 q 193 874 126 810 q 351 974 260 939 q 550 1010 442 1010 l 800 1010 q 1003 974 911 1010 q 1163 872 1096 938 q 1266 716 1229 807 q 1303 515 1303 625 q 1265 311 1303 406 q 1161 148 1228 217 q 1002 40 1094 79 q 800 0 910 0 l 550 0 m 800 217 q 915 238 863 217 q 1006 298 968 260 q 1065 389 1044 336 q 1086 504 1086 442 q 1065 620 1086 567 q 1006 712 1044 674 q 915 772 968 750 q 800 793 863 793 l 550 793 q 438 772 489 793 q 349 712 386 750 q 290 620 311 674 q 268 504 268 567 q 289 389 268 442 q 347 298 310 336 q 437 238 385 260 q 550 217 489 217 l 800 217 m 756 1085 l 817 1258 l 963 1258 l 844 1085 l 756 1085 m 532 1085 l 593 1258 l 739 1258 l 619 1085 l 532 1085 z "},"Œ":{"ha":1815,"x_min":51,"x_max":1758,"o":"m 550 0 q 351 40 442 0 q 193 148 260 79 q 89 311 126 217 q 51 515 51 406 q 89 718 51 626 q 193 874 126 810 q 351 974 260 939 q 550 1010 442 1010 l 1756 1010 l 1756 793 l 1088 793 l 1088 217 l 1758 217 l 1758 0 l 550 0 m 1213 428 l 1213 599 l 1717 599 l 1717 428 l 1213 428 m 871 793 l 550 793 q 438 772 489 793 q 349 712 386 750 q 290 620 311 674 q 268 504 268 567 q 289 389 268 442 q 347 298 310 336 q 437 238 385 260 q 550 217 489 217 l 871 217 l 871 793 z "},"œ":{"ha":1815,"x_min":51,"x_max":1758,"o":"m 550 0 q 351 40 442 0 q 193 148 260 79 q 89 311 126 217 q 51 515 51 406 q 89 718 51 626 q 193 874 126 810 q 351 974 260 939 q 550 1010 442 1010 l 1756 1010 l 1756 793 l 1088 793 l 1088 217 l 1758 217 l 1758 0 l 550 0 m 1213 428 l 1213 599 l 1717 599 l 1717 428 l 1213 428 m 871 793 l 550 793 q 438 772 489 793 q 349 712 386 750 q 290 620 311 674 q 268 504 268 567 q 289 389 268 442 q 347 298 310 336 q 437 238 385 260 q 550 217 489 217 l 871 217 l 871 793 z "},"Ŕ":{"ha":1286,"x_min":81,"x_max":1289,"o":"m 982 0 l 736 275 l 422 275 l 422 460 l 814 460 q 935 504 893 460 q 978 629 978 549 q 935 751 978 710 q 814 793 893 793 l 296 793 l 296 0 l 81 0 l 81 1010 l 814 1010 q 972 983 903 1010 q 1090 908 1042 957 q 1165 790 1139 860 q 1190 635 1190 721 q 1136 425 1190 508 q 986 304 1082 342 l 1289 0 l 982 0 m 435 1072 l 435 1168 l 796 1258 l 796 1126 l 435 1072 z "},"ŕ":{"ha":1286,"x_min":81,"x_max":1289,"o":"m 982 0 l 736 275 l 422 275 l 422 460 l 814 460 q 935 504 893 460 q 978 629 978 549 q 935 751 978 710 q 814 793 893 793 l 296 793 l 296 0 l 81 0 l 81 1010 l 814 1010 q 972 983 903 1010 q 1090 908 1042 957 q 1165 790 1139 860 q 1190 635 1190 721 q 1136 425 1190 508 q 986 304 1082 342 l 1289 0 l 982 0 m 435 1072 l 435 1168 l 796 1258 l 796 1126 l 435 1072 z "},"Ŗ":{"ha":1286,"x_min":81,"x_max":1289,"o":"m 982 0 l 736 275 l 422 275 l 422 460 l 814 460 q 935 504 893 460 q 978 629 978 549 q 935 751 978 710 q 814 793 893 793 l 296 793 l 296 0 l 81 0 l 81 1010 l 814 1010 q 972 983 903 1010 q 1090 908 1042 957 q 1165 790 1139 860 q 1190 635 1190 721 q 1136 425 1190 508 q 986 304 1082 342 l 1289 0 l 982 0 m 538 -65 l 749 -65 l 643 -279 l 538 -65 z "},"ŗ":{"ha":1286,"x_min":81,"x_max":1289,"o":"m 982 0 l 736 275 l 422 275 l 422 460 l 814 460 q 935 504 893 460 q 978 629 978 549 q 935 751 978 710 q 814 793 893 793 l 296 793 l 296 0 l 81 0 l 81 1010 l 814 1010 q 972 983 903 1010 q 1090 908 1042 957 q 1165 790 1139 860 q 1190 635 1190 721 q 1136 425 1190 508 q 986 304 1082 342 l 1289 0 l 982 0 m 538 -65 l 749 -65 l 643 -279 l 538 -65 z "},"Ř":{"ha":1286,"x_min":81,"x_max":1289,"o":"m 982 0 l 736 275 l 422 275 l 422 460 l 814 460 q 935 504 893 460 q 978 629 978 549 q 935 751 978 710 q 814 793 893 793 l 296 793 l 296 0 l 81 0 l 81 1010 l 814 1010 q 972 983 903 1010 q 1090 908 1042 957 q 1165 790 1139 860 q 1190 635 1190 721 q 1136 425 1190 508 q 986 304 1082 342 l 1289 0 l 982 0 m 510 1072 l 394 1258 l 510 1258 l 581 1131 l 593 1131 l 664 1258 l 781 1258 l 663 1072 l 510 1072 z "},"ř":{"ha":1286,"x_min":81,"x_max":1289,"o":"m 982 0 l 736 275 l 422 275 l 422 460 l 814 460 q 935 504 893 460 q 978 629 978 549 q 935 751 978 710 q 814 793 893 793 l 296 793 l 296 0 l 81 0 l 81 1010 l 814 1010 q 972 983 903 1010 q 1090 908 1042 957 q 1165 790 1139 860 q 1190 635 1190 721 q 1136 425 1190 508 q 986 304 1082 342 l 1289 0 l 982 0 m 510 1072 l 394 1258 l 510 1258 l 581 1131 l 593 1131 l 664 1258 l 781 1258 l 663 1072 l 510 1072 z "},"Ś":{"ha":1226,"x_min":65,"x_max":1169,"o":"m 81 0 l 81 217 l 843 217 q 933 244 901 217 q 965 321 965 272 q 933 400 965 372 q 843 428 901 428 l 386 428 q 252 449 311 428 q 151 509 193 471 q 88 601 110 547 q 65 718 65 654 q 86 834 65 781 q 148 926 107 888 q 249 988 189 965 q 389 1010 310 1010 l 1119 1010 l 1119 793 l 389 793 q 317 768 343 793 q 290 696 290 743 q 317 624 290 649 q 389 599 344 599 l 843 599 q 1086 526 1003 599 q 1169 303 1169 454 q 1149 182 1169 238 q 1088 86 1129 126 q 986 23 1047 46 q 843 0 925 0 l 81 0 m 474 1072 l 474 1168 l 835 1258 l 835 1126 l 474 1072 z "},"ś":{"ha":1226,"x_min":65,"x_max":1169,"o":"m 81 0 l 81 217 l 843 217 q 933 244 901 217 q 965 321 965 272 q 933 400 965 372 q 843 428 901 428 l 386 428 q 252 449 311 428 q 151 509 193 471 q 88 601 110 547 q 65 718 65 654 q 86 834 65 781 q 148 926 107 888 q 249 988 189 965 q 389 1010 310 1010 l 1119 1010 l 1119 793 l 389 793 q 317 768 343 793 q 290 696 290 743 q 317 624 290 649 q 389 599 344 599 l 843 599 q 1086 526 1003 599 q 1169 303 1169 454 q 1149 182 1169 238 q 1088 86 1129 126 q 986 23 1047 46 q 843 0 925 0 l 81 0 m 474 1072 l 474 1168 l 835 1258 l 835 1126 l 474 1072 z "},"Ŝ":{"ha":1226,"x_min":65,"x_max":1169,"o":"m 81 0 l 81 217 l 843 217 q 933 244 901 217 q 965 321 965 272 q 933 400 965 372 q 843 428 901 428 l 386 428 q 252 449 311 428 q 151 509 193 471 q 88 601 110 547 q 65 718 65 654 q 86 834 65 781 q 148 926 107 888 q 249 988 189 965 q 389 1010 310 1010 l 1119 1010 l 1119 793 l 389 793 q 317 768 343 793 q 290 696 290 743 q 317 624 290 649 q 389 599 344 599 l 843 599 q 1086 526 1003 599 q 1169 303 1169 454 q 1149 182 1169 238 q 1088 86 1129 126 q 986 23 1047 46 q 843 0 925 0 l 81 0 m 703 1072 l 632 1197 l 619 1197 l 549 1072 l 433 1072 l 550 1258 l 703 1258 l 819 1072 l 703 1072 z "},"ŝ":{"ha":1226,"x_min":65,"x_max":1169,"o":"m 81 0 l 81 217 l 843 217 q 933 244 901 217 q 965 321 965 272 q 933 400 965 372 q 843 428 901 428 l 386 428 q 252 449 311 428 q 151 509 193 471 q 88 601 110 547 q 65 718 65 654 q 86 834 65 781 q 148 926 107 888 q 249 988 189 965 q 389 1010 310 1010 l 1119 1010 l 1119 793 l 389 793 q 317 768 343 793 q 290 696 290 743 q 317 624 290 649 q 389 599 344 599 l 843 599 q 1086 526 1003 599 q 1169 303 1169 454 q 1149 182 1169 238 q 1088 86 1129 126 q 986 23 1047 46 q 843 0 925 0 l 81 0 m 703 1072 l 632 1197 l 619 1197 l 549 1072 l 433 1072 l 550 1258 l 703 1258 l 819 1072 l 703 1072 z "},"Ş":{"ha":1226,"x_min":65,"x_max":1169,"o":"m 81 0 l 81 217 l 843 217 q 933 244 901 217 q 965 321 965 272 q 933 400 965 372 q 843 428 901 428 l 386 428 q 252 449 311 428 q 151 509 193 471 q 88 601 110 547 q 65 718 65 654 q 86 834 65 781 q 148 926 107 888 q 249 988 189 965 q 389 1010 310 1010 l 1119 1010 l 1119 793 l 389 793 q 317 768 343 793 q 290 696 290 743 q 317 624 290 649 q 389 599 344 599 l 843 599 q 1086 526 1003 599 q 1169 303 1169 454 q 1149 182 1169 238 q 1088 86 1129 126 q 986 23 1047 46 q 843 0 925 0 l 81 0 m 493 -65 l 704 -65 l 599 -279 l 493 -65 z "},"ş":{"ha":1226,"x_min":65,"x_max":1169,"o":"m 81 0 l 81 217 l 843 217 q 933 244 901 217 q 965 321 965 272 q 933 400 965 372 q 843 428 901 428 l 386 428 q 252 449 311 428 q 151 509 193 471 q 88 601 110 547 q 65 718 65 654 q 86 834 65 781 q 148 926 107 888 q 249 988 189 965 q 389 1010 310 1010 l 1119 1010 l 1119 793 l 389 793 q 317 768 343 793 q 290 696 290 743 q 317 624 290 649 q 389 599 344 599 l 843 599 q 1086 526 1003 599 q 1169 303 1169 454 q 1149 182 1169 238 q 1088 86 1129 126 q 986 23 1047 46 q 843 0 925 0 l 81 0 m 493 -65 l 704 -65 l 599 -279 l 493 -65 z "},"Š":{"ha":1226,"x_min":65,"x_max":1169,"o":"m 81 0 l 81 217 l 843 217 q 933 244 901 217 q 965 321 965 272 q 933 400 965 372 q 843 428 901 428 l 386 428 q 252 449 311 428 q 151 509 193 471 q 88 601 110 547 q 65 718 65 654 q 86 834 65 781 q 148 926 107 888 q 249 988 189 965 q 389 1010 310 1010 l 1119 1010 l 1119 793 l 389 793 q 317 768 343 793 q 290 696 290 743 q 317 624 290 649 q 389 599 344 599 l 843 599 q 1086 526 1003 599 q 1169 303 1169 454 q 1149 182 1169 238 q 1088 86 1129 126 q 986 23 1047 46 q 843 0 925 0 l 81 0 m 556 1072 l 440 1258 l 556 1258 l 626 1131 l 639 1131 l 710 1258 l 826 1258 l 708 1072 l 556 1072 z "},"š":{"ha":1226,"x_min":65,"x_max":1169,"o":"m 81 0 l 81 217 l 843 217 q 933 244 901 217 q 965 321 965 272 q 933 400 965 372 q 843 428 901 428 l 386 428 q 252 449 311 428 q 151 509 193 471 q 88 601 110 547 q 65 718 65 654 q 86 834 65 781 q 148 926 107 888 q 249 988 189 965 q 389 1010 310 1010 l 1119 1010 l 1119 793 l 389 793 q 317 768 343 793 q 290 696 290 743 q 317 624 290 649 q 389 599 344 599 l 843 599 q 1086 526 1003 599 q 1169 303 1169 454 q 1149 182 1169 238 q 1088 86 1129 126 q 986 23 1047 46 q 843 0 925 0 l 81 0 m 556 1072 l 440 1258 l 556 1258 l 626 1131 l 639 1131 l 710 1258 l 826 1258 l 708 1072 l 556 1072 z "},"Ţ":{"ha":1001,"x_min":21,"x_max":979,"o":"m 392 0 l 392 793 l 21 793 l 21 1010 l 979 1010 l 979 793 l 608 793 l 608 0 l 392 0 m 394 -65 l 606 -65 l 500 -279 l 394 -65 z "},"ţ":{"ha":1001,"x_min":21,"x_max":979,"o":"m 392 0 l 392 793 l 21 793 l 21 1010 l 979 1010 l 979 793 l 608 793 l 608 0 l 392 0 m 394 -65 l 606 -65 l 500 -279 l 394 -65 z "},"Ť":{"ha":1001,"x_min":21,"x_max":979,"o":"m 392 0 l 392 793 l 21 793 l 21 1010 l 979 1010 l 979 793 l 608 793 l 608 0 l 392 0 m 422 1072 l 307 1258 l 422 1258 l 493 1131 l 506 1131 l 576 1258 l 693 1258 l 575 1072 l 422 1072 z "},"ť":{"ha":1001,"x_min":21,"x_max":979,"o":"m 392 0 l 392 793 l 21 793 l 21 1010 l 979 1010 l 979 793 l 608 793 l 608 0 l 392 0 m 422 1072 l 307 1258 l 422 1258 l 493 1131 l 506 1131 l 576 1258 l 693 1258 l 575 1072 l 422 1072 z "},"Ŧ":{"ha":1001,"x_min":21,"x_max":979,"o":"m 392 0 l 392 344 l 233 344 l 233 488 l 392 488 l 392 793 l 21 793 l 21 1010 l 979 1010 l 979 793 l 608 793 l 608 488 l 767 488 l 767 344 l 608 344 l 608 0 l 392 0 z "},"ŧ":{"ha":1001,"x_min":21,"x_max":979,"o":"m 392 0 l 392 344 l 233 344 l 233 488 l 392 488 l 392 793 l 21 793 l 21 1010 l 979 1010 l 979 793 l 608 793 l 608 488 l 767 488 l 767 344 l 608 344 l 608 0 l 392 0 z "},"Ũ":{"ha":1239,"x_min":65,"x_max":1174,"o":"m 963 1010 l 1174 1010 l 1174 446 q 1143 242 1174 329 q 1046 99 1113 156 q 874 14 979 42 q 619 -14 768 -14 q 366 14 471 -14 q 194 99 261 42 q 97 242 128 156 q 65 446 65 329 l 65 1010 l 289 1010 l 289 446 q 305 332 289 379 q 360 255 321 285 q 463 212 399 225 q 626 199 528 199 q 788 212 724 199 q 892 255 853 225 q 947 332 931 285 q 963 446 963 379 l 963 1010 m 800 1133 q 759 1105 783 1114 q 707 1096 735 1096 q 663 1103 683 1096 q 620 1121 642 1111 q 576 1138 599 1131 q 531 1146 554 1146 q 478 1132 503 1146 q 439 1101 453 1118 l 439 1197 q 531 1236 469 1236 q 576 1228 554 1236 q 619 1210 599 1219 q 662 1193 640 1201 q 707 1185 683 1185 q 761 1199 736 1185 q 800 1231 786 1213 l 800 1133 z "},"ũ":{"ha":1239,"x_min":65,"x_max":1174,"o":"m 963 1010 l 1174 1010 l 1174 446 q 1143 242 1174 329 q 1046 99 1113 156 q 874 14 979 42 q 619 -14 768 -14 q 366 14 471 -14 q 194 99 261 42 q 97 242 128 156 q 65 446 65 329 l 65 1010 l 289 1010 l 289 446 q 305 332 289 379 q 360 255 321 285 q 463 212 399 225 q 626 199 528 199 q 788 212 724 199 q 892 255 853 225 q 947 332 931 285 q 963 446 963 379 l 963 1010 m 800 1133 q 759 1105 783 1114 q 707 1096 735 1096 q 663 1103 683 1096 q 620 1121 642 1111 q 576 1138 599 1131 q 531 1146 554 1146 q 478 1132 503 1146 q 439 1101 453 1118 l 439 1197 q 531 1236 469 1236 q 576 1228 554 1236 q 619 1210 599 1219 q 662 1193 640 1201 q 707 1185 683 1185 q 761 1199 736 1185 q 800 1231 786 1213 l 800 1133 z "},"Ū":{"ha":1239,"x_min":65,"x_max":1174,"o":"m 963 1010 l 1174 1010 l 1174 446 q 1143 242 1174 329 q 1046 99 1113 156 q 874 14 979 42 q 619 -14 768 -14 q 366 14 471 -14 q 194 99 261 42 q 97 242 128 156 q 65 446 65 329 l 65 1010 l 289 1010 l 289 446 q 305 332 289 379 q 360 255 321 285 q 463 212 399 225 q 626 199 528 199 q 788 212 724 199 q 892 255 853 225 q 947 332 931 285 q 963 446 963 379 l 963 1010 m 439 1118 l 439 1215 l 800 1215 l 800 1118 l 439 1118 z "},"ū":{"ha":1239,"x_min":65,"x_max":1174,"o":"m 963 1010 l 1174 1010 l 1174 446 q 1143 242 1174 329 q 1046 99 1113 156 q 874 14 979 42 q 619 -14 768 -14 q 366 14 471 -14 q 194 99 261 42 q 97 242 128 156 q 65 446 65 329 l 65 1010 l 289 1010 l 289 446 q 305 332 289 379 q 360 255 321 285 q 463 212 399 225 q 626 199 528 199 q 788 212 724 199 q 892 255 853 225 q 947 332 931 285 q 963 446 963 379 l 963 1010 m 439 1118 l 439 1215 l 800 1215 l 800 1118 l 439 1118 z "},"Ŭ":{"ha":1239,"x_min":65,"x_max":1174,"o":"m 963 1010 l 1174 1010 l 1174 446 q 1143 242 1174 329 q 1046 99 1113 156 q 874 14 979 42 q 619 -14 768 -14 q 366 14 471 -14 q 194 99 261 42 q 97 242 128 156 q 65 446 65 329 l 65 1010 l 289 1010 l 289 446 q 305 332 289 379 q 360 255 321 285 q 463 212 399 225 q 626 199 528 199 q 788 212 724 199 q 892 255 853 225 q 947 332 931 285 q 963 446 963 379 l 963 1010 m 581 1072 q 506 1092 536 1072 q 458 1142 476 1113 q 432 1203 440 1171 q 424 1258 424 1235 l 538 1258 q 542 1223 538 1243 q 554 1185 546 1203 q 576 1156 563 1168 q 610 1143 590 1143 l 633 1143 q 665 1156 653 1143 q 685 1185 678 1168 q 694 1223 692 1203 q 697 1258 697 1243 l 814 1258 q 806 1203 814 1235 q 779 1142 797 1171 q 731 1092 761 1113 q 658 1072 701 1072 l 581 1072 z "},"ŭ":{"ha":1239,"x_min":65,"x_max":1174,"o":"m 963 1010 l 1174 1010 l 1174 446 q 1143 242 1174 329 q 1046 99 1113 156 q 874 14 979 42 q 619 -14 768 -14 q 366 14 471 -14 q 194 99 261 42 q 97 242 128 156 q 65 446 65 329 l 65 1010 l 289 1010 l 289 446 q 305 332 289 379 q 360 255 321 285 q 463 212 399 225 q 626 199 528 199 q 788 212 724 199 q 892 255 853 225 q 947 332 931 285 q 963 446 963 379 l 963 1010 m 581 1072 q 506 1092 536 1072 q 458 1142 476 1113 q 432 1203 440 1171 q 424 1258 424 1235 l 538 1258 q 542 1223 538 1243 q 554 1185 546 1203 q 576 1156 563 1168 q 610 1143 590 1143 l 633 1143 q 665 1156 653 1143 q 685 1185 678 1168 q 694 1223 692 1203 q 697 1258 697 1243 l 814 1258 q 806 1203 814 1235 q 779 1142 797 1171 q 731 1092 761 1113 q 658 1072 701 1072 l 581 1072 z "},"Ů":{"ha":1239,"x_min":65,"x_max":1174,"o":"m 963 1010 l 1174 1010 l 1174 446 q 1143 242 1174 329 q 1046 99 1113 156 q 874 14 979 42 q 619 -14 768 -14 q 366 14 471 -14 q 194 99 261 42 q 97 242 128 156 q 65 446 65 329 l 65 1010 l 289 1010 l 289 446 q 305 332 289 379 q 360 255 321 285 q 463 212 399 225 q 626 199 528 199 q 788 212 724 199 q 892 255 853 225 q 947 332 931 285 q 963 446 963 379 l 963 1010 m 583 1072 q 481 1113 521 1072 q 442 1215 442 1153 q 481 1316 442 1278 q 583 1354 521 1354 l 654 1354 q 757 1316 717 1354 q 797 1215 797 1278 q 757 1113 797 1153 q 654 1072 717 1072 l 583 1072 m 654 1133 q 713 1156 690 1133 q 735 1214 735 1178 q 713 1269 735 1247 q 654 1292 690 1292 l 583 1292 q 526 1269 549 1292 q 504 1214 504 1247 q 526 1156 504 1178 q 583 1133 547 1133 l 654 1133 z "},"ů":{"ha":1239,"x_min":65,"x_max":1174,"o":"m 963 1010 l 1174 1010 l 1174 446 q 1143 242 1174 329 q 1046 99 1113 156 q 874 14 979 42 q 619 -14 768 -14 q 366 14 471 -14 q 194 99 261 42 q 97 242 128 156 q 65 446 65 329 l 65 1010 l 289 1010 l 289 446 q 305 332 289 379 q 360 255 321 285 q 463 212 399 225 q 626 199 528 199 q 788 212 724 199 q 892 255 853 225 q 947 332 931 285 q 963 446 963 379 l 963 1010 m 583 1072 q 481 1113 521 1072 q 442 1215 442 1153 q 481 1316 442 1278 q 583 1354 521 1354 l 654 1354 q 757 1316 717 1354 q 797 1215 797 1278 q 757 1113 797 1153 q 654 1072 717 1072 l 583 1072 m 654 1133 q 713 1156 690 1133 q 735 1214 735 1178 q 713 1269 735 1247 q 654 1292 690 1292 l 583 1292 q 526 1269 549 1292 q 504 1214 504 1247 q 526 1156 504 1178 q 583 1133 547 1133 l 654 1133 z "},"Ű":{"ha":1239,"x_min":65,"x_max":1174,"o":"m 963 1010 l 1174 1010 l 1174 446 q 1143 242 1174 329 q 1046 99 1113 156 q 874 14 979 42 q 619 -14 768 -14 q 366 14 471 -14 q 194 99 261 42 q 97 242 128 156 q 65 446 65 329 l 65 1010 l 289 1010 l 289 446 q 305 332 289 379 q 360 255 321 285 q 463 212 399 225 q 626 199 528 199 q 788 212 724 199 q 892 255 853 225 q 947 332 931 285 q 963 446 963 379 l 963 1010 m 674 1085 l 735 1258 l 881 1258 l 763 1085 l 674 1085 m 450 1085 l 511 1258 l 657 1258 l 538 1085 l 450 1085 z "},"ű":{"ha":1239,"x_min":65,"x_max":1174,"o":"m 963 1010 l 1174 1010 l 1174 446 q 1143 242 1174 329 q 1046 99 1113 156 q 874 14 979 42 q 619 -14 768 -14 q 366 14 471 -14 q 194 99 261 42 q 97 242 128 156 q 65 446 65 329 l 65 1010 l 289 1010 l 289 446 q 305 332 289 379 q 360 255 321 285 q 463 212 399 225 q 626 199 528 199 q 788 212 724 199 q 892 255 853 225 q 947 332 931 285 q 963 446 963 379 l 963 1010 m 674 1085 l 735 1258 l 881 1258 l 763 1085 l 674 1085 m 450 1085 l 511 1258 l 657 1258 l 538 1085 l 450 1085 z "},"Ų":{"ha":1239,"x_min":65,"x_max":1174,"o":"m 631 -279 q 523 -249 560 -279 q 486 -171 486 -219 q 502 -117 486 -143 q 546 -71 518 -90 l 633 -14 l 619 -14 q 366 14 471 -14 q 194 99 261 42 q 97 242 128 156 q 65 446 65 329 l 65 1010 l 289 1010 l 289 446 q 305 332 289 379 q 360 255 321 285 q 463 212 399 225 q 626 199 528 199 q 788 212 724 199 q 892 255 853 225 q 947 332 931 285 q 963 446 963 379 l 963 1010 l 1174 1010 l 1174 446 q 1072 124 1174 238 q 738 -8 971 11 l 640 -76 q 615 -111 615 -93 q 626 -132 615 -124 q 654 -140 636 -140 l 751 -140 l 751 -279 l 631 -279 z "},"ų":{"ha":1239,"x_min":65,"x_max":1174,"o":"m 631 -279 q 523 -249 560 -279 q 486 -171 486 -219 q 502 -117 486 -143 q 546 -71 518 -90 l 633 -14 l 619 -14 q 366 14 471 -14 q 194 99 261 42 q 97 242 128 156 q 65 446 65 329 l 65 1010 l 289 1010 l 289 446 q 305 332 289 379 q 360 255 321 285 q 463 212 399 225 q 626 199 528 199 q 788 212 724 199 q 892 255 853 225 q 947 332 931 285 q 963 446 963 379 l 963 1010 l 1174 1010 l 1174 446 q 1072 124 1174 238 q 738 -8 971 11 l 640 -76 q 615 -111 615 -93 q 626 -132 615 -124 q 654 -140 636 -140 l 751 -140 l 751 -279 l 631 -279 z "},"Ŵ":{"ha":1776,"x_min":13,"x_max":1763,"o":"m 889 319 l 749 54 q 701 2 729 18 q 639 -14 672 -14 q 526 54 565 -14 l 13 1010 l 271 1010 l 646 290 l 779 529 l 531 1010 l 790 1010 l 1143 290 l 1519 1010 l 1763 1010 l 1247 54 q 1199 2 1228 18 q 1136 -14 1169 -14 q 1072 2 1100 -14 q 1025 54 1044 18 l 889 319 m 964 1072 l 893 1197 l 881 1197 l 810 1072 l 694 1072 l 811 1258 l 964 1258 l 1081 1072 l 964 1072 z "},"ŵ":{"ha":1776,"x_min":13,"x_max":1763,"o":"m 889 319 l 749 54 q 701 2 729 18 q 639 -14 672 -14 q 526 54 565 -14 l 13 1010 l 271 1010 l 646 290 l 779 529 l 531 1010 l 790 1010 l 1143 290 l 1519 1010 l 1763 1010 l 1247 54 q 1199 2 1228 18 q 1136 -14 1169 -14 q 1072 2 1100 -14 q 1025 54 1044 18 l 889 319 m 964 1072 l 893 1197 l 881 1197 l 810 1072 l 694 1072 l 811 1258 l 964 1258 l 1081 1072 l 964 1072 z "},"Ŷ":{"ha":1293,"x_min":11,"x_max":1282,"o":"m 538 0 l 538 367 l 11 1010 l 301 1010 l 654 564 l 1007 1010 l 1282 1010 l 754 367 l 754 0 l 538 0 m 732 1072 l 661 1197 l 649 1197 l 578 1072 l 463 1072 l 579 1258 l 732 1258 l 849 1072 l 732 1072 z "},"ŷ":{"ha":1293,"x_min":11,"x_max":1282,"o":"m 538 0 l 538 367 l 11 1010 l 301 1010 l 654 564 l 1007 1010 l 1282 1010 l 754 367 l 754 0 l 538 0 m 732 1072 l 661 1197 l 649 1197 l 578 1072 l 463 1072 l 579 1258 l 732 1258 l 849 1072 l 732 1072 z "},"Ÿ":{"ha":1293,"x_min":11,"x_max":1282,"o":"m 538 0 l 538 367 l 11 1010 l 301 1010 l 654 564 l 1007 1010 l 1282 1010 l 754 367 l 754 0 l 538 0 m 608 1178 q 585 1124 608 1143 q 526 1104 561 1104 q 466 1124 490 1104 q 442 1178 442 1143 q 466 1231 442 1211 q 526 1250 490 1250 q 585 1231 561 1250 q 608 1178 608 1211 m 867 1178 q 843 1124 867 1143 q 783 1104 819 1104 q 724 1124 749 1104 q 700 1178 700 1143 q 724 1231 700 1211 q 783 1250 749 1250 q 843 1231 819 1250 q 867 1178 867 1211 z "},"Ź":{"ha":1119,"x_min":49,"x_max":1065,"o":"m 171 0 q 85 27 122 0 q 49 110 49 54 q 93 200 49 156 l 706 803 l 61 803 l 61 1010 l 939 1010 q 1024 982 986 1010 q 1061 900 1061 954 q 1017 808 1061 850 l 404 206 l 1065 206 l 1065 0 l 171 0 m 421 1072 l 421 1168 l 782 1258 l 782 1126 l 421 1072 z "},"ź":{"ha":1119,"x_min":49,"x_max":1065,"o":"m 171 0 q 85 27 122 0 q 49 110 49 54 q 93 200 49 156 l 706 803 l 61 803 l 61 1010 l 939 1010 q 1024 982 986 1010 q 1061 900 1061 954 q 1017 808 1061 850 l 404 206 l 1065 206 l 1065 0 l 171 0 m 421 1072 l 421 1168 l 782 1258 l 782 1126 l 421 1072 z "},"Ż":{"ha":1119,"x_min":49,"x_max":1065,"o":"m 171 0 q 85 27 122 0 q 49 110 49 54 q 93 200 49 156 l 706 803 l 61 803 l 61 1010 l 939 1010 q 1024 982 986 1010 q 1061 900 1061 954 q 1017 808 1061 850 l 404 206 l 1065 206 l 1065 0 l 171 0 m 629 1178 q 606 1124 629 1143 q 546 1104 582 1104 q 486 1124 510 1104 q 463 1178 463 1143 q 486 1231 463 1211 q 546 1250 510 1250 q 606 1231 582 1250 q 629 1178 629 1211 z "},"ż":{"ha":1119,"x_min":49,"x_max":1065,"o":"m 171 0 q 85 27 122 0 q 49 110 49 54 q 93 200 49 156 l 706 803 l 61 803 l 61 1010 l 939 1010 q 1024 982 986 1010 q 1061 900 1061 954 q 1017 808 1061 850 l 404 206 l 1065 206 l 1065 0 l 171 0 m 629 1178 q 606 1124 629 1143 q 546 1104 582 1104 q 486 1124 510 1104 q 463 1178 463 1143 q 486 1231 463 1211 q 546 1250 510 1250 q 606 1231 582 1250 q 629 1178 629 1211 z "},"Ž":{"ha":1119,"x_min":49,"x_max":1065,"o":"m 171 0 q 85 27 122 0 q 49 110 49 54 q 93 200 49 156 l 706 803 l 61 803 l 61 1010 l 939 1010 q 1024 982 986 1010 q 1061 900 1061 954 q 1017 808 1061 850 l 404 206 l 1065 206 l 1065 0 l 171 0 m 468 1072 l 353 1258 l 468 1258 l 539 1131 l 551 1131 l 622 1258 l 739 1258 l 621 1072 l 468 1072 z "},"ž":{"ha":1119,"x_min":49,"x_max":1065,"o":"m 171 0 q 85 27 122 0 q 49 110 49 54 q 93 200 49 156 l 706 803 l 61 803 l 61 1010 l 939 1010 q 1024 982 986 1010 q 1061 900 1061 954 q 1017 808 1061 850 l 404 206 l 1065 206 l 1065 0 l 171 0 m 468 1072 l 353 1258 l 468 1258 l 539 1131 l 551 1131 l 622 1258 l 739 1258 l 621 1072 l 468 1072 z "},"Ǽ":{"ha":1885,"x_min":13,"x_max":1828,"o":"m 949 0 l 949 235 l 535 235 l 635 404 l 949 404 l 949 793 l 715 793 l 256 0 l 13 0 l 568 939 q 613 990 588 971 q 674 1010 638 1010 l 1825 1010 l 1825 793 l 1164 793 l 1164 217 l 1828 217 l 1828 0 l 949 0 m 1290 428 l 1290 599 l 1786 599 l 1786 428 l 1290 428 m 910 1072 l 910 1168 l 1271 1258 l 1271 1126 l 910 1072 z "},"ǽ":{"ha":1885,"x_min":13,"x_max":1828,"o":"m 949 0 l 949 235 l 535 235 l 635 404 l 949 404 l 949 793 l 715 793 l 256 0 l 13 0 l 568 939 q 613 990 588 971 q 674 1010 638 1010 l 1825 1010 l 1825 793 l 1164 793 l 1164 217 l 1828 217 l 1828 0 l 949 0 m 1290 428 l 1290 599 l 1786 599 l 1786 428 l 1290 428 m 910 1072 l 910 1168 l 1271 1258 l 1271 1126 l 910 1072 z "},"Ǿ":{"ha":1351,"x_min":51,"x_max":1303,"o":"m 550 0 q 347 40 443 0 l 253 -69 l 190 -14 l 272 81 q 110 261 168 149 q 51 515 51 374 q 89 718 51 626 q 193 874 126 810 q 351 974 260 939 q 550 1010 442 1010 l 800 1010 q 1031 961 929 1010 l 1131 1078 l 1194 1022 l 1106 919 q 1251 751 1199 853 q 1303 515 1303 649 q 1265 311 1303 406 q 1161 148 1228 217 q 1002 40 1094 79 q 800 0 910 0 l 550 0 m 878 783 q 800 793 844 793 l 550 793 q 438 772 489 793 q 349 712 386 750 q 290 620 311 674 q 268 504 268 567 q 308 349 268 417 q 415 247 347 282 l 878 783 m 800 217 q 915 238 863 217 q 1006 298 968 260 q 1065 389 1044 336 q 1086 504 1086 442 q 1052 649 1086 585 q 958 749 1018 713 l 501 219 q 525 217 513 218 q 550 217 538 217 l 800 217 m 536 1072 l 536 1168 l 897 1258 l 897 1126 l 536 1072 z "},"ǿ":{"ha":1351,"x_min":51,"x_max":1303,"o":"m 550 0 q 347 40 443 0 l 253 -69 l 190 -14 l 272 81 q 110 261 168 149 q 51 515 51 374 q 89 718 51 626 q 193 874 126 810 q 351 974 260 939 q 550 1010 442 1010 l 800 1010 q 1031 961 929 1010 l 1131 1078 l 1194 1022 l 1106 919 q 1251 751 1199 853 q 1303 515 1303 649 q 1265 311 1303 406 q 1161 148 1228 217 q 1002 40 1094 79 q 800 0 910 0 l 550 0 m 878 783 q 800 793 844 793 l 550 793 q 438 772 489 793 q 349 712 386 750 q 290 620 311 674 q 268 504 268 567 q 308 349 268 417 q 415 247 347 282 l 878 783 m 800 217 q 915 238 863 217 q 1006 298 968 260 q 1065 389 1044 336 q 1086 504 1086 442 q 1052 649 1086 585 q 958 749 1018 713 l 501 219 q 525 217 513 218 q 550 217 538 217 l 800 217 m 536 1072 l 536 1168 l 897 1258 l 897 1126 l 536 1072 z "},"Ș":{"ha":1226,"x_min":65,"x_max":1169,"o":"m 81 0 l 81 217 l 843 217 q 933 244 901 217 q 965 321 965 272 q 933 400 965 372 q 843 428 901 428 l 386 428 q 252 449 311 428 q 151 509 193 471 q 88 601 110 547 q 65 718 65 654 q 86 834 65 781 q 148 926 107 888 q 249 988 189 965 q 389 1010 310 1010 l 1119 1010 l 1119 793 l 389 793 q 317 768 343 793 q 290 696 290 743 q 317 624 290 649 q 389 599 344 599 l 843 599 q 1086 526 1003 599 q 1169 303 1169 454 q 1149 182 1169 238 q 1088 86 1129 126 q 986 23 1047 46 q 843 0 925 0 l 81 0 m 493 -65 l 704 -65 l 599 -279 l 493 -65 z "},"ș":{"ha":1226,"x_min":65,"x_max":1169,"o":"m 81 0 l 81 217 l 843 217 q 933 244 901 217 q 965 321 965 272 q 933 400 965 372 q 843 428 901 428 l 386 428 q 252 449 311 428 q 151 509 193 471 q 88 601 110 547 q 65 718 65 654 q 86 834 65 781 q 148 926 107 888 q 249 988 189 965 q 389 1010 310 1010 l 1119 1010 l 1119 793 l 389 793 q 317 768 343 793 q 290 696 290 743 q 317 624 290 649 q 389 599 344 599 l 843 599 q 1086 526 1003 599 q 1169 303 1169 454 q 1149 182 1169 238 q 1088 86 1129 126 q 986 23 1047 46 q 843 0 925 0 l 81 0 m 493 -65 l 704 -65 l 599 -279 l 493 -65 z "},"Ț":{"ha":1001,"x_min":21,"x_max":979,"o":"m 392 0 l 392 793 l 21 793 l 21 1010 l 979 1010 l 979 793 l 608 793 l 608 0 l 392 0 m 394 -65 l 606 -65 l 500 -279 l 394 -65 z "},"ț":{"ha":1001,"x_min":21,"x_max":979,"o":"m 392 0 l 392 793 l 21 793 l 21 1010 l 979 1010 l 979 793 l 608 793 l 608 0 l 392 0 m 394 -65 l 606 -65 l 500 -279 l 394 -65 z "},"ˆ":{"ha":533,"x_min":74,"x_max":460,"o":"m 343 1072 l 272 1197 l 260 1197 l 189 1072 l 74 1072 l 190 1258 l 343 1258 l 460 1072 l 343 1072 z "},"ˇ":{"ha":533,"x_min":74,"x_max":460,"o":"m 189 1072 l 74 1258 l 189 1258 l 260 1131 l 272 1131 l 343 1258 l 460 1258 l 342 1072 l 189 1072 z "},"˘":{"ha":538,"x_min":74,"x_max":464,"o":"m 231 1072 q 156 1092 186 1072 q 108 1142 126 1113 q 82 1203 90 1171 q 74 1258 74 1235 l 188 1258 q 192 1223 188 1243 q 204 1185 196 1203 q 226 1156 213 1168 q 260 1143 240 1143 l 283 1143 q 315 1156 303 1143 q 335 1185 328 1168 q 344 1223 342 1203 q 347 1258 347 1243 l 464 1258 q 456 1203 464 1235 q 429 1142 447 1171 q 381 1092 411 1113 q 308 1072 351 1072 l 231 1072 z "},"˙":{"ha":314,"x_min":74,"x_max":240,"o":"m 240 1178 q 217 1124 240 1143 q 157 1104 193 1104 q 97 1124 121 1104 q 74 1178 74 1143 q 97 1231 74 1211 q 157 1250 121 1250 q 217 1231 193 1250 q 240 1178 240 1211 z "},"˚":{"ha":503,"x_min":74,"x_max":429,"o":"m 215 1072 q 113 1113 153 1072 q 74 1215 74 1153 q 113 1316 74 1278 q 215 1354 153 1354 l 286 1354 q 389 1316 349 1354 q 429 1215 429 1278 q 389 1113 429 1153 q 286 1072 349 1072 l 215 1072 m 286 1133 q 344 1156 322 1133 q 367 1214 367 1178 q 344 1269 367 1247 q 286 1292 322 1292 l 215 1292 q 158 1269 181 1292 q 136 1214 136 1247 q 158 1156 136 1178 q 215 1133 179 1133 l 286 1133 z "},"˛":{"ha":326,"x_min":25,"x_max":290,"o":"m 169 -279 q 62 -249 99 -279 q 25 -171 25 -219 q 41 -116 25 -143 q 85 -71 57 -89 l 194 0 l 290 0 l 179 -76 q 154 -111 154 -93 q 165 -132 154 -124 q 193 -140 175 -140 l 290 -140 l 290 -279 l 169 -279 z "},"˜":{"ha":508,"x_min":74,"x_max":435,"o":"m 435 1133 q 394 1105 418 1114 q 342 1096 369 1096 q 297 1103 318 1096 q 255 1121 276 1111 q 211 1138 233 1131 q 165 1146 189 1146 q 113 1132 138 1146 q 74 1101 88 1118 l 74 1197 q 165 1236 104 1236 q 211 1228 189 1236 q 254 1210 233 1219 q 297 1193 275 1201 q 342 1185 318 1185 q 396 1199 371 1185 q 435 1231 421 1213 l 435 1133 z "},"˝":{"ha":578,"x_min":74,"x_max":504,"o":"m 297 1085 l 358 1258 l 504 1258 l 386 1085 l 297 1085 m 74 1085 l 135 1258 l 281 1258 l 161 1085 l 74 1085 z "},"̦":{"ha":331,"x_min":60,"x_max":271,"o":"m 60 -65 l 271 -65 l 165 -279 l 60 -65 z "},"Ẁ":{"ha":1776,"x_min":13,"x_max":1763,"o":"m 889 319 l 749 54 q 701 2 729 18 q 639 -14 672 -14 q 526 54 565 -14 l 13 1010 l 271 1010 l 646 290 l 779 529 l 531 1010 l 790 1010 l 1143 290 l 1519 1010 l 1763 1010 l 1247 54 q 1199 2 1228 18 q 1136 -14 1169 -14 q 1072 2 1100 -14 q 1025 54 1044 18 l 889 319 m 665 1126 l 665 1258 l 1026 1168 l 1026 1072 l 665 1126 z "},"ẁ":{"ha":1776,"x_min":13,"x_max":1763,"o":"m 889 319 l 749 54 q 701 2 729 18 q 639 -14 672 -14 q 526 54 565 -14 l 13 1010 l 271 1010 l 646 290 l 779 529 l 531 1010 l 790 1010 l 1143 290 l 1519 1010 l 1763 1010 l 1247 54 q 1199 2 1228 18 q 1136 -14 1169 -14 q 1072 2 1100 -14 q 1025 54 1044 18 l 889 319 m 665 1126 l 665 1258 l 1026 1168 l 1026 1072 l 665 1126 z "},"Ẃ":{"ha":1776,"x_min":13,"x_max":1763,"o":"m 889 319 l 749 54 q 701 2 729 18 q 639 -14 672 -14 q 526 54 565 -14 l 13 1010 l 271 1010 l 646 290 l 779 529 l 531 1010 l 790 1010 l 1143 290 l 1519 1010 l 1763 1010 l 1247 54 q 1199 2 1228 18 q 1136 -14 1169 -14 q 1072 2 1100 -14 q 1025 54 1044 18 l 889 319 m 749 1072 l 749 1168 l 1110 1258 l 1110 1126 l 749 1072 z "},"ẃ":{"ha":1776,"x_min":13,"x_max":1763,"o":"m 889 319 l 749 54 q 701 2 729 18 q 639 -14 672 -14 q 526 54 565 -14 l 13 1010 l 271 1010 l 646 290 l 779 529 l 531 1010 l 790 1010 l 1143 290 l 1519 1010 l 1763 1010 l 1247 54 q 1199 2 1228 18 q 1136 -14 1169 -14 q 1072 2 1100 -14 q 1025 54 1044 18 l 889 319 m 749 1072 l 749 1168 l 1110 1258 l 1110 1126 l 749 1072 z "},"Ẅ":{"ha":1776,"x_min":13,"x_max":1763,"o":"m 889 319 l 749 54 q 701 2 729 18 q 639 -14 672 -14 q 526 54 565 -14 l 13 1010 l 271 1010 l 646 290 l 779 529 l 531 1010 l 790 1010 l 1143 290 l 1519 1010 l 1763 1010 l 1247 54 q 1199 2 1228 18 q 1136 -14 1169 -14 q 1072 2 1100 -14 q 1025 54 1044 18 l 889 319 m 842 1178 q 818 1124 842 1143 q 760 1104 794 1104 q 699 1124 724 1104 q 675 1178 675 1143 q 699 1231 675 1211 q 760 1250 724 1250 q 818 1231 794 1250 q 842 1178 842 1211 m 1100 1178 q 1076 1124 1100 1143 q 1017 1104 1053 1104 q 958 1124 982 1104 q 933 1178 933 1143 q 958 1231 933 1211 q 1017 1250 982 1250 q 1076 1231 1053 1250 q 1100 1178 1100 1211 z "},"ẅ":{"ha":1776,"x_min":13,"x_max":1763,"o":"m 889 319 l 749 54 q 701 2 729 18 q 639 -14 672 -14 q 526 54 565 -14 l 13 1010 l 271 1010 l 646 290 l 779 529 l 531 1010 l 790 1010 l 1143 290 l 1519 1010 l 1763 1010 l 1247 54 q 1199 2 1228 18 q 1136 -14 1169 -14 q 1072 2 1100 -14 q 1025 54 1044 18 l 889 319 m 842 1178 q 818 1124 842 1143 q 760 1104 794 1104 q 699 1124 724 1104 q 675 1178 675 1143 q 699 1231 675 1211 q 760 1250 724 1250 q 818 1231 794 1250 q 842 1178 842 1211 m 1100 1178 q 1076 1124 1100 1143 q 1017 1104 1053 1104 q 958 1124 982 1104 q 933 1178 933 1143 q 958 1231 933 1211 q 1017 1250 982 1250 q 1076 1231 1053 1250 q 1100 1178 1100 1211 z "},"Ỳ":{"ha":1293,"x_min":11,"x_max":1282,"o":"m 538 0 l 538 367 l 11 1010 l 301 1010 l 654 564 l 1007 1010 l 1282 1010 l 754 367 l 754 0 l 538 0 m 433 1126 l 433 1258 l 794 1168 l 794 1072 l 433 1126 z "},"ỳ":{"ha":1293,"x_min":11,"x_max":1282,"o":"m 538 0 l 538 367 l 11 1010 l 301 1010 l 654 564 l 1007 1010 l 1282 1010 l 754 367 l 754 0 l 538 0 m 433 1126 l 433 1258 l 794 1168 l 794 1072 l 433 1126 z "},"–":{"ha":818,"x_min":33,"x_max":789,"o":"m 33 436 l 33 590 l 789 590 l 789 436 l 33 436 z "},"—":{"ha":1208,"x_min":33,"x_max":1178,"o":"m 33 436 l 33 590 l 1178 590 l 1178 436 l 33 436 z "},"‘":{"ha":382,"x_min":81,"x_max":301,"o":"m 160 629 l 81 1010 l 301 1010 l 301 629 l 160 629 z "},"’":{"ha":382,"x_min":83,"x_max":301,"o":"m 83 629 l 83 1010 l 301 1010 l 222 629 l 83 629 z "},"‚":{"ha":382,"x_min":83,"x_max":301,"o":"m 83 -164 l 83 215 l 301 215 l 222 -164 l 83 -164 z "},"“":{"ha":688,"x_min":81,"x_max":614,"o":"m 474 629 l 393 1010 l 614 1010 l 614 629 l 474 629 m 160 629 l 81 1010 l 301 1010 l 301 629 l 160 629 z "},"”":{"ha":688,"x_min":83,"x_max":614,"o":"m 83 629 l 83 1010 l 301 1010 l 222 629 l 83 629 m 397 629 l 397 1010 l 614 1010 l 535 629 l 397 629 z "},"„":{"ha":688,"x_min":83,"x_max":614,"o":"m 83 -164 l 83 215 l 301 215 l 222 -164 l 83 -164 m 397 -164 l 397 215 l 614 215 l 535 -164 l 397 -164 z "},"†":{"ha":657,"x_min":81,"x_max":576,"o":"m 281 0 l 281 701 l 81 701 l 81 797 l 281 797 l 281 1010 l 378 1010 l 378 797 l 576 797 l 576 701 l 378 701 l 378 0 l 281 0 z "},"‡":{"ha":657,"x_min":81,"x_max":576,"o":"m 281 0 l 281 211 l 81 211 l 81 307 l 281 307 l 281 701 l 81 701 l 81 797 l 281 797 l 281 1010 l 378 1010 l 378 797 l 576 797 l 576 701 l 378 701 l 378 307 l 576 307 l 576 211 l 378 211 l 378 0 l 281 0 z "},"•":{"ha":581,"x_min":81,"x_max":500,"o":"m 500 515 q 483 434 500 472 q 438 367 467 396 q 370 321 408 338 q 289 304 332 304 q 208 321 246 304 q 142 367 169 338 q 97 434 114 396 q 81 515 81 472 q 97 597 81 558 q 142 664 114 635 q 208 710 169 693 q 289 726 246 726 q 370 710 332 726 q 438 664 408 693 q 483 597 467 635 q 500 515 500 558 z "},"…":{"ha":1931,"x_min":81,"x_max":1850,"o":"m 306 100 q 273 20 306 53 q 192 -12 240 -12 q 113 20 144 -12 q 81 100 81 53 q 113 180 81 147 q 192 213 144 213 q 273 180 240 213 q 306 100 306 147 m 1078 100 q 1045 20 1078 53 q 964 -12 1013 -12 q 885 20 917 -12 q 853 100 853 53 q 885 180 853 147 q 964 213 917 213 q 1045 180 1013 213 q 1078 100 1078 147 m 1850 100 q 1817 20 1850 53 q 1736 -12 1785 -12 q 1657 20 1689 -12 q 1625 100 1625 53 q 1657 180 1625 147 q 1736 213 1689 213 q 1817 180 1785 213 q 1850 100 1850 147 z "},"‰":{"ha":1864,"x_min":51,"x_max":1813,"o":"m 585 778 q 564 675 585 724 q 508 591 543 626 q 423 535 472 556 q 318 514 374 514 q 213 535 261 514 q 128 591 164 556 q 72 675 92 626 q 51 778 51 724 q 72 880 51 833 q 128 960 92 926 q 213 1013 164 994 q 318 1032 261 1032 q 423 1013 374 1032 q 508 960 472 994 q 564 880 543 926 q 585 778 585 833 m 475 772 q 436 881 475 839 q 318 922 397 922 q 199 881 239 922 q 160 772 160 839 q 199 664 160 706 q 317 622 238 622 q 435 664 396 622 q 475 772 475 706 m 78 -93 l 1006 1071 l 1149 1071 l 224 -93 l 78 -93 m 1201 243 q 1181 140 1201 189 q 1124 56 1160 92 q 1040 0 1089 21 q 935 -21 990 -21 q 829 0 878 -21 q 744 56 781 21 q 688 140 708 92 q 668 243 668 189 q 688 345 668 299 q 744 426 708 392 q 829 478 781 460 q 935 497 878 497 q 1040 478 990 497 q 1124 426 1089 460 q 1181 345 1160 392 q 1201 243 1201 299 m 1092 238 q 1053 346 1092 304 q 935 388 1014 388 q 816 346 856 388 q 776 238 776 304 q 815 129 776 171 q 933 88 854 88 q 1052 129 1013 88 q 1092 238 1092 171 m 1813 243 q 1792 140 1813 189 q 1735 56 1771 92 q 1651 0 1700 21 q 1546 -21 1601 -21 q 1440 0 1489 -21 q 1356 56 1392 21 q 1299 140 1319 92 q 1279 243 1279 189 q 1299 345 1279 299 q 1356 426 1319 392 q 1440 478 1392 460 q 1546 497 1489 497 q 1651 478 1601 497 q 1735 426 1700 460 q 1792 345 1771 392 q 1813 243 1813 299 m 1703 238 q 1664 346 1703 304 q 1546 388 1625 388 q 1427 346 1467 388 q 1388 238 1388 304 q 1426 129 1388 171 q 1544 88 1465 88 q 1663 129 1624 88 q 1703 238 1703 171 z "},"‹":{"ha":503,"x_min":51,"x_max":453,"o":"m 79 474 q 51 515 51 490 q 79 560 51 543 l 453 783 l 453 678 l 169 514 l 453 347 l 453 249 l 79 474 z "},"›":{"ha":503,"x_min":51,"x_max":453,"o":"m 51 249 l 51 347 l 335 514 l 51 678 l 51 783 l 425 560 q 445 540 439 551 q 453 515 451 528 q 425 474 453 490 l 51 249 z "},"⁄":{"ha":297,"x_min":-386,"x_max":685,"o":"m -386 -93 l 542 1071 l 685 1071 l -240 -93 l -386 -93 z "},"⁰":{"ha":625,"x_min":46,"x_max":579,"o":"m 579 778 q 558 675 579 724 q 502 591 538 626 q 417 535 467 556 q 313 514 368 514 q 207 535 256 514 q 122 591 158 556 q 66 675 86 626 q 46 778 46 724 q 66 880 46 833 q 122 960 86 926 q 207 1013 158 994 q 313 1032 256 1032 q 417 1013 368 1032 q 502 960 467 994 q 558 880 538 926 q 579 778 579 833 m 469 772 q 431 881 469 839 q 313 922 392 922 q 194 881 233 922 q 154 772 154 839 q 193 664 154 706 q 311 622 232 622 q 430 664 390 622 q 469 772 469 706 z "},"⁴":{"ha":631,"x_min":50,"x_max":596,"o":"m 418 521 l 418 656 l 225 656 q 95 695 140 656 q 50 822 50 735 l 50 1025 l 158 1025 l 158 824 q 174 772 158 786 q 225 758 189 758 l 418 758 l 418 1025 l 525 1025 l 525 758 l 596 758 l 596 656 l 525 656 l 525 521 l 418 521 z "},"⁵":{"ha":658,"x_min":61,"x_max":604,"o":"m 61 521 l 61 629 l 442 629 q 503 681 503 629 q 442 735 503 735 l 61 735 l 61 1025 l 581 1025 l 581 917 l 172 917 l 172 819 l 442 819 q 563 783 521 819 q 604 672 604 747 q 565 563 604 606 q 442 521 525 521 l 61 521 z "},"⁶":{"ha":649,"x_min":46,"x_max":594,"o":"m 279 521 q 108 584 171 521 q 46 778 46 647 q 108 966 46 907 q 279 1025 171 1025 l 574 1025 l 574 917 l 279 917 q 197 894 228 917 q 158 819 167 872 l 440 819 q 555 785 515 819 q 594 676 594 751 q 553 561 594 601 q 440 521 513 521 l 279 521 m 157 735 q 194 653 164 676 q 279 629 225 629 l 429 629 q 492 683 492 629 q 429 735 492 735 l 157 735 z "},"⁷":{"ha":568,"x_min":47,"x_max":536,"o":"m 51 521 l 375 917 l 47 917 l 47 1025 l 468 1025 q 520 1010 504 1025 q 536 975 536 994 q 532 951 536 964 q 515 924 528 939 l 192 521 l 51 521 z "},"⁸":{"ha":668,"x_min":51,"x_max":615,"o":"m 218 521 q 97 563 143 521 q 51 681 51 606 q 72 749 51 721 q 119 789 92 778 q 81 824 99 800 q 63 893 63 847 q 108 992 63 960 q 231 1025 154 1025 l 436 1025 q 559 992 513 1025 q 606 893 606 960 q 587 824 606 847 q 547 789 568 800 q 595 749 575 778 q 615 681 615 721 q 569 563 615 606 q 449 521 524 521 l 218 521 m 222 735 q 178 720 193 735 q 163 682 163 706 q 231 629 163 629 l 436 629 q 487 642 468 629 q 506 682 506 656 q 490 720 506 706 q 446 735 475 735 l 222 735 m 238 918 q 172 868 172 918 q 229 819 172 819 l 438 819 q 496 868 496 819 q 429 918 496 918 l 238 918 z "},"⁹":{"ha":642,"x_min":46,"x_max":594,"o":"m 104 521 l 104 628 l 363 628 q 481 714 457 628 l 197 714 q 86 749 126 714 q 46 865 46 785 q 86 979 46 933 q 197 1025 126 1025 l 363 1025 q 533 962 471 1025 q 594 768 594 899 q 532 580 594 639 q 363 521 469 521 l 104 521 m 157 857 q 215 799 157 799 l 485 799 q 451 889 481 861 q 363 917 421 917 l 215 917 q 157 857 157 917 z "},"₀":{"ha":625,"x_min":46,"x_max":579,"o":"m 579 243 q 558 140 579 189 q 502 56 538 92 q 417 0 467 21 q 313 -21 368 -21 q 207 0 256 -21 q 122 56 158 21 q 66 140 86 92 q 46 243 46 189 q 66 345 46 299 q 122 426 86 392 q 207 478 158 460 q 313 497 256 497 q 417 478 368 497 q 502 426 467 460 q 558 345 538 392 q 579 243 579 299 m 469 238 q 431 346 469 304 q 313 388 392 388 q 194 346 233 388 q 154 238 154 304 q 193 129 154 171 q 311 88 232 88 q 430 129 390 88 q 469 238 469 171 z "},"₁":{"ha":311,"x_min":33,"x_max":250,"o":"m 142 -14 l 142 315 q 82 382 142 382 l 33 382 l 33 490 l 82 490 q 206 444 163 490 q 250 315 250 399 l 250 -14 l 142 -14 z "},"₂":{"ha":615,"x_min":61,"x_max":563,"o":"m 61 -14 l 61 138 q 222 285 61 285 l 400 285 q 450 333 450 285 q 400 382 450 382 l 65 382 l 65 490 l 400 490 q 521 449 479 490 q 563 344 563 407 q 519 240 563 281 q 401 200 476 200 l 222 200 q 163 146 163 200 l 163 94 l 554 94 l 554 -14 l 61 -14 z "},"₃":{"ha":617,"x_min":49,"x_max":567,"o":"m 49 -14 l 49 94 l 388 94 q 456 147 456 94 q 396 200 456 200 l 171 200 l 171 285 l 389 285 q 447 333 447 285 q 381 383 447 383 l 51 383 l 51 490 l 388 490 q 510 458 464 490 q 556 358 556 425 q 538 289 556 313 q 499 254 519 265 q 547 215 526 243 q 567 146 567 186 q 521 28 567 71 q 400 -14 475 -14 l 49 -14 z "},"₄":{"ha":631,"x_min":50,"x_max":596,"o":"m 418 -14 l 418 121 l 225 121 q 95 160 140 121 q 50 288 50 200 l 50 490 l 158 490 l 158 289 q 174 238 158 251 q 225 224 189 224 l 418 224 l 418 490 l 525 490 l 525 224 l 596 224 l 596 121 l 525 121 l 525 -14 l 418 -14 z "},"₅":{"ha":658,"x_min":61,"x_max":604,"o":"m 61 -14 l 61 94 l 442 94 q 503 146 503 94 q 442 200 503 200 l 61 200 l 61 490 l 581 490 l 581 382 l 172 382 l 172 285 l 442 285 q 563 249 521 285 q 604 138 604 213 q 565 28 604 71 q 442 -14 525 -14 l 61 -14 z "},"₆":{"ha":649,"x_min":46,"x_max":594,"o":"m 279 -14 q 108 49 171 -14 q 46 243 46 113 q 108 431 46 372 q 279 490 171 490 l 574 490 l 574 382 l 279 382 q 197 360 228 382 q 158 285 167 338 l 440 285 q 555 251 515 285 q 594 142 594 217 q 553 26 594 67 q 440 -14 513 -14 l 279 -14 m 157 200 q 194 118 164 142 q 279 94 225 94 l 429 94 q 492 149 492 94 q 429 200 492 200 l 157 200 z "},"₇":{"ha":568,"x_min":47,"x_max":536,"o":"m 51 -14 l 375 382 l 47 382 l 47 490 l 468 490 q 520 475 504 490 q 536 440 536 460 q 532 417 536 429 q 515 389 528 404 l 192 -14 l 51 -14 z "},"₈":{"ha":668,"x_min":51,"x_max":615,"o":"m 218 -14 q 97 28 143 -14 q 51 146 51 71 q 72 215 51 186 q 119 254 92 243 q 81 289 99 265 q 63 358 63 313 q 108 458 63 425 q 231 490 154 490 l 436 490 q 559 458 513 490 q 606 358 606 425 q 587 289 606 313 q 547 254 568 265 q 595 215 575 243 q 615 146 615 186 q 569 28 615 71 q 449 -14 524 -14 l 218 -14 m 222 200 q 178 185 193 200 q 163 147 163 171 q 231 94 163 94 l 436 94 q 487 108 468 94 q 506 147 506 121 q 490 185 506 171 q 446 200 475 200 l 222 200 m 238 383 q 172 333 172 383 q 229 285 172 285 l 438 285 q 496 333 496 285 q 429 383 496 383 l 238 383 z "},"₉":{"ha":642,"x_min":46,"x_max":594,"o":"m 104 -14 l 104 93 l 363 93 q 481 179 457 93 l 197 179 q 86 215 126 179 q 46 331 46 250 q 86 444 46 399 q 197 490 126 490 l 363 490 q 533 427 471 490 q 594 233 594 364 q 532 45 594 104 q 363 -14 469 -14 l 104 -14 m 157 322 q 215 264 157 264 l 485 264 q 451 354 481 326 q 363 382 421 382 l 215 382 q 157 322 157 382 z "},"€":{"ha":1235,"x_min":35,"x_max":1197,"o":"m 640 0 q 471 28 550 0 q 329 105 392 56 q 222 223 267 154 q 157 374 178 292 l 35 374 l 56 450 l 143 450 q 141 481 142 465 q 140 515 140 497 q 140 540 140 526 q 142 565 140 554 l 35 565 l 56 644 l 154 644 q 217 795 174 728 q 325 910 261 863 q 469 984 389 958 q 640 1010 549 1010 l 1197 1010 l 1056 793 l 640 793 q 492 753 556 793 q 394 644 428 713 l 961 644 l 910 565 l 364 565 q 357 504 357 531 q 361 450 357 476 l 836 450 l 786 374 l 390 374 q 488 259 422 301 q 640 217 553 217 l 1117 217 l 1117 0 l 640 0 z "},"℗":{"ha":1138,"x_min":51,"x_max":1086,"o":"m 569 -14 q 368 27 463 -14 q 203 139 274 68 q 92 304 133 210 q 51 506 51 399 q 92 707 51 613 q 203 872 133 801 q 368 982 274 942 q 569 1022 463 1022 q 771 982 676 1022 q 935 872 865 942 q 1046 707 1006 801 q 1086 506 1086 613 q 1046 304 1086 399 q 935 139 1006 210 q 771 27 865 68 q 569 -14 676 -14 m 572 42 q 751 78 668 42 q 897 177 835 114 q 996 324 960 240 q 1032 504 1032 408 q 996 685 1032 600 q 897 832 960 769 q 751 931 835 894 q 572 968 668 968 q 390 931 474 968 q 243 832 306 894 q 145 685 181 769 q 110 504 110 600 q 145 324 110 408 q 243 177 181 240 q 390 78 306 114 q 572 42 474 42 m 486 422 l 486 478 l 675 478 q 747 503 721 478 q 772 568 772 528 q 747 634 772 610 q 675 658 721 658 l 419 658 l 419 297 l 358 297 l 358 721 l 675 721 q 792 681 750 721 q 833 572 833 640 q 792 464 833 506 q 675 422 750 422 l 486 422 z "},"™":{"ha":739,"x_min":56,"x_max":658,"o":"m 588 667 l 588 826 l 533 667 l 479 667 l 422 825 l 422 667 l 351 667 l 351 1010 l 417 1010 l 506 786 l 594 1010 l 658 1010 l 658 667 l 588 667 m 147 667 l 147 939 l 56 939 l 56 1010 l 310 1010 l 310 939 l 219 939 l 219 667 l 147 667 z "},"⅓":{"ha":1339,"x_min":51,"x_max":1288,"o":"m 282 521 l 282 850 q 222 917 282 917 l 174 917 l 174 1025 l 222 1025 q 347 979 303 1025 q 390 850 390 933 l 390 521 l 282 521 m 51 -93 l 979 1071 l 1122 1071 l 197 -93 l 51 -93 m 769 -14 l 769 94 l 1108 94 q 1176 147 1176 94 q 1117 200 1176 200 l 892 200 l 892 285 l 1110 285 q 1168 333 1168 285 q 1101 383 1168 383 l 772 383 l 772 490 l 1108 490 q 1231 458 1185 490 q 1276 358 1276 425 q 1258 289 1276 313 q 1219 254 1240 265 q 1267 215 1247 243 q 1288 146 1288 186 q 1242 28 1288 71 q 1121 -14 1196 -14 l 769 -14 z "},"⅔":{"ha":1368,"x_min":53,"x_max":1317,"o":"m 53 521 l 53 672 q 214 819 53 819 l 392 819 q 442 868 442 819 q 392 917 442 917 l 57 917 l 57 1025 l 392 1025 q 513 983 471 1025 q 554 879 554 942 q 511 775 554 815 q 393 735 468 735 l 214 735 q 154 681 154 735 l 154 629 l 546 629 l 546 521 l 53 521 m 122 -93 l 1050 1071 l 1193 1071 l 268 -93 l 122 -93 m 799 -14 l 799 94 l 1138 94 q 1206 147 1206 94 q 1146 200 1206 200 l 921 200 l 921 285 l 1139 285 q 1197 333 1197 285 q 1131 383 1197 383 l 801 383 l 801 490 l 1138 490 q 1260 458 1214 490 q 1306 358 1306 425 q 1288 289 1306 313 q 1249 254 1269 265 q 1297 215 1276 243 q 1317 146 1317 186 q 1271 28 1317 71 q 1150 -14 1225 -14 l 799 -14 z "},"⅛":{"ha":1374,"x_min":51,"x_max":1322,"o":"m 282 521 l 282 850 q 222 917 282 917 l 174 917 l 174 1025 l 222 1025 q 347 979 303 1025 q 390 850 390 933 l 390 521 l 282 521 m 51 -93 l 979 1071 l 1122 1071 l 197 -93 l 51 -93 m 925 -14 q 804 28 850 -14 q 758 146 758 71 q 778 215 758 186 q 826 254 799 243 q 788 289 806 265 q 769 358 769 313 q 815 458 769 425 q 938 490 861 490 l 1143 490 q 1266 458 1219 490 q 1313 358 1313 425 q 1294 289 1313 313 q 1254 254 1275 265 q 1302 215 1282 243 q 1322 146 1322 186 q 1276 28 1322 71 q 1156 -14 1231 -14 l 925 -14 m 929 200 q 885 185 900 200 q 869 147 869 171 q 938 94 869 94 l 1143 94 q 1194 108 1175 94 q 1213 147 1213 121 q 1197 185 1213 171 q 1153 200 1182 200 l 929 200 m 944 383 q 879 333 879 383 q 936 285 879 285 l 1144 285 q 1203 333 1203 285 q 1136 383 1203 383 l 944 383 z "},"⅜":{"ha":1375,"x_min":51,"x_max":1324,"o":"m 51 521 l 51 629 l 390 629 q 458 682 458 629 q 399 735 458 735 l 174 735 l 174 819 l 392 819 q 450 868 450 819 q 383 918 450 918 l 54 918 l 54 1025 l 390 1025 q 513 992 467 1025 q 558 893 558 960 q 540 824 558 847 q 501 789 522 800 q 549 749 529 778 q 569 681 569 721 q 524 563 569 606 q 403 521 478 521 l 51 521 m 108 -93 l 1036 1071 l 1179 1071 l 254 -93 l 108 -93 m 926 -14 q 806 28 851 -14 q 760 146 760 71 q 780 215 760 186 q 828 254 800 243 q 789 289 807 265 q 771 358 771 313 q 817 458 771 425 q 939 490 863 490 l 1144 490 q 1267 458 1221 490 q 1314 358 1314 425 q 1295 289 1314 313 q 1256 254 1276 265 q 1303 215 1283 243 q 1324 146 1324 186 q 1278 28 1324 71 q 1157 -14 1232 -14 l 926 -14 m 931 200 q 886 185 901 200 q 871 147 871 171 q 939 94 871 94 l 1144 94 q 1195 108 1176 94 q 1214 147 1214 121 q 1199 185 1214 171 q 1154 200 1183 200 l 931 200 m 946 383 q 881 333 881 383 q 938 285 881 285 l 1146 285 q 1204 333 1204 285 q 1138 383 1204 383 l 946 383 z "},"⅝":{"ha":1376,"x_min":53,"x_max":1325,"o":"m 53 521 l 53 629 l 433 629 q 494 681 494 629 q 433 735 494 735 l 53 735 l 53 1025 l 572 1025 l 572 917 l 164 917 l 164 819 l 433 819 q 554 783 513 819 q 596 672 596 747 q 556 563 596 606 q 433 521 517 521 l 53 521 m 138 -93 l 1065 1071 l 1208 1071 l 283 -93 l 138 -93 m 928 -14 q 807 28 853 -14 q 761 146 761 71 q 781 215 761 186 q 829 254 801 243 q 790 289 808 265 q 772 358 772 313 q 818 458 772 425 q 940 490 864 490 l 1146 490 q 1269 458 1222 490 q 1315 358 1315 425 q 1297 289 1315 313 q 1257 254 1278 265 q 1305 215 1285 243 q 1325 146 1325 186 q 1279 28 1325 71 q 1158 -14 1233 -14 l 928 -14 m 932 200 q 888 185 903 200 q 872 147 872 171 q 940 94 872 94 l 1146 94 q 1197 108 1178 94 q 1215 147 1215 121 q 1200 185 1215 171 q 1156 200 1185 200 l 932 200 m 947 383 q 882 333 882 383 q 939 285 882 285 l 1147 285 q 1206 333 1206 285 q 1139 383 1206 383 l 947 383 z "},"⅞":{"ha":1346,"x_min":51,"x_max":1294,"o":"m 101 521 l 425 917 l 97 917 l 97 1025 l 518 1025 q 570 1010 554 1025 q 586 975 586 994 q 582 951 586 964 q 565 924 578 939 l 242 521 l 101 521 m 51 -93 l 979 1071 l 1122 1071 l 197 -93 l 51 -93 m 897 -14 q 776 28 822 -14 q 731 146 731 71 q 751 215 731 186 q 799 254 771 243 q 760 289 778 265 q 742 358 742 313 q 788 458 742 425 q 910 490 833 490 l 1115 490 q 1238 458 1192 490 q 1285 358 1285 425 q 1266 289 1285 313 q 1226 254 1247 265 q 1274 215 1254 243 q 1294 146 1294 186 q 1249 28 1294 71 q 1128 -14 1203 -14 l 897 -14 m 901 200 q 857 185 872 200 q 842 147 842 171 q 910 94 842 94 l 1115 94 q 1166 108 1147 94 q 1185 147 1185 121 q 1169 185 1185 171 q 1125 200 1154 200 l 901 200 m 917 383 q 851 333 851 383 q 908 285 851 285 l 1117 285 q 1175 333 1175 285 q 1108 383 1175 383 l 917 383 z "},"−":{"ha":958,"x_min":81,"x_max":878,"o":"m 81 442 l 81 585 l 878 585 l 878 442 l 81 442 z "},"≈":{"ha":958,"x_min":82,"x_max":878,"o":"m 878 299 q 785 251 838 265 q 674 236 732 236 q 576 249 624 236 q 482 278 529 263 q 386 308 435 294 q 285 321 338 321 q 170 299 226 321 q 82 246 114 276 l 82 399 q 171 448 119 432 q 285 464 222 464 q 384 451 336 464 q 478 422 432 438 q 573 394 525 407 q 674 381 621 381 q 791 403 736 381 q 878 454 846 426 l 878 299 m 878 631 q 785 583 838 597 q 674 568 732 568 q 576 581 624 568 q 482 610 529 594 q 386 640 435 626 q 285 653 338 653 q 170 631 226 653 q 82 578 114 608 l 82 731 q 171 780 119 764 q 285 796 222 796 q 384 783 336 796 q 478 754 432 769 q 573 726 525 739 q 674 713 621 713 q 791 735 736 713 q 878 786 846 758 l 878 631 z "},"≠":{"ha":958,"x_min":-57,"x_max":1014,"o":"m -57 -93 l 222 257 l 81 257 l 81 400 l 336 400 l 515 625 l 81 625 l 81 767 l 628 767 l 871 1071 l 1014 1071 l 772 767 l 878 767 l 878 625 l 660 625 l 481 400 l 878 400 l 878 257 l 367 257 l 89 -93 l -57 -93 z "},"≤":{"ha":958,"x_min":81,"x_max":878,"o":"m 138 436 q 81 514 81 460 q 95 559 81 538 q 138 592 110 581 l 878 888 l 878 733 l 264 514 l 878 290 l 878 139 l 138 436 m 81 -115 l 81 28 l 878 28 l 878 -115 l 81 -115 z "},"≥":{"ha":958,"x_min":81,"x_max":878,"o":"m 81 139 l 81 290 l 694 514 l 81 733 l 81 888 l 821 592 q 863 559 847 581 q 878 514 878 538 q 863 467 878 486 q 821 436 847 447 l 81 139 m 81 -115 l 81 28 l 878 28 l 878 -115 l 81 -115 z "},"":{"ha":415,"x_min":0,"x_max":0,"o":""}}}
